<?xml version="1.0" encoding="UTF-8" standalone="no"?>
<!DOCTYPE svg PUBLIC "-//W3C//DTD SVG 1.1//EN"
 "http://www.w3.org/Graphics/SVG/1.1/DTD/svg11.dtd">
<!-- Generated by graphviz version 2.40.1 (20161225.0304)
 -->
<!-- Title: G Pages: 1 -->
<svg width="995pt" height="870pt"
 viewBox="0.00 0.00 995.09 870.00" xmlns="http://www.w3.org/2000/svg" xmlns:xlink="http://www.w3.org/1999/xlink">
<g id="graph0" class="graph" transform="scale(1 1) rotate(0) translate(4 866)">
<title>G</title>
<polygon fill="#ffffff" stroke="transparent" points="-4,4 -4,-866 991.0898,-866 991.0898,4 -4,4"/>
<!-- Node0 -->
<g id="node1" class="node">
<title>Node0</title>
<polygon fill="none" stroke="#000000" points="552.6073,-811.9 552.6073,-861.5 635.4825,-861.5 635.4825,-811.9 552.6073,-811.9"/>
<text text-anchor="middle" x="594.0449" y="-844.9" font-family="Times,serif" font-size="14.00" fill="#000000">0x45fe9990</text>
<polyline fill="none" stroke="#000000" points="552.6073,-836.7 635.4825,-836.7 "/>
<text text-anchor="middle" x="593.6585" y="-820.1" font-family="Times,serif" font-size="14.00" fill="#000000">ROOT</text>
</g>
<!-- Node1 -->
<g id="node2" class="node">
<title>Node1</title>
<polygon fill="none" stroke="#000000" points="500,-725.3 500,-774.9 582.0898,-774.9 582.0898,-725.3 500,-725.3"/>
<text text-anchor="middle" x="541.0449" y="-758.3" font-family="Times,serif" font-size="14.00" fill="#000000">0x45fe99e0</text>
<polyline fill="none" stroke="#000000" points="500,-750.1 582.0898,-750.1 "/>
<text text-anchor="middle" x="540.7756" y="-733.5" font-family="Times,serif" font-size="14.00" fill="#000000">fib</text>
</g>
<!-- Node0&#45;&gt;Node1 -->
<g id="edge1" class="edge">
<title>Node0&#45;&gt;Node1:f0</title>
<path fill="none" stroke="#000000" d="M599.2891,-811.8593C601.8626,-794.3966 602.4641,-772.8177 591.8698,-765.0546"/>
<polygon fill="#000000" stroke="#000000" points="592.6292,-761.6282 582.0449,-762.1 590.6133,-768.3316 592.6292,-761.6282"/>
</g>
<!-- Node32 -->
<g id="node3" class="node">
<title>Node32</title>
<polygon fill="none" stroke="#000000" points="651,-725.3 651,-774.9 733.0898,-774.9 733.0898,-725.3 651,-725.3"/>
<text text-anchor="middle" x="692.0449" y="-758.3" font-family="Times,serif" font-size="14.00" fill="#000000">0x45fea620</text>
<polyline fill="none" stroke="#000000" points="651,-750.1 733.0898,-750.1 "/>
<text text-anchor="middle" x="691.9979" y="-733.5" font-family="Times,serif" font-size="14.00" fill="#000000">main</text>
</g>
<!-- Node0&#45;&gt;Node32 -->
<g id="edge2" class="edge">
<title>Node0&#45;&gt;Node32:f0</title>
<path fill="none" stroke="#000000" d="M601.5441,-811.8593C608.6836,-793.1251 621.316,-769.6533 641.1004,-763.5854"/>
<polygon fill="#000000" stroke="#000000" points="641.6717,-767.039 651.0449,-762.1 640.6375,-760.1158 641.6717,-767.039"/>
</g>
<!-- Node2 -->
<g id="node4" class="node">
<title>Node2</title>
<polygon fill="none" stroke="#000000" points="397,-638.7 397,-688.3 479.0898,-688.3 479.0898,-638.7 397,-638.7"/>
<text text-anchor="middle" x="438.0449" y="-671.7" font-family="Times,serif" font-size="14.00" fill="#000000">0x45fe9a30</text>
<polyline fill="none" stroke="#000000" points="397,-663.5 479.0898,-663.5 "/>
<text text-anchor="middle" x="437.7749" y="-646.9" font-family="Times,serif" font-size="14.00" fill="#000000">ARG</text>
</g>
<!-- Node1&#45;&gt;Node2 -->
<g id="edge3" class="edge">
<title>Node1&#45;&gt;Node2:f0</title>
<path fill="none" stroke="#000000" d="M521.1412,-725.2593C509.1105,-710.3397 494.506,-692.4155 486.0161,-682.6699"/>
<polygon fill="#000000" stroke="#000000" points="488.5254,-680.2299 479.0449,-675.5 483.5065,-685.1096 488.5254,-680.2299"/>
</g>
<!-- Node4 -->
<g id="node5" class="node">
<title>Node4</title>
<polygon fill="none" stroke="#000000" points="501.1697,-638.7 501.1697,-688.3 580.9201,-688.3 580.9201,-638.7 501.1697,-638.7"/>
<text text-anchor="middle" x="541.0449" y="-671.7" font-family="Times,serif" font-size="14.00" fill="#000000">0x45fe9af0</text>
<polyline fill="none" stroke="#000000" points="501.1697,-663.5 580.9201,-663.5 "/>
<text text-anchor="middle" x="540.6669" y="-646.9" font-family="Times,serif" font-size="14.00" fill="#000000">STAT</text>
</g>
<!-- Node1&#45;&gt;Node4 -->
<g id="edge4" class="edge">
<title>Node1&#45;&gt;Node4:f0</title>
<path fill="none" stroke="#000000" d="M541.0449,-725.223C541.0449,-717.071 541.0449,-707.7585 541.0449,-698.6402"/>
<polygon fill="#000000" stroke="#000000" points="544.545,-698.5 541.0449,-688.5 537.545,-698.5 544.545,-698.5"/>
</g>
<!-- Node33 -->
<g id="node34" class="node">
<title>Node33</title>
<polygon fill="none" stroke="#000000" points="651,-638.7 651,-688.3 733.0898,-688.3 733.0898,-638.7 651,-638.7"/>
<text text-anchor="middle" x="692.0449" y="-671.7" font-family="Times,serif" font-size="14.00" fill="#000000">0x45fea670</text>
<polyline fill="none" stroke="#000000" points="651,-663.5 733.0898,-663.5 "/>
<text text-anchor="middle" x="691.7749" y="-646.9" font-family="Times,serif" font-size="14.00" fill="#000000">ARG</text>
</g>
<!-- Node32&#45;&gt;Node33 -->
<g id="edge33" class="edge">
<title>Node32&#45;&gt;Node33:f0</title>
<path fill="none" stroke="#000000" d="M692.0449,-725.223C692.0449,-717.071 692.0449,-707.7585 692.0449,-698.6402"/>
<polygon fill="#000000" stroke="#000000" points="695.545,-698.5 692.0449,-688.5 688.545,-698.5 695.545,-698.5"/>
</g>
<!-- Node34 -->
<g id="node35" class="node">
<title>Node34</title>
<polygon fill="none" stroke="#000000" points="754.3927,-638.7 754.3927,-688.3 835.6971,-688.3 835.6971,-638.7 754.3927,-638.7"/>
<text text-anchor="middle" x="795.0449" y="-671.7" font-family="Times,serif" font-size="14.00" fill="#000000">0x45fea6e0</text>
<polyline fill="none" stroke="#000000" points="754.3927,-663.5 835.6971,-663.5 "/>
<text text-anchor="middle" x="794.8899" y="-646.9" font-family="Times,serif" font-size="14.00" fill="#000000">STAT</text>
</g>
<!-- Node32&#45;&gt;Node34 -->
<g id="edge34" class="edge">
<title>Node32&#45;&gt;Node34:f0</title>
<path fill="none" stroke="#000000" d="M712.3193,-725.2593C724.3956,-710.5093 738.9502,-692.8225 747.2946,-683.0053"/>
<polygon fill="#000000" stroke="#000000" points="749.96,-685.2757 754.0449,-675.5 744.7554,-680.5946 749.96,-685.2757"/>
</g>
<!-- Node3 -->
<g id="node6" class="node">
<title>Node3</title>
<polygon fill="none" stroke="#000000" points="393,-552.5 393,-601.3 475.0898,-601.3 475.0898,-552.5 393,-552.5"/>
<text text-anchor="middle" x="434.0449" y="-584.7" font-family="Times,serif" font-size="14.00" fill="#000000">0x45fe9a80</text>
<polyline fill="none" stroke="#000000" points="393,-576.5 475.0898,-576.5 "/>
</g>
<!-- Node2&#45;&gt;Node3 -->
<g id="edge5" class="edge">
<title>Node2&#45;&gt;Node3:f0</title>
<path fill="none" stroke="#000000" d="M435.7181,-638.5447C435.0719,-630.1301 434.4724,-620.4678 434.1996,-611.0115"/>
<polygon fill="#000000" stroke="#000000" points="437.6975,-610.8453 434.0449,-600.9 430.6983,-610.9524 437.6975,-610.8453"/>
</g>
<!-- Node5 -->
<g id="node7" class="node">
<title>Node5</title>
<polygon fill="none" stroke="#000000" points="492.9965,-552.1 492.9965,-601.7 589.0933,-601.7 589.0933,-552.1 492.9965,-552.1"/>
<text text-anchor="middle" x="541.0449" y="-585.1" font-family="Times,serif" font-size="14.00" fill="#000000">0x45fe9b60</text>
<polyline fill="none" stroke="#000000" points="492.9965,-576.9 589.0933,-576.9 "/>
<text text-anchor="middle" x="541.0449" y="-560.3" font-family="Times,serif" font-size="14.00" fill="#000000">COMPOUND</text>
</g>
<!-- Node4&#45;&gt;Node5 -->
<g id="edge6" class="edge">
<title>Node4&#45;&gt;Node5:f0</title>
<path fill="none" stroke="#000000" d="M541.0449,-638.623C541.0449,-630.471 541.0449,-621.1585 541.0449,-612.0402"/>
<polygon fill="#000000" stroke="#000000" points="544.545,-611.9 541.0449,-601.9 537.545,-611.9 544.545,-611.9"/>
</g>
<!-- Node6 -->
<g id="node8" class="node">
<title>Node6</title>
<polygon fill="none" stroke="#000000" points="204.6073,-457.5 204.6073,-507.1 287.4825,-507.1 287.4825,-457.5 204.6073,-457.5"/>
<text text-anchor="middle" x="246.0449" y="-490.5" font-family="Times,serif" font-size="14.00" fill="#000000">0x45fe9bb0</text>
<polyline fill="none" stroke="#000000" points="204.6073,-482.3 287.4825,-482.3 "/>
<text text-anchor="middle" x="245.8829" y="-465.7" font-family="Times,serif" font-size="14.00" fill="#000000">if</text>
</g>
<!-- Node5&#45;&gt;Node6 -->
<g id="edge7" class="edge">
<title>Node5&#45;&gt;Node6:f0</title>
<path fill="none" stroke="#000000" d="M494.3022,-551.8931C446.6709,-528.6739 369.702,-497.2721 297.2367,-494.4977"/>
<polygon fill="#000000" stroke="#000000" points="297.1109,-490.9947 287.0449,-494.3 296.9751,-497.9933 297.1109,-490.9947"/>
</g>
<!-- Node13 -->
<g id="node9" class="node">
<title>Node13</title>
<polygon fill="none" stroke="#000000" points="499,-457.5 499,-507.1 581.0898,-507.1 581.0898,-457.5 499,-457.5"/>
<text text-anchor="middle" x="540.0449" y="-490.5" font-family="Times,serif" font-size="14.00" fill="#000000">0x45fe9e60</text>
<polyline fill="none" stroke="#000000" points="499,-482.3 581.0898,-482.3 "/>
<text text-anchor="middle" x="539.7756" y="-465.7" font-family="Times,serif" font-size="14.00" fill="#000000">if</text>
</g>
<!-- Node5&#45;&gt;Node13 -->
<g id="edge8" class="edge">
<title>Node5&#45;&gt;Node13:f0</title>
<path fill="none" stroke="#000000" d="M540.5156,-552.098C540.3301,-541.822 540.15,-529.535 540.0779,-517.6177"/>
<polygon fill="#000000" stroke="#000000" points="543.5769,-517.2887 540.0449,-507.3 536.577,-517.3112 543.5769,-517.2887"/>
</g>
<!-- Node20 -->
<g id="node10" class="node">
<title>Node20</title>
<polygon fill="none" stroke="#000000" points="602,-449.5 602,-515.1 684.0898,-515.1 684.0898,-449.5 602,-449.5"/>
<text text-anchor="middle" x="643.0449" y="-498.5" font-family="Times,serif" font-size="14.00" fill="#000000">0x45fea130</text>
<polyline fill="none" stroke="#000000" points="602,-490.3 684.0898,-490.3 "/>
<text text-anchor="middle" x="642.8829" y="-457.7" font-family="Times,serif" font-size="14.00" fill="#000000">eturn</text>
</g>
<!-- Node5&#45;&gt;Node20 -->
<g id="edge9" class="edge">
<title>Node5&#45;&gt;Node20:f0</title>
<path fill="none" stroke="#000000" d="M560.9888,-552.0593C572.8686,-537.3093 587.187,-519.6225 595.3986,-509.8053"/>
<polygon fill="#000000" stroke="#000000" points="598.0355,-512.1069 602.0449,-502.3 592.7949,-507.4661 598.0355,-512.1069"/>
</g>
<!-- Node7 -->
<g id="node11" class="node">
<title>Node7</title>
<polygon fill="none" stroke="#000000" points="98,-362.9 98,-412.5 180.0898,-412.5 180.0898,-362.9 98,-362.9"/>
<text text-anchor="middle" x="139.0449" y="-395.9" font-family="Times,serif" font-size="14.00" fill="#000000">0x45fe9c50</text>
<polyline fill="none" stroke="#000000" points="98,-387.7 180.0898,-387.7 "/>
<text text-anchor="middle" x="138.8946" y="-371.1" font-family="Times,serif" font-size="14.00" fill="#000000">==</text>
</g>
<!-- Node6&#45;&gt;Node7 -->
<g id="edge10" class="edge">
<title>Node6&#45;&gt;Node7:f0</title>
<path fill="none" stroke="#000000" d="M224.621,-457.4088C213.6771,-444.4087 200.3262,-428.101 189.0449,-413 187.71,-411.2131 187.0275,-409.2443 186.5023,-407.3816"/>
<polygon fill="#000000" stroke="#000000" points="189.1588,-405.1025 180.0449,-399.7 183.8005,-409.6069 189.1588,-405.1025"/>
</g>
<!-- Node10 -->
<g id="node12" class="node">
<title>Node10</title>
<polygon fill="none" stroke="#000000" points="197.9965,-362.9 197.9965,-412.5 294.0933,-412.5 294.0933,-362.9 197.9965,-362.9"/>
<text text-anchor="middle" x="246.0449" y="-395.9" font-family="Times,serif" font-size="14.00" fill="#000000">0x45fe9d10</text>
<polyline fill="none" stroke="#000000" points="197.9965,-387.7 294.0933,-387.7 "/>
<text text-anchor="middle" x="246.0449" y="-371.1" font-family="Times,serif" font-size="14.00" fill="#000000">COMPOUND</text>
</g>
<!-- Node6&#45;&gt;Node10 -->
<g id="edge11" class="edge">
<title>Node6&#45;&gt;Node10:f0</title>
<path fill="none" stroke="#000000" d="M246.0449,-457.4967C246.0449,-447.2205 246.0449,-434.9335 246.0449,-423.0169"/>
<polygon fill="#000000" stroke="#000000" points="249.545,-422.7 246.0449,-412.7 242.545,-422.7 249.545,-422.7"/>
</g>
<!-- Node14 -->
<g id="node17" class="node">
<title>Node14</title>
<polygon fill="none" stroke="#000000" points="393.777,-362.9 393.777,-412.5 474.3128,-412.5 474.3128,-362.9 393.777,-362.9"/>
<text text-anchor="middle" x="434.0449" y="-395.9" font-family="Times,serif" font-size="14.00" fill="#000000">0x45fe9f00</text>
<polyline fill="none" stroke="#000000" points="393.777,-387.7 474.3128,-387.7 "/>
<text text-anchor="middle" x="433.6716" y="-371.1" font-family="Times,serif" font-size="14.00" fill="#000000">==</text>
</g>
<!-- Node13&#45;&gt;Node14 -->
<g id="edge16" class="edge">
<title>Node13&#45;&gt;Node14:f0</title>
<path fill="none" stroke="#000000" d="M518.621,-457.4088C507.6771,-444.4087 494.3262,-428.101 483.0449,-413 481.71,-411.2131 481.0275,-409.2443 480.5023,-407.3816"/>
<polygon fill="#000000" stroke="#000000" points="483.1588,-405.1025 474.0449,-399.7 477.8005,-409.6069 483.1588,-405.1025"/>
</g>
<!-- Node17 -->
<g id="node18" class="node">
<title>Node17</title>
<polygon fill="none" stroke="#000000" points="491.9965,-362.9 491.9965,-412.5 588.0933,-412.5 588.0933,-362.9 491.9965,-362.9"/>
<text text-anchor="middle" x="540.0449" y="-395.9" font-family="Times,serif" font-size="14.00" fill="#000000">0x45fe9fe0</text>
<polyline fill="none" stroke="#000000" points="491.9965,-387.7 588.0933,-387.7 "/>
<text text-anchor="middle" x="540.0449" y="-371.1" font-family="Times,serif" font-size="14.00" fill="#000000">COMPOUND</text>
</g>
<!-- Node13&#45;&gt;Node17 -->
<g id="edge17" class="edge">
<title>Node13&#45;&gt;Node17:f0</title>
<path fill="none" stroke="#000000" d="M540.0449,-457.4967C540.0449,-447.2205 540.0449,-434.9335 540.0449,-423.0169"/>
<polygon fill="#000000" stroke="#000000" points="543.545,-422.7 540.0449,-412.7 536.545,-422.7 543.545,-422.7"/>
</g>
<!-- Node21 -->
<g id="node23" class="node">
<title>Node21</title>
<polygon fill="none" stroke="#000000" points="606,-362.9 606,-412.5 688.0898,-412.5 688.0898,-362.9 606,-362.9"/>
<text text-anchor="middle" x="647.0449" y="-395.9" font-family="Times,serif" font-size="14.00" fill="#000000">0x45fea350</text>
<polyline fill="none" stroke="#000000" points="606,-387.7 688.0898,-387.7 "/>
<text text-anchor="middle" x="646.9473" y="-371.1" font-family="Times,serif" font-size="14.00" fill="#000000">+</text>
</g>
<!-- Node20&#45;&gt;Node21 -->
<g id="edge22" class="edge">
<title>Node20&#45;&gt;Node21:f0</title>
<path fill="none" stroke="#000000" d="M645.713,-449.3959C646.2461,-440.9749 646.7076,-431.7445 646.9202,-422.7305"/>
<polygon fill="#000000" stroke="#000000" points="650.4202,-422.7428 647.0449,-412.7 643.4207,-422.6557 650.4202,-422.7428"/>
</g>
<!-- Node8 -->
<g id="node13" class="node">
<title>Node8</title>
<polygon fill="none" stroke="#000000" points="0,-268.7 0,-317.5 82.0898,-317.5 82.0898,-268.7 0,-268.7"/>
<text text-anchor="middle" x="41.0449" y="-300.9" font-family="Times,serif" font-size="14.00" fill="#000000">0x45fe9c00</text>
<polyline fill="none" stroke="#000000" points="0,-292.7 82.0898,-292.7 "/>
</g>
<!-- Node7&#45;&gt;Node8 -->
<g id="edge12" class="edge">
<title>Node7&#45;&gt;Node8:f0</title>
<path fill="none" stroke="#000000" d="M117.1337,-362.8351C108.3304,-352.0945 98.5191,-339.0968 91.0449,-326.4 88.5196,-322.1101 88.7403,-316.9787 88.4714,-312.8274"/>
<polygon fill="#000000" stroke="#000000" points="91.1301,-310.5506 82.0449,-305.1 85.7481,-315.0266 91.1301,-310.5506"/>
</g>
<!-- Node9 -->
<g id="node14" class="node">
<title>Node9</title>
<polygon fill="none" stroke="#000000" points="100.3927,-268.3 100.3927,-317.9 181.6971,-317.9 181.6971,-268.3 100.3927,-268.3"/>
<text text-anchor="middle" x="141.0449" y="-301.3" font-family="Times,serif" font-size="14.00" fill="#000000">0x45fe9ca0</text>
<polyline fill="none" stroke="#000000" points="100.3927,-293.1 181.6971,-293.1 "/>
<text text-anchor="middle" x="140.8927" y="-276.5" font-family="Times,serif" font-size="14.00" fill="#000000">0</text>
</g>
<!-- Node7&#45;&gt;Node9 -->
<g id="edge13" class="edge">
<title>Node7&#45;&gt;Node9:f0</title>
<path fill="none" stroke="#000000" d="M140.1152,-362.577C140.4829,-352.3437 140.838,-340.1558 140.98,-328.3351"/>
<polygon fill="#000000" stroke="#000000" points="144.4813,-328.122 141.0449,-318.1 137.4815,-328.0776 144.4813,-328.122"/>
</g>
<!-- Node11 -->
<g id="node15" class="node">
<title>Node11</title>
<polygon fill="none" stroke="#000000" points="202.6073,-260.3 202.6073,-325.9 285.4825,-325.9 285.4825,-260.3 202.6073,-260.3"/>
<text text-anchor="middle" x="244.0449" y="-309.3" font-family="Times,serif" font-size="14.00" fill="#000000">0x45fe9d60</text>
<polyline fill="none" stroke="#000000" points="202.6073,-301.1 285.4825,-301.1 "/>
<text text-anchor="middle" x="243.9902" y="-268.5" font-family="Times,serif" font-size="14.00" fill="#000000">eturn</text>
</g>
<!-- Node10&#45;&gt;Node11 -->
<g id="edge14" class="edge">
<title>Node10&#45;&gt;Node11:f0</title>
<path fill="none" stroke="#000000" d="M244.8699,-362.829C244.5536,-354.6778 244.2614,-345.3651 244.1253,-336.2442"/>
<polygon fill="#000000" stroke="#000000" points="247.6241,-336.0719 244.0449,-326.1 240.6243,-336.1275 247.6241,-336.0719"/>
</g>
<!-- Node12 -->
<g id="node16" class="node">
<title>Node12</title>
<polygon fill="none" stroke="#000000" points="202.6073,-173.7 202.6073,-223.3 285.4825,-223.3 285.4825,-173.7 202.6073,-173.7"/>
<text text-anchor="middle" x="244.0449" y="-206.7" font-family="Times,serif" font-size="14.00" fill="#000000">0x45fe9db0</text>
<polyline fill="none" stroke="#000000" points="202.6073,-198.5 285.4825,-198.5 "/>
<text text-anchor="middle" x="243.6073" y="-181.9" font-family="Times,serif" font-size="14.00" fill="#000000">0</text>
</g>
<!-- Node11&#45;&gt;Node12 -->
<g id="edge15" class="edge">
<title>Node11&#45;&gt;Node12:f0</title>
<path fill="none" stroke="#000000" d="M244.0449,-260.1736C244.0449,-251.7512 244.0449,-242.5228 244.0449,-233.5175"/>
<polygon fill="#000000" stroke="#000000" points="247.545,-233.5 244.0449,-223.5 240.545,-233.5 247.545,-233.5"/>
</g>
<!-- Node15 -->
<g id="node19" class="node">
<title>Node15</title>
<polygon fill="none" stroke="#000000" points="303,-268.7 303,-317.5 385.0898,-317.5 385.0898,-268.7 303,-268.7"/>
<text text-anchor="middle" x="344.0449" y="-300.9" font-family="Times,serif" font-size="14.00" fill="#000000">0x45fe9eb0</text>
<polyline fill="none" stroke="#000000" points="303,-292.7 385.0898,-292.7 "/>
</g>
<!-- Node14&#45;&gt;Node15 -->
<g id="edge18" class="edge">
<title>Node14&#45;&gt;Node15:f0</title>
<path fill="none" stroke="#000000" d="M416.2607,-362.6688C408.9193,-351.7937 400.6108,-338.7404 394.0449,-326.4 391.7067,-322.0054 391.9332,-316.8707 391.6206,-312.7439"/>
<polygon fill="#000000" stroke="#000000" points="394.2198,-310.3984 385.0449,-305.1 388.9131,-314.9634 394.2198,-310.3984"/>
</g>
<!-- Node16 -->
<g id="node20" class="node">
<title>Node16</title>
<polygon fill="none" stroke="#000000" points="402.777,-268.3 402.777,-317.9 483.3128,-317.9 483.3128,-268.3 402.777,-268.3"/>
<text text-anchor="middle" x="443.0449" y="-301.3" font-family="Times,serif" font-size="14.00" fill="#000000">0x45fe9f70</text>
<polyline fill="none" stroke="#000000" points="402.777,-293.1 483.3128,-293.1 "/>
<text text-anchor="middle" x="442.777" y="-276.5" font-family="Times,serif" font-size="14.00" fill="#000000">1</text>
</g>
<!-- Node14&#45;&gt;Node16 -->
<g id="edge19" class="edge">
<title>Node14&#45;&gt;Node16:f0</title>
<path fill="none" stroke="#000000" d="M438.8611,-362.6729C440.5161,-352.4598 442.1138,-340.2733 442.7528,-328.3982"/>
<polygon fill="#000000" stroke="#000000" points="446.2599,-328.1952 443.0449,-318.1 439.2627,-327.9967 446.2599,-328.1952"/>
</g>
<!-- Node18 -->
<g id="node21" class="node">
<title>Node18</title>
<polygon fill="none" stroke="#000000" points="501,-260.3 501,-325.9 583.0898,-325.9 583.0898,-260.3 501,-260.3"/>
<text text-anchor="middle" x="542.0449" y="-309.3" font-family="Times,serif" font-size="14.00" fill="#000000">0x45fea030</text>
<polyline fill="none" stroke="#000000" points="501,-301.1 583.0898,-301.1 "/>
<text text-anchor="middle" x="541.8829" y="-268.5" font-family="Times,serif" font-size="14.00" fill="#000000">eturn</text>
</g>
<!-- Node17&#45;&gt;Node18 -->
<g id="edge20" class="edge">
<title>Node17&#45;&gt;Node18:f0</title>
<path fill="none" stroke="#000000" d="M541.2199,-362.829C541.5362,-354.6778 541.8284,-345.3651 541.9645,-336.2442"/>
<polygon fill="#000000" stroke="#000000" points="545.4655,-336.1275 542.0449,-326.1 538.4657,-336.0719 545.4655,-336.1275"/>
</g>
<!-- Node19 -->
<g id="node22" class="node">
<title>Node19</title>
<polygon fill="none" stroke="#000000" points="501,-173.7 501,-223.3 583.0898,-223.3 583.0898,-173.7 501,-173.7"/>
<text text-anchor="middle" x="542.0449" y="-206.7" font-family="Times,serif" font-size="14.00" fill="#000000">0x45fea080</text>
<polyline fill="none" stroke="#000000" points="501,-198.5 583.0898,-198.5 "/>
<text text-anchor="middle" x="542" y="-181.9" font-family="Times,serif" font-size="14.00" fill="#000000">1</text>
</g>
<!-- Node18&#45;&gt;Node19 -->
<g id="edge21" class="edge">
<title>Node18&#45;&gt;Node19:f0</title>
<path fill="none" stroke="#000000" d="M542.0449,-260.1736C542.0449,-251.7512 542.0449,-242.5228 542.0449,-233.5175"/>
<polygon fill="#000000" stroke="#000000" points="545.545,-233.5 542.0449,-223.5 538.545,-233.5 545.545,-233.5"/>
</g>
<!-- Node22 -->
<g id="node24" class="node">
<title>Node22</title>
<polygon fill="none" stroke="#000000" points="604,-268.3 604,-317.9 686.0898,-317.9 686.0898,-268.3 604,-268.3"/>
<text text-anchor="middle" x="645.0449" y="-301.3" font-family="Times,serif" font-size="14.00" fill="#000000">0x45fea180</text>
<polyline fill="none" stroke="#000000" points="604,-293.1 686.0898,-293.1 "/>
<text text-anchor="middle" x="644.7756" y="-276.5" font-family="Times,serif" font-size="14.00" fill="#000000">fib</text>
</g>
<!-- Node21&#45;&gt;Node22 -->
<g id="edge23" class="edge">
<title>Node21&#45;&gt;Node22:f0</title>
<path fill="none" stroke="#000000" d="M645.9746,-362.577C645.6069,-352.3437 645.2518,-340.1558 645.1098,-328.3351"/>
<polygon fill="#000000" stroke="#000000" points="648.6083,-328.0776 645.0449,-318.1 641.6085,-328.122 648.6083,-328.0776"/>
</g>
<!-- Node27 -->
<g id="node25" class="node">
<title>Node27</title>
<polygon fill="none" stroke="#000000" points="704.3927,-268.3 704.3927,-317.9 785.6971,-317.9 785.6971,-268.3 704.3927,-268.3"/>
<text text-anchor="middle" x="745.0449" y="-301.3" font-family="Times,serif" font-size="14.00" fill="#000000">0x45fea3c0</text>
<polyline fill="none" stroke="#000000" points="704.3927,-293.1 785.6971,-293.1 "/>
<text text-anchor="middle" x="744.6683" y="-276.5" font-family="Times,serif" font-size="14.00" fill="#000000">fib</text>
</g>
<!-- Node21&#45;&gt;Node27 -->
<g id="edge24" class="edge">
<title>Node21&#45;&gt;Node27:f0</title>
<path fill="none" stroke="#000000" d="M668.9561,-362.8351C677.7594,-352.0945 687.5707,-339.0968 695.0449,-326.4 697.5702,-322.1101 697.3495,-316.9787 697.6184,-312.8274"/>
<polygon fill="#000000" stroke="#000000" points="700.3417,-315.0266 704.0449,-305.1 694.9597,-310.5506 700.3417,-315.0266"/>
</g>
<!-- Node23 -->
<g id="node26" class="node">
<title>Node23</title>
<polygon fill="none" stroke="#000000" points="604,-173.7 604,-223.3 686.0898,-223.3 686.0898,-173.7 604,-173.7"/>
<text text-anchor="middle" x="645.0449" y="-206.7" font-family="Times,serif" font-size="14.00" fill="#000000">0x45fea1d0</text>
<polyline fill="none" stroke="#000000" points="604,-198.5 686.0898,-198.5 "/>
<text text-anchor="middle" x="644.7749" y="-181.9" font-family="Times,serif" font-size="14.00" fill="#000000">ARG</text>
</g>
<!-- Node22&#45;&gt;Node23 -->
<g id="edge25" class="edge">
<title>Node22&#45;&gt;Node23:f0</title>
<path fill="none" stroke="#000000" d="M645.0449,-268.2967C645.0449,-258.0205 645.0449,-245.7335 645.0449,-233.8169"/>
<polygon fill="#000000" stroke="#000000" points="648.545,-233.5 645.0449,-223.5 641.545,-233.5 648.545,-233.5"/>
</g>
<!-- Node28 -->
<g id="node30" class="node">
<title>Node28</title>
<polygon fill="none" stroke="#000000" points="704,-173.7 704,-223.3 786.0898,-223.3 786.0898,-173.7 704,-173.7"/>
<text text-anchor="middle" x="745.0449" y="-206.7" font-family="Times,serif" font-size="14.00" fill="#000000">0x45fea410</text>
<polyline fill="none" stroke="#000000" points="704,-198.5 786.0898,-198.5 "/>
<text text-anchor="middle" x="744.7749" y="-181.9" font-family="Times,serif" font-size="14.00" fill="#000000">ARG</text>
</g>
<!-- Node27&#45;&gt;Node28 -->
<g id="edge29" class="edge">
<title>Node27&#45;&gt;Node28:f0</title>
<path fill="none" stroke="#000000" d="M745.0449,-268.2967C745.0449,-258.0205 745.0449,-245.7335 745.0449,-233.8169"/>
<polygon fill="#000000" stroke="#000000" points="748.545,-233.5 745.0449,-223.5 741.545,-233.5 748.545,-233.5"/>
</g>
<!-- Node24 -->
<g id="node27" class="node">
<title>Node24</title>
<polygon fill="none" stroke="#000000" points="604,-87.1 604,-136.7 686.0898,-136.7 686.0898,-87.1 604,-87.1"/>
<text text-anchor="middle" x="645.0449" y="-120.1" font-family="Times,serif" font-size="14.00" fill="#000000">0x45fea270</text>
<polyline fill="none" stroke="#000000" points="604,-111.9 686.0898,-111.9 "/>
<text text-anchor="middle" x="644.8303" y="-95.3" font-family="Times,serif" font-size="14.00" fill="#000000">&#45;</text>
</g>
<!-- Node23&#45;&gt;Node24 -->
<g id="edge26" class="edge">
<title>Node23&#45;&gt;Node24:f0</title>
<path fill="none" stroke="#000000" d="M645.0449,-173.623C645.0449,-165.471 645.0449,-156.1585 645.0449,-147.0402"/>
<polygon fill="#000000" stroke="#000000" points="648.545,-146.9 645.0449,-136.9 641.545,-146.9 648.545,-146.9"/>
</g>
<!-- Node25 -->
<g id="node28" class="node">
<title>Node25</title>
<polygon fill="none" stroke="#000000" points="504,-.9 504,-49.7 586.0898,-49.7 586.0898,-.9 504,-.9"/>
<text text-anchor="middle" x="545.0449" y="-33.1" font-family="Times,serif" font-size="14.00" fill="#000000">0x45fea220</text>
<polyline fill="none" stroke="#000000" points="504,-24.9 586.0898,-24.9 "/>
</g>
<!-- Node24&#45;&gt;Node25 -->
<g id="edge27" class="edge">
<title>Node24&#45;&gt;Node25:f0</title>
<path fill="none" stroke="#000000" d="M623.8505,-86.9519C614.752,-75.9804 604.1434,-62.8314 595.0449,-50.6 593.7137,-48.8104 593.0326,-46.8405 592.5075,-44.9777"/>
<polygon fill="#000000" stroke="#000000" points="595.1623,-42.6967 586.0449,-37.3 589.8069,-47.2045 595.1623,-42.6967"/>
</g>
<!-- Node26 -->
<g id="node29" class="node">
<title>Node26</title>
<polygon fill="none" stroke="#000000" points="604.3927,-.5 604.3927,-50.1 685.6971,-50.1 685.6971,-.5 604.3927,-.5"/>
<text text-anchor="middle" x="645.0449" y="-33.5" font-family="Times,serif" font-size="14.00" fill="#000000">0x45fea2c0</text>
<polyline fill="none" stroke="#000000" points="604.3927,-25.3 685.6971,-25.3 "/>
<text text-anchor="middle" x="644.8927" y="-8.7" font-family="Times,serif" font-size="14.00" fill="#000000">1</text>
</g>
<!-- Node24&#45;&gt;Node26 -->
<g id="edge28" class="edge">
<title>Node24&#45;&gt;Node26:f0</title>
<path fill="none" stroke="#000000" d="M645.0449,-87.023C645.0449,-78.871 645.0449,-69.5585 645.0449,-60.4402"/>
<polygon fill="#000000" stroke="#000000" points="648.545,-60.3 645.0449,-50.3 641.545,-60.3 648.545,-60.3"/>
</g>
<!-- Node29 -->
<g id="node31" class="node">
<title>Node29</title>
<polygon fill="none" stroke="#000000" points="704,-87.1 704,-136.7 786.0898,-136.7 786.0898,-87.1 704,-87.1"/>
<text text-anchor="middle" x="745.0449" y="-120.1" font-family="Times,serif" font-size="14.00" fill="#000000">0x45fea4b0</text>
<polyline fill="none" stroke="#000000" points="704,-111.9 786.0898,-111.9 "/>
<text text-anchor="middle" x="744.8303" y="-95.3" font-family="Times,serif" font-size="14.00" fill="#000000">&#45;</text>
</g>
<!-- Node28&#45;&gt;Node29 -->
<g id="edge30" class="edge">
<title>Node28&#45;&gt;Node29:f0</title>
<path fill="none" stroke="#000000" d="M745.0449,-173.623C745.0449,-165.471 745.0449,-156.1585 745.0449,-147.0402"/>
<polygon fill="#000000" stroke="#000000" points="748.545,-146.9 745.0449,-136.9 741.545,-146.9 748.545,-146.9"/>
</g>
<!-- Node30 -->
<g id="node32" class="node">
<title>Node30</title>
<polygon fill="none" stroke="#000000" points="704,-.9 704,-49.7 786.0898,-49.7 786.0898,-.9 704,-.9"/>
<text text-anchor="middle" x="745.0449" y="-33.1" font-family="Times,serif" font-size="14.00" fill="#000000">0x45fea460</text>
<polyline fill="none" stroke="#000000" points="704,-24.9 786.0898,-24.9 "/>
</g>
<!-- Node29&#45;&gt;Node30 -->
<g id="edge31" class="edge">
<title>Node29&#45;&gt;Node30:f0</title>
<path fill="none" stroke="#000000" d="M745.0449,-86.9213C745.0449,-78.5033 745.0449,-68.8416 745.0449,-59.3958"/>
<polygon fill="#000000" stroke="#000000" points="748.545,-59.3 745.0449,-49.3 741.545,-59.3 748.545,-59.3"/>
</g>
<!-- Node31 -->
<g id="node33" class="node">
<title>Node31</title>
<polygon fill="none" stroke="#000000" points="804,-.5 804,-50.1 886.0898,-50.1 886.0898,-.5 804,-.5"/>
<text text-anchor="middle" x="845.0449" y="-33.5" font-family="Times,serif" font-size="14.00" fill="#000000">0x45fea520</text>
<polyline fill="none" stroke="#000000" points="804,-25.3 886.0898,-25.3 "/>
<text text-anchor="middle" x="845" y="-8.7" font-family="Times,serif" font-size="14.00" fill="#000000">2</text>
</g>
<!-- Node29&#45;&gt;Node31 -->
<g id="edge32" class="edge">
<title>Node29&#45;&gt;Node31:f0</title>
<path fill="none" stroke="#000000" d="M766.2393,-86.9519C775.3378,-75.9804 785.9464,-62.8314 795.0449,-50.6 796.3761,-48.8104 797.0572,-46.8405 797.5823,-44.9777"/>
<polygon fill="#000000" stroke="#000000" points="800.2829,-47.2045 804.0449,-37.3 794.9275,-42.6967 800.2829,-47.2045"/>
</g>
<!-- Node35 -->
<g id="node36" class="node">
<title>Node35</title>
<polygon fill="none" stroke="#000000" points="747.9965,-552.1 747.9965,-601.7 844.0933,-601.7 844.0933,-552.1 747.9965,-552.1"/>
<text text-anchor="middle" x="796.0449" y="-585.1" font-family="Times,serif" font-size="14.00" fill="#000000">0x45fea750</text>
<polyline fill="none" stroke="#000000" points="747.9965,-576.9 844.0933,-576.9 "/>
<text text-anchor="middle" x="796.0449" y="-560.3" font-family="Times,serif" font-size="14.00" fill="#000000">COMPOUND</text>
</g>
<!-- Node34&#45;&gt;Node35 -->
<g id="edge35" class="edge">
<title>Node34&#45;&gt;Node35:f0</title>
<path fill="none" stroke="#000000" d="M795.6324,-638.6245C795.7905,-630.4727 795.9366,-621.1601 796.0047,-612.0412"/>
<polygon fill="#000000" stroke="#000000" points="799.5051,-611.9138 796.0449,-601.9 792.5052,-611.886 799.5051,-611.9138"/>
</g>
<!-- Node36 -->
<g id="node37" class="node">
<title>Node36</title>
<polygon fill="none" stroke="#000000" points="705.3927,-457.5 705.3927,-507.1 786.6971,-507.1 786.6971,-457.5 705.3927,-457.5"/>
<text text-anchor="middle" x="746.0449" y="-490.5" font-family="Times,serif" font-size="14.00" fill="#000000">0x45fea7a0</text>
<polyline fill="none" stroke="#000000" points="705.3927,-482.3 786.6971,-482.3 "/>
<text text-anchor="middle" x="745.5526" y="-465.7" font-family="Times,serif" font-size="14.00" fill="#000000">data</text>
</g>
<!-- Node35&#45;&gt;Node36 -->
<g id="edge36" class="edge">
<title>Node35&#45;&gt;Node36:f0</title>
<path fill="none" stroke="#000000" d="M795.6587,-551.6685C795.1754,-535.3478 794.0904,-515.061 791.6585,-503.505"/>
<polygon fill="#000000" stroke="#000000" points="794.6547,-501.6717 787.0449,-494.3 788.3967,-504.8083 794.6547,-501.6717"/>
</g>
<!-- Node38 -->
<g id="node38" class="node">
<title>Node38</title>
<polygon fill="none" stroke="#000000" points="805,-457.5 805,-507.1 887.0898,-507.1 887.0898,-457.5 805,-457.5"/>
<text text-anchor="middle" x="846.0449" y="-490.5" font-family="Times,serif" font-size="14.00" fill="#000000">0x45fea860</text>
<polyline fill="none" stroke="#000000" points="805,-482.3 887.0898,-482.3 "/>
<text text-anchor="middle" x="845.9453" y="-465.7" font-family="Times,serif" font-size="14.00" fill="#000000">in</text>
</g>
<!-- Node35&#45;&gt;Node38 -->
<g id="edge37" class="edge">
<title>Node35&#45;&gt;Node38:f0</title>
<path fill="none" stroke="#000000" d="M796.4311,-551.6685C796.9144,-535.3478 797.9994,-515.061 800.4313,-503.505"/>
<polygon fill="#000000" stroke="#000000" points="803.6931,-504.8083 805.0449,-494.3 797.4351,-501.6717 803.6931,-504.8083"/>
</g>
<!-- Node41 -->
<g id="node39" class="node">
<title>Node41</title>
<polygon fill="none" stroke="#000000" points="905,-457.5 905,-507.1 987.0898,-507.1 987.0898,-457.5 905,-457.5"/>
<text text-anchor="middle" x="946.0449" y="-490.5" font-family="Times,serif" font-size="14.00" fill="#000000">0x45fea9b0</text>
<polyline fill="none" stroke="#000000" points="905,-482.3 987.0898,-482.3 "/>
<text text-anchor="middle" x="945.9453" y="-465.7" font-family="Times,serif" font-size="14.00" fill="#000000">out</text>
</g>
<!-- Node35&#45;&gt;Node41 -->
<g id="edge38" class="edge">
<title>Node35&#45;&gt;Node41:f0</title>
<path fill="none" stroke="#000000" d="M844.3115,-555.2811C862.4056,-545.2872 881.9696,-531.9648 896.0449,-515.6 899.2909,-511.826 899.0927,-506.7107 899.1933,-502.4389"/>
<polygon fill="#000000" stroke="#000000" points="902.0491,-504.4625 905.0449,-494.3 896.3655,-500.3762 902.0491,-504.4625"/>
</g>
<!-- Node37 -->
<g id="node40" class="node">
<title>Node37</title>
<polygon fill="none" stroke="#000000" points="706.1697,-363.3 706.1697,-412.1 785.9201,-412.1 785.9201,-363.3 706.1697,-363.3"/>
<text text-anchor="middle" x="746.0449" y="-395.5" font-family="Times,serif" font-size="14.00" fill="#000000">0x45fea7f0</text>
<polyline fill="none" stroke="#000000" points="706.1697,-387.3 785.9201,-387.3 "/>
</g>
<!-- Node36&#45;&gt;Node37 -->
<g id="edge39" class="edge">
<title>Node36&#45;&gt;Node37:f0</title>
<path fill="none" stroke="#000000" d="M746.0449,-457.4684C746.0449,-446.8975 746.0449,-434.1853 746.0449,-421.8823"/>
<polygon fill="#000000" stroke="#000000" points="749.545,-421.7 746.0449,-411.7 742.545,-421.7 749.545,-421.7"/>
</g>
<!-- Node39 -->
<g id="node41" class="node">
<title>Node39</title>
<polygon fill="none" stroke="#000000" points="805,-362.9 805,-412.5 887.0898,-412.5 887.0898,-362.9 805,-362.9"/>
<text text-anchor="middle" x="846.0449" y="-395.9" font-family="Times,serif" font-size="14.00" fill="#000000">0x45fea8b0</text>
<polyline fill="none" stroke="#000000" points="805,-387.7 887.0898,-387.7 "/>
<text text-anchor="middle" x="845.7749" y="-371.1" font-family="Times,serif" font-size="14.00" fill="#000000">ARG</text>
</g>
<!-- Node38&#45;&gt;Node39 -->
<g id="edge40" class="edge">
<title>Node38&#45;&gt;Node39:f0</title>
<path fill="none" stroke="#000000" d="M846.0449,-457.4967C846.0449,-447.2205 846.0449,-434.9335 846.0449,-423.0169"/>
<polygon fill="#000000" stroke="#000000" points="849.545,-422.7 846.0449,-412.7 842.545,-422.7 849.545,-422.7"/>
</g>
<!-- Node42 -->
<g id="node43" class="node">
<title>Node42</title>
<polygon fill="none" stroke="#000000" points="905.3927,-362.9 905.3927,-412.5 986.6971,-412.5 986.6971,-362.9 905.3927,-362.9"/>
<text text-anchor="middle" x="946.0449" y="-395.9" font-family="Times,serif" font-size="14.00" fill="#000000">0x45feaa00</text>
<polyline fill="none" stroke="#000000" points="905.3927,-387.7 986.6971,-387.7 "/>
<text text-anchor="middle" x="945.6676" y="-371.1" font-family="Times,serif" font-size="14.00" fill="#000000">ARG</text>
</g>
<!-- Node41&#45;&gt;Node42 -->
<g id="edge42" class="edge">
<title>Node41&#45;&gt;Node42:f0</title>
<path fill="none" stroke="#000000" d="M946.0449,-457.4967C946.0449,-447.2205 946.0449,-434.9335 946.0449,-423.0169"/>
<polygon fill="#000000" stroke="#000000" points="949.545,-422.7 946.0449,-412.7 942.545,-422.7 949.545,-422.7"/>
</g>
<!-- Node40 -->
<g id="node42" class="node">
<title>Node40</title>
<polygon fill="none" stroke="#000000" points="805,-268.7 805,-317.5 887.0898,-317.5 887.0898,-268.7 805,-268.7"/>
<text text-anchor="middle" x="846.0449" y="-300.9" font-family="Times,serif" font-size="14.00" fill="#000000">0x45fea900</text>
<polyline fill="none" stroke="#000000" points="805,-292.7 887.0898,-292.7 "/>
</g>
<!-- Node39&#45;&gt;Node40 -->
<g id="edge41" class="edge">
<title>Node39&#45;&gt;Node40:f0</title>
<path fill="none" stroke="#000000" d="M846.0449,-362.8684C846.0449,-352.2975 846.0449,-339.5853 846.0449,-327.2823"/>
<polygon fill="#000000" stroke="#000000" points="849.545,-327.1 846.0449,-317.1 842.545,-327.1 849.545,-327.1"/>
</g>
<!-- Node43 -->
<g id="node44" class="node">
<title>Node43</title>
<polygon fill="none" stroke="#000000" points="905.3927,-268.3 905.3927,-317.9 986.6971,-317.9 986.6971,-268.3 905.3927,-268.3"/>
<text text-anchor="middle" x="946.0449" y="-301.3" font-family="Times,serif" font-size="14.00" fill="#000000">0x45feaa50</text>
<polyline fill="none" stroke="#000000" points="905.3927,-293.1 986.6971,-293.1 "/>
<text text-anchor="middle" x="945.6683" y="-276.5" font-family="Times,serif" font-size="14.00" fill="#000000">fib</text>
</g>
<!-- Node42&#45;&gt;Node43 -->
<g id="edge43" class="edge">
<title>Node42&#45;&gt;Node43:f0</title>
<path fill="none" stroke="#000000" d="M946.0449,-362.8967C946.0449,-352.6205 946.0449,-340.3335 946.0449,-328.4169"/>
<polygon fill="#000000" stroke="#000000" points="949.545,-328.1 946.0449,-318.1 942.545,-328.1 949.545,-328.1"/>
</g>
<!-- Node44 -->
<g id="node45" class="node">
<title>Node44</title>
<polygon fill="none" stroke="#000000" points="905.7854,-173.7 905.7854,-223.3 986.3044,-223.3 986.3044,-173.7 905.7854,-173.7"/>
<text text-anchor="middle" x="946.0449" y="-206.7" font-family="Times,serif" font-size="14.00" fill="#000000">0x45feaaa0</text>
<polyline fill="none" stroke="#000000" points="905.7854,-198.5 986.3044,-198.5 "/>
<text text-anchor="middle" x="945.5603" y="-181.9" font-family="Times,serif" font-size="14.00" fill="#000000">ARG</text>
</g>
<!-- Node43&#45;&gt;Node44 -->
<g id="edge44" class="edge">
<title>Node43&#45;&gt;Node44:f0</title>
<path fill="none" stroke="#000000" d="M946.0449,-268.2967C946.0449,-258.0205 946.0449,-245.7335 946.0449,-233.8169"/>
<polygon fill="#000000" stroke="#000000" points="949.545,-233.5 946.0449,-223.5 942.545,-233.5 949.545,-233.5"/>
</g>
<!-- Node45 -->
<g id="node46" class="node">
<title>Node45</title>
<polygon fill="none" stroke="#000000" points="906.5624,-87.5 906.5624,-136.3 985.5274,-136.3 985.5274,-87.5 906.5624,-87.5"/>
<text text-anchor="middle" x="946.0449" y="-119.7" font-family="Times,serif" font-size="14.00" fill="#000000">0x45feaaf0</text>
<polyline fill="none" stroke="#000000" points="906.5624,-111.5 985.5274,-111.5 "/>
</g>
<!-- Node44&#45;&gt;Node45 -->
<g id="edge45" class="edge">
<title>Node44&#45;&gt;Node45:f0</title>
<path fill="none" stroke="#000000" d="M946.0449,-173.5213C946.0449,-165.1033 946.0449,-155.4416 946.0449,-145.9958"/>
<polygon fill="#000000" stroke="#000000" points="949.545,-145.9 946.0449,-135.9 942.545,-145.9 949.545,-145.9"/>
</g>
</g>
</svg>
