<?xml version="1.0" encoding="UTF-8" standalone="no"?>
<!DOCTYPE svg PUBLIC "-//W3C//DTD SVG 1.1//EN"
 "http://www.w3.org/Graphics/SVG/1.1/DTD/svg11.dtd">
<!-- Generated by graphviz version 2.40.1 (20161225.0304)
 -->
<!-- Title: G Pages: 1 -->
<svg width="1014pt" height="870pt"
 viewBox="0.00 0.00 1014.43 870.00" xmlns="http://www.w3.org/2000/svg" xmlns:xlink="http://www.w3.org/1999/xlink">
<g id="graph0" class="graph" transform="scale(1 1) rotate(0) translate(4 866)">
<title>G</title>
<polygon fill="#ffffff" stroke="transparent" points="-4,4 -4,-866 1010.4292,-866 1010.4292,4 -4,4"/>
<!-- Node0 -->
<g id="node1" class="node">
<title>Node0</title>
<polygon fill="none" stroke="#000000" points="565.1697,-811.9 565.1697,-861.5 647.2595,-861.5 647.2595,-811.9 565.1697,-811.9"/>
<text text-anchor="middle" x="606.2146" y="-844.9" font-family="Times,serif" font-size="14.00" fill="#000000">0x8ea745f0</text>
<polyline fill="none" stroke="#000000" points="565.1697,-836.7 647.2595,-836.7 "/>
<text text-anchor="middle" x="605.7209" y="-820.1" font-family="Times,serif" font-size="14.00" fill="#000000">ROOT</text>
</g>
<!-- Node1 -->
<g id="node2" class="node">
<title>Node1</title>
<polygon fill="none" stroke="#000000" points="510,-725.3 510,-774.9 594.4292,-774.9 594.4292,-725.3 510,-725.3"/>
<text text-anchor="middle" x="552.2146" y="-758.3" font-family="Times,serif" font-size="14.00" fill="#000000">0x8ea74640</text>
<polyline fill="none" stroke="#000000" points="510,-750.1 594.4292,-750.1 "/>
<text text-anchor="middle" x="551.7756" y="-733.5" font-family="Times,serif" font-size="14.00" fill="#000000">fib</text>
</g>
<!-- Node0&#45;&gt;Node1 -->
<g id="edge1" class="edge">
<title>Node0&#45;&gt;Node1:f0</title>
<path fill="none" stroke="#000000" d="M611.4588,-811.8593C614.0323,-794.3966 614.6338,-772.8177 604.0395,-765.0546"/>
<polygon fill="#000000" stroke="#000000" points="604.7989,-761.6282 594.2146,-762.1 602.783,-768.3316 604.7989,-761.6282"/>
</g>
<!-- Node32 -->
<g id="node3" class="node">
<title>Node32</title>
<polygon fill="none" stroke="#000000" points="664.3927,-725.3 664.3927,-774.9 748.0365,-774.9 748.0365,-725.3 664.3927,-725.3"/>
<text text-anchor="middle" x="706.2146" y="-758.3" font-family="Times,serif" font-size="14.00" fill="#000000">0x8ea752a0</text>
<polyline fill="none" stroke="#000000" points="664.3927,-750.1 748.0365,-750.1 "/>
<text text-anchor="middle" x="705.8906" y="-733.5" font-family="Times,serif" font-size="14.00" fill="#000000">main</text>
</g>
<!-- Node0&#45;&gt;Node32 -->
<g id="edge2" class="edge">
<title>Node0&#45;&gt;Node32:f0</title>
<path fill="none" stroke="#000000" d="M613.9721,-811.8593C621.3161,-793.1251 634.2287,-769.6533 654.1929,-763.5854"/>
<polygon fill="#000000" stroke="#000000" points="654.8359,-767.0285 664.2146,-762.1 653.8095,-760.1041 654.8359,-767.0285"/>
</g>
<!-- Node2 -->
<g id="node4" class="node">
<title>Node2</title>
<polygon fill="none" stroke="#000000" points="405,-638.7 405,-688.3 489.4292,-688.3 489.4292,-638.7 405,-638.7"/>
<text text-anchor="middle" x="447.2146" y="-671.7" font-family="Times,serif" font-size="14.00" fill="#000000">0x8ea74690</text>
<polyline fill="none" stroke="#000000" points="405,-663.5 489.4292,-663.5 "/>
<text text-anchor="middle" x="446.7749" y="-646.9" font-family="Times,serif" font-size="14.00" fill="#000000">ARG</text>
</g>
<!-- Node1&#45;&gt;Node2 -->
<g id="edge3" class="edge">
<title>Node1&#45;&gt;Node2:f0</title>
<path fill="none" stroke="#000000" d="M531.6097,-725.2593C519.3368,-710.5093 504.5461,-692.8225 496.0689,-683.0053"/>
<polygon fill="#000000" stroke="#000000" points="498.5426,-680.5238 489.2146,-675.5 493.3738,-685.2443 498.5426,-680.5238"/>
</g>
<!-- Node4 -->
<g id="node5" class="node">
<title>Node4</title>
<polygon fill="none" stroke="#000000" points="510,-638.7 510,-688.3 594.4292,-688.3 594.4292,-638.7 510,-638.7"/>
<text text-anchor="middle" x="552.2146" y="-671.7" font-family="Times,serif" font-size="14.00" fill="#000000">0x8ea74770</text>
<polyline fill="none" stroke="#000000" points="510,-663.5 594.4292,-663.5 "/>
<text text-anchor="middle" x="551.9972" y="-646.9" font-family="Times,serif" font-size="14.00" fill="#000000">STAT</text>
</g>
<!-- Node1&#45;&gt;Node4 -->
<g id="edge4" class="edge">
<title>Node1&#45;&gt;Node4:f0</title>
<path fill="none" stroke="#000000" d="M552.2146,-725.223C552.2146,-717.071 552.2146,-707.7585 552.2146,-698.6402"/>
<polygon fill="#000000" stroke="#000000" points="555.7147,-698.5 552.2146,-688.5 548.7147,-698.5 555.7147,-698.5"/>
</g>
<!-- Node33 -->
<g id="node34" class="node">
<title>Node33</title>
<polygon fill="none" stroke="#000000" points="665.1697,-638.7 665.1697,-688.3 747.2595,-688.3 747.2595,-638.7 665.1697,-638.7"/>
<text text-anchor="middle" x="706.2146" y="-671.7" font-family="Times,serif" font-size="14.00" fill="#000000">0x8ea752f0</text>
<polyline fill="none" stroke="#000000" points="665.1697,-663.5 747.2595,-663.5 "/>
<text text-anchor="middle" x="705.9446" y="-646.9" font-family="Times,serif" font-size="14.00" fill="#000000">ARG</text>
</g>
<!-- Node32&#45;&gt;Node33 -->
<g id="edge33" class="edge">
<title>Node32&#45;&gt;Node33:f0</title>
<path fill="none" stroke="#000000" d="M706.2146,-725.223C706.2146,-717.071 706.2146,-707.7585 706.2146,-698.6402"/>
<polygon fill="#000000" stroke="#000000" points="709.7147,-698.5 706.2146,-688.5 702.7147,-698.5 709.7147,-698.5"/>
</g>
<!-- Node34 -->
<g id="node35" class="node">
<title>Node34</title>
<polygon fill="none" stroke="#000000" points="768,-638.7 768,-688.3 852.4292,-688.3 852.4292,-638.7 768,-638.7"/>
<text text-anchor="middle" x="810.2146" y="-671.7" font-family="Times,serif" font-size="14.00" fill="#000000">0x8ea75360</text>
<polyline fill="none" stroke="#000000" points="768,-663.5 852.4292,-663.5 "/>
<text text-anchor="middle" x="809.9972" y="-646.9" font-family="Times,serif" font-size="14.00" fill="#000000">STAT</text>
</g>
<!-- Node32&#45;&gt;Node34 -->
<g id="edge34" class="edge">
<title>Node32&#45;&gt;Node34:f0</title>
<path fill="none" stroke="#000000" d="M726.489,-725.2593C738.5653,-710.5093 753.1199,-692.8225 761.4643,-683.0053"/>
<polygon fill="#000000" stroke="#000000" points="764.1297,-685.2757 768.2146,-675.5 758.9251,-680.5946 764.1297,-685.2757"/>
</g>
<!-- Node3 -->
<g id="node6" class="node">
<title>Node3</title>
<polygon fill="none" stroke="#000000" points="402.3927,-552.5 402.3927,-601.3 486.0365,-601.3 486.0365,-552.5 402.3927,-552.5"/>
<text text-anchor="middle" x="444.2146" y="-584.7" font-family="Times,serif" font-size="14.00" fill="#000000">0x8ea746e0</text>
<polyline fill="none" stroke="#000000" points="402.3927,-576.5 486.0365,-576.5 "/>
</g>
<!-- Node2&#45;&gt;Node3 -->
<g id="edge5" class="edge">
<title>Node2&#45;&gt;Node3:f0</title>
<path fill="none" stroke="#000000" d="M445.4695,-638.5345C444.9848,-630.1184 444.5352,-620.4564 444.3306,-611.0046"/>
<polygon fill="#000000" stroke="#000000" points="447.8293,-610.8591 444.2146,-600.9 440.8297,-610.9396 447.8293,-610.8591"/>
</g>
<!-- Node5 -->
<g id="node7" class="node">
<title>Node5</title>
<polygon fill="none" stroke="#000000" points="504.1662,-552.1 504.1662,-601.7 600.263,-601.7 600.263,-552.1 504.1662,-552.1"/>
<text text-anchor="middle" x="552.2146" y="-585.1" font-family="Times,serif" font-size="14.00" fill="#000000">0x8ea747c0</text>
<polyline fill="none" stroke="#000000" points="504.1662,-576.9 600.263,-576.9 "/>
<text text-anchor="middle" x="552.2146" y="-560.3" font-family="Times,serif" font-size="14.00" fill="#000000">COMPOUND</text>
</g>
<!-- Node4&#45;&gt;Node5 -->
<g id="edge6" class="edge">
<title>Node4&#45;&gt;Node5:f0</title>
<path fill="none" stroke="#000000" d="M552.2146,-638.623C552.2146,-630.471 552.2146,-621.1585 552.2146,-612.0402"/>
<polygon fill="#000000" stroke="#000000" points="555.7147,-611.9 552.2146,-601.9 548.7147,-611.9 555.7147,-611.9"/>
</g>
<!-- Node6 -->
<g id="node8" class="node">
<title>Node6</title>
<polygon fill="none" stroke="#000000" points="209,-457.5 209,-507.1 293.4292,-507.1 293.4292,-457.5 209,-457.5"/>
<text text-anchor="middle" x="251.2146" y="-490.5" font-family="Times,serif" font-size="14.00" fill="#000000">0x8ea74810</text>
<polyline fill="none" stroke="#000000" points="209,-482.3 293.4292,-482.3 "/>
<text text-anchor="middle" x="250.7756" y="-465.7" font-family="Times,serif" font-size="14.00" fill="#000000">if</text>
</g>
<!-- Node5&#45;&gt;Node6 -->
<g id="edge7" class="edge">
<title>Node5&#45;&gt;Node6:f0</title>
<path fill="none" stroke="#000000" d="M504.4954,-551.8931C455.8822,-528.6739 377.3616,-497.2721 303.5891,-494.4977"/>
<polygon fill="#000000" stroke="#000000" points="303.2795,-490.9912 293.2146,-494.3 303.1461,-497.9899 303.2795,-490.9912"/>
</g>
<!-- Node13 -->
<g id="node9" class="node">
<title>Node13</title>
<polygon fill="none" stroke="#000000" points="508.7854,-457.5 508.7854,-507.1 591.6438,-507.1 591.6438,-457.5 508.7854,-457.5"/>
<text text-anchor="middle" x="550.2146" y="-490.5" font-family="Times,serif" font-size="14.00" fill="#000000">0x8ea74ae0</text>
<polyline fill="none" stroke="#000000" points="508.7854,-482.3 591.6438,-482.3 "/>
<text text-anchor="middle" x="550.061" y="-465.7" font-family="Times,serif" font-size="14.00" fill="#000000">if</text>
</g>
<!-- Node5&#45;&gt;Node13 -->
<g id="edge8" class="edge">
<title>Node5&#45;&gt;Node13:f0</title>
<path fill="none" stroke="#000000" d="M551.1443,-551.777C550.7766,-541.5437 550.4215,-529.3558 550.2795,-517.5351"/>
<polygon fill="#000000" stroke="#000000" points="553.778,-517.2776 550.2146,-507.3 546.7782,-517.322 553.778,-517.2776"/>
</g>
<!-- Node20 -->
<g id="node10" class="node">
<title>Node20</title>
<polygon fill="none" stroke="#000000" points="613,-449.5 613,-515.1 697.4292,-515.1 697.4292,-449.5 613,-449.5"/>
<text text-anchor="middle" x="655.2146" y="-498.5" font-family="Times,serif" font-size="14.00" fill="#000000">0x8ea74db0</text>
<polyline fill="none" stroke="#000000" points="613,-490.3 697.4292,-490.3 "/>
<text text-anchor="middle" x="654.8829" y="-457.7" font-family="Times,serif" font-size="14.00" fill="#000000">eturn</text>
</g>
<!-- Node5&#45;&gt;Node20 -->
<g id="edge9" class="edge">
<title>Node5&#45;&gt;Node20:f0</title>
<path fill="none" stroke="#000000" d="M571.7902,-552.0593C583.4888,-537.3093 597.6633,-519.6225 606.059,-509.8053"/>
<polygon fill="#000000" stroke="#000000" points="608.8473,-511.9528 613.2146,-502.3 603.7809,-507.1225 608.8473,-511.9528"/>
</g>
<!-- Node7 -->
<g id="node11" class="node">
<title>Node7</title>
<polygon fill="none" stroke="#000000" points="101,-362.9 101,-412.5 185.4292,-412.5 185.4292,-362.9 101,-362.9"/>
<text text-anchor="middle" x="143.2146" y="-395.9" font-family="Times,serif" font-size="14.00" fill="#000000">0x8ea74860</text>
<polyline fill="none" stroke="#000000" points="101,-387.7 185.4292,-387.7 "/>
<text text-anchor="middle" x="142.8946" y="-371.1" font-family="Times,serif" font-size="14.00" fill="#000000">==</text>
</g>
<!-- Node6&#45;&gt;Node7 -->
<g id="edge10" class="edge">
<title>Node6&#45;&gt;Node7:f0</title>
<path fill="none" stroke="#000000" d="M229.7907,-457.4088C218.8468,-444.4087 205.4959,-428.101 194.2146,-413 192.8797,-411.2131 192.1972,-409.2443 191.672,-407.3816"/>
<polygon fill="#000000" stroke="#000000" points="194.3285,-405.1025 185.2146,-399.7 188.9702,-409.6069 194.3285,-405.1025"/>
</g>
<!-- Node10 -->
<g id="node12" class="node">
<title>Node10</title>
<polygon fill="none" stroke="#000000" points="203.1662,-362.9 203.1662,-412.5 299.263,-412.5 299.263,-362.9 203.1662,-362.9"/>
<text text-anchor="middle" x="251.2146" y="-395.9" font-family="Times,serif" font-size="14.00" fill="#000000">0x8ea74990</text>
<polyline fill="none" stroke="#000000" points="203.1662,-387.7 299.263,-387.7 "/>
<text text-anchor="middle" x="251.2146" y="-371.1" font-family="Times,serif" font-size="14.00" fill="#000000">COMPOUND</text>
</g>
<!-- Node6&#45;&gt;Node10 -->
<g id="edge11" class="edge">
<title>Node6&#45;&gt;Node10:f0</title>
<path fill="none" stroke="#000000" d="M251.2146,-457.4967C251.2146,-447.2205 251.2146,-434.9335 251.2146,-423.0169"/>
<polygon fill="#000000" stroke="#000000" points="254.7147,-422.7 251.2146,-412.7 247.7147,-422.7 254.7147,-422.7"/>
</g>
<!-- Node14 -->
<g id="node17" class="node">
<title>Node14</title>
<polygon fill="none" stroke="#000000" points="400,-362.9 400,-412.5 484.4292,-412.5 484.4292,-362.9 400,-362.9"/>
<text text-anchor="middle" x="442.2146" y="-395.9" font-family="Times,serif" font-size="14.00" fill="#000000">0x8ea74b30</text>
<polyline fill="none" stroke="#000000" points="400,-387.7 484.4292,-387.7 "/>
<text text-anchor="middle" x="441.8946" y="-371.1" font-family="Times,serif" font-size="14.00" fill="#000000">==</text>
</g>
<!-- Node13&#45;&gt;Node14 -->
<g id="edge16" class="edge">
<title>Node13&#45;&gt;Node14:f0</title>
<path fill="none" stroke="#000000" d="M528.7907,-457.4088C517.8468,-444.4087 504.4959,-428.101 493.2146,-413 491.8797,-411.2131 491.1972,-409.2443 490.672,-407.3816"/>
<polygon fill="#000000" stroke="#000000" points="493.3285,-405.1025 484.2146,-399.7 487.9702,-409.6069 493.3285,-405.1025"/>
</g>
<!-- Node17 -->
<g id="node18" class="node">
<title>Node17</title>
<polygon fill="none" stroke="#000000" points="502.1662,-362.9 502.1662,-412.5 598.263,-412.5 598.263,-362.9 502.1662,-362.9"/>
<text text-anchor="middle" x="550.2146" y="-395.9" font-family="Times,serif" font-size="14.00" fill="#000000">0x8ea74c60</text>
<polyline fill="none" stroke="#000000" points="502.1662,-387.7 598.263,-387.7 "/>
<text text-anchor="middle" x="550.2146" y="-371.1" font-family="Times,serif" font-size="14.00" fill="#000000">COMPOUND</text>
</g>
<!-- Node13&#45;&gt;Node17 -->
<g id="edge17" class="edge">
<title>Node13&#45;&gt;Node17:f0</title>
<path fill="none" stroke="#000000" d="M550.2146,-457.4967C550.2146,-447.2205 550.2146,-434.9335 550.2146,-423.0169"/>
<polygon fill="#000000" stroke="#000000" points="553.7147,-422.7 550.2146,-412.7 546.7147,-422.7 553.7147,-422.7"/>
</g>
<!-- Node21 -->
<g id="node23" class="node">
<title>Node21</title>
<polygon fill="none" stroke="#000000" points="616.3927,-362.9 616.3927,-412.5 700.0365,-412.5 700.0365,-362.9 616.3927,-362.9"/>
<text text-anchor="middle" x="658.2146" y="-395.9" font-family="Times,serif" font-size="14.00" fill="#000000">0x8ea74e00</text>
<polyline fill="none" stroke="#000000" points="616.3927,-387.7 700.0365,-387.7 "/>
<text text-anchor="middle" x="657.84" y="-371.1" font-family="Times,serif" font-size="14.00" fill="#000000">+</text>
</g>
<!-- Node20&#45;&gt;Node21 -->
<g id="edge22" class="edge">
<title>Node20&#45;&gt;Node21:f0</title>
<path fill="none" stroke="#000000" d="M657.2156,-449.3861C657.6155,-440.9646 657.9616,-431.735 658.1211,-422.7248"/>
<polygon fill="#000000" stroke="#000000" points="661.621,-422.7323 658.2146,-412.7 654.6213,-422.6669 661.621,-422.7323"/>
</g>
<!-- Node8 -->
<g id="node13" class="node">
<title>Node8</title>
<polygon fill="none" stroke="#000000" points="0,-268.7 0,-317.5 84.4292,-317.5 84.4292,-268.7 0,-268.7"/>
<text text-anchor="middle" x="42.2146" y="-300.9" font-family="Times,serif" font-size="14.00" fill="#000000">0x8ea748b0</text>
<polyline fill="none" stroke="#000000" points="0,-292.7 84.4292,-292.7 "/>
</g>
<!-- Node7&#45;&gt;Node8 -->
<g id="edge12" class="edge">
<title>Node7&#45;&gt;Node8:f0</title>
<path fill="none" stroke="#000000" d="M120.0747,-362.6655C110.9603,-352.002 100.8658,-339.1065 93.2146,-326.4 90.6467,-322.1355 90.8661,-317.0048 90.6071,-312.8477"/>
<polygon fill="#000000" stroke="#000000" points="93.2786,-310.5859 84.2146,-305.1 87.8792,-315.0409 93.2786,-310.5859"/>
</g>
<!-- Node9 -->
<g id="node14" class="node">
<title>Node9</title>
<polygon fill="none" stroke="#000000" points="102,-268.3 102,-317.9 186.4292,-317.9 186.4292,-268.3 102,-268.3"/>
<text text-anchor="middle" x="144.2146" y="-301.3" font-family="Times,serif" font-size="14.00" fill="#000000">0x8ea74920</text>
<polyline fill="none" stroke="#000000" points="102,-293.1 186.4292,-293.1 "/>
<text text-anchor="middle" x="144" y="-276.5" font-family="Times,serif" font-size="14.00" fill="#000000">0</text>
</g>
<!-- Node7&#45;&gt;Node9 -->
<g id="edge13" class="edge">
<title>Node7&#45;&gt;Node9:f0</title>
<path fill="none" stroke="#000000" d="M143.7439,-362.898C143.9294,-352.622 144.1095,-340.335 144.1816,-328.4177"/>
<polygon fill="#000000" stroke="#000000" points="147.6825,-328.1112 144.2146,-318.1 140.6826,-328.0887 147.6825,-328.1112"/>
</g>
<!-- Node11 -->
<g id="node15" class="node">
<title>Node11</title>
<polygon fill="none" stroke="#000000" points="207.3927,-260.3 207.3927,-325.9 291.0365,-325.9 291.0365,-260.3 207.3927,-260.3"/>
<text text-anchor="middle" x="249.2146" y="-309.3" font-family="Times,serif" font-size="14.00" fill="#000000">0x8ea749e0</text>
<polyline fill="none" stroke="#000000" points="207.3927,-301.1 291.0365,-301.1 "/>
<text text-anchor="middle" x="248.7756" y="-268.5" font-family="Times,serif" font-size="14.00" fill="#000000">eturn</text>
</g>
<!-- Node10&#45;&gt;Node11 -->
<g id="edge14" class="edge">
<title>Node10&#45;&gt;Node11:f0</title>
<path fill="none" stroke="#000000" d="M250.0396,-362.829C249.7233,-354.6778 249.4311,-345.3651 249.295,-336.2442"/>
<polygon fill="#000000" stroke="#000000" points="252.7938,-336.0719 249.2146,-326.1 245.794,-336.1275 252.7938,-336.0719"/>
</g>
<!-- Node12 -->
<g id="node16" class="node">
<title>Node12</title>
<polygon fill="none" stroke="#000000" points="207.3927,-173.7 207.3927,-223.3 291.0365,-223.3 291.0365,-173.7 207.3927,-173.7"/>
<text text-anchor="middle" x="249.2146" y="-206.7" font-family="Times,serif" font-size="14.00" fill="#000000">0x8ea74a30</text>
<polyline fill="none" stroke="#000000" points="207.3927,-198.5 291.0365,-198.5 "/>
<text text-anchor="middle" x="248.8927" y="-181.9" font-family="Times,serif" font-size="14.00" fill="#000000">0</text>
</g>
<!-- Node11&#45;&gt;Node12 -->
<g id="edge15" class="edge">
<title>Node11&#45;&gt;Node12:f0</title>
<path fill="none" stroke="#000000" d="M249.2146,-260.1736C249.2146,-251.7512 249.2146,-242.5228 249.2146,-233.5175"/>
<polygon fill="#000000" stroke="#000000" points="252.7147,-233.5 249.2146,-223.5 245.7147,-233.5 252.7147,-233.5"/>
</g>
<!-- Node15 -->
<g id="node19" class="node">
<title>Node15</title>
<polygon fill="none" stroke="#000000" points="309,-268.7 309,-317.5 393.4292,-317.5 393.4292,-268.7 309,-268.7"/>
<text text-anchor="middle" x="351.2146" y="-300.9" font-family="Times,serif" font-size="14.00" fill="#000000">0x8ea74b80</text>
<polyline fill="none" stroke="#000000" points="309,-292.7 393.4292,-292.7 "/>
</g>
<!-- Node14&#45;&gt;Node15 -->
<g id="edge18" class="edge">
<title>Node14&#45;&gt;Node15:f0</title>
<path fill="none" stroke="#000000" d="M424.4304,-362.6688C417.089,-351.7937 408.7805,-338.7404 402.2146,-326.4 399.8764,-322.0054 400.1029,-316.8707 399.7903,-312.7439"/>
<polygon fill="#000000" stroke="#000000" points="402.3895,-310.3984 393.2146,-305.1 397.0828,-314.9634 402.3895,-310.3984"/>
</g>
<!-- Node16 -->
<g id="node20" class="node">
<title>Node16</title>
<polygon fill="none" stroke="#000000" points="411.1697,-268.3 411.1697,-317.9 493.2595,-317.9 493.2595,-268.3 411.1697,-268.3"/>
<text text-anchor="middle" x="452.2146" y="-301.3" font-family="Times,serif" font-size="14.00" fill="#000000">0x8ea74bf0</text>
<polyline fill="none" stroke="#000000" points="411.1697,-293.1 493.2595,-293.1 "/>
<text text-anchor="middle" x="452.1697" y="-276.5" font-family="Times,serif" font-size="14.00" fill="#000000">1</text>
</g>
<!-- Node14&#45;&gt;Node16 -->
<g id="edge19" class="edge">
<title>Node14&#45;&gt;Node16:f0</title>
<path fill="none" stroke="#000000" d="M447.5659,-362.6964C449.4048,-352.4884 451.18,-340.3022 451.89,-328.4137"/>
<polygon fill="#000000" stroke="#000000" points="455.3982,-328.2052 452.2146,-318.1 448.4017,-327.9849 455.3982,-328.2052"/>
</g>
<!-- Node18 -->
<g id="node21" class="node">
<title>Node18</title>
<polygon fill="none" stroke="#000000" points="511.3927,-260.3 511.3927,-325.9 595.0365,-325.9 595.0365,-260.3 511.3927,-260.3"/>
<text text-anchor="middle" x="553.2146" y="-309.3" font-family="Times,serif" font-size="14.00" fill="#000000">0x8ea74cb0</text>
<polyline fill="none" stroke="#000000" points="511.3927,-301.1 595.0365,-301.1 "/>
<text text-anchor="middle" x="552.7756" y="-268.5" font-family="Times,serif" font-size="14.00" fill="#000000">eturn</text>
</g>
<!-- Node17&#45;&gt;Node18 -->
<g id="edge20" class="edge">
<title>Node17&#45;&gt;Node18:f0</title>
<path fill="none" stroke="#000000" d="M551.9771,-362.8364C552.4515,-354.6863 552.8898,-345.3734 553.094,-336.2493"/>
<polygon fill="#000000" stroke="#000000" points="556.5955,-336.1409 553.2146,-326.1 549.596,-336.0577 556.5955,-336.1409"/>
</g>
<!-- Node19 -->
<g id="node22" class="node">
<title>Node19</title>
<polygon fill="none" stroke="#000000" points="511,-173.7 511,-223.3 595.4292,-223.3 595.4292,-173.7 511,-173.7"/>
<text text-anchor="middle" x="553.2146" y="-206.7" font-family="Times,serif" font-size="14.00" fill="#000000">0x8ea74d00</text>
<polyline fill="none" stroke="#000000" points="511,-198.5 595.4292,-198.5 "/>
<text text-anchor="middle" x="553" y="-181.9" font-family="Times,serif" font-size="14.00" fill="#000000">1</text>
</g>
<!-- Node18&#45;&gt;Node19 -->
<g id="edge21" class="edge">
<title>Node18&#45;&gt;Node19:f0</title>
<path fill="none" stroke="#000000" d="M553.2146,-260.1736C553.2146,-251.7512 553.2146,-242.5228 553.2146,-233.5175"/>
<polygon fill="#000000" stroke="#000000" points="556.7147,-233.5 553.2146,-223.5 549.7147,-233.5 556.7147,-233.5"/>
</g>
<!-- Node22 -->
<g id="node24" class="node">
<title>Node22</title>
<polygon fill="none" stroke="#000000" points="616.3927,-268.3 616.3927,-317.9 700.0365,-317.9 700.0365,-268.3 616.3927,-268.3"/>
<text text-anchor="middle" x="658.2146" y="-301.3" font-family="Times,serif" font-size="14.00" fill="#000000">0x8ea74e50</text>
<polyline fill="none" stroke="#000000" points="616.3927,-293.1 700.0365,-293.1 "/>
<text text-anchor="middle" x="658.1683" y="-276.5" font-family="Times,serif" font-size="14.00" fill="#000000">fib</text>
</g>
<!-- Node21&#45;&gt;Node22 -->
<g id="edge23" class="edge">
<title>Node21&#45;&gt;Node22:f0</title>
<path fill="none" stroke="#000000" d="M658.2146,-362.8967C658.2146,-352.6205 658.2146,-340.3335 658.2146,-328.4169"/>
<polygon fill="#000000" stroke="#000000" points="661.7147,-328.1 658.2146,-318.1 654.7147,-328.1 661.7147,-328.1"/>
</g>
<!-- Node27 -->
<g id="node25" class="node">
<title>Node27</title>
<polygon fill="none" stroke="#000000" points="718,-268.3 718,-317.9 802.4292,-317.9 802.4292,-268.3 718,-268.3"/>
<text text-anchor="middle" x="760.2146" y="-301.3" font-family="Times,serif" font-size="14.00" fill="#000000">0x8ea75040</text>
<polyline fill="none" stroke="#000000" points="718,-293.1 802.4292,-293.1 "/>
<text text-anchor="middle" x="759.7756" y="-276.5" font-family="Times,serif" font-size="14.00" fill="#000000">fib</text>
</g>
<!-- Node21&#45;&gt;Node27 -->
<g id="edge24" class="edge">
<title>Node21&#45;&gt;Node27:f0</title>
<path fill="none" stroke="#000000" d="M681.8468,-362.7302C691.148,-352.0766 701.4397,-339.171 709.2146,-326.4 711.8032,-322.148 711.5844,-317.0178 711.8386,-312.8576"/>
<polygon fill="#000000" stroke="#000000" points="714.5689,-315.0479 718.2146,-305.1 709.1611,-310.6031 714.5689,-315.0479"/>
</g>
<!-- Node23 -->
<g id="node26" class="node">
<title>Node23</title>
<polygon fill="none" stroke="#000000" points="616.7854,-173.7 616.7854,-223.3 699.6438,-223.3 699.6438,-173.7 616.7854,-173.7"/>
<text text-anchor="middle" x="658.2146" y="-206.7" font-family="Times,serif" font-size="14.00" fill="#000000">0x8ea74ea0</text>
<polyline fill="none" stroke="#000000" points="616.7854,-198.5 699.6438,-198.5 "/>
<text text-anchor="middle" x="658.0603" y="-181.9" font-family="Times,serif" font-size="14.00" fill="#000000">ARG</text>
</g>
<!-- Node22&#45;&gt;Node23 -->
<g id="edge25" class="edge">
<title>Node22&#45;&gt;Node23:f0</title>
<path fill="none" stroke="#000000" d="M658.2146,-268.2967C658.2146,-258.0205 658.2146,-245.7335 658.2146,-233.8169"/>
<polygon fill="#000000" stroke="#000000" points="661.7147,-233.5 658.2146,-223.5 654.7147,-233.5 661.7147,-233.5"/>
</g>
<!-- Node28 -->
<g id="node30" class="node">
<title>Node28</title>
<polygon fill="none" stroke="#000000" points="718,-173.7 718,-223.3 802.4292,-223.3 802.4292,-173.7 718,-173.7"/>
<text text-anchor="middle" x="760.2146" y="-206.7" font-family="Times,serif" font-size="14.00" fill="#000000">0x8ea75090</text>
<polyline fill="none" stroke="#000000" points="718,-198.5 802.4292,-198.5 "/>
<text text-anchor="middle" x="759.7749" y="-181.9" font-family="Times,serif" font-size="14.00" fill="#000000">ARG</text>
</g>
<!-- Node27&#45;&gt;Node28 -->
<g id="edge29" class="edge">
<title>Node27&#45;&gt;Node28:f0</title>
<path fill="none" stroke="#000000" d="M760.2146,-268.2967C760.2146,-258.0205 760.2146,-245.7335 760.2146,-233.8169"/>
<polygon fill="#000000" stroke="#000000" points="763.7147,-233.5 760.2146,-223.5 756.7147,-233.5 763.7147,-233.5"/>
</g>
<!-- Node24 -->
<g id="node27" class="node">
<title>Node24</title>
<polygon fill="none" stroke="#000000" points="617.5624,-87.1 617.5624,-136.7 698.8668,-136.7 698.8668,-87.1 617.5624,-87.1"/>
<text text-anchor="middle" x="658.2146" y="-120.1" font-family="Times,serif" font-size="14.00" fill="#000000">0x8ea74ef0</text>
<polyline fill="none" stroke="#000000" points="617.5624,-111.9 698.8668,-111.9 "/>
<text text-anchor="middle" x="657.8927" y="-95.3" font-family="Times,serif" font-size="14.00" fill="#000000">&#45;</text>
</g>
<!-- Node23&#45;&gt;Node24 -->
<g id="edge26" class="edge">
<title>Node23&#45;&gt;Node24:f0</title>
<path fill="none" stroke="#000000" d="M658.2146,-173.623C658.2146,-165.471 658.2146,-156.1585 658.2146,-147.0402"/>
<polygon fill="#000000" stroke="#000000" points="661.7147,-146.9 658.2146,-136.9 654.7147,-146.9 661.7147,-146.9"/>
</g>
<!-- Node25 -->
<g id="node28" class="node">
<title>Node25</title>
<polygon fill="none" stroke="#000000" points="518.1697,-.9 518.1697,-49.7 600.2595,-49.7 600.2595,-.9 518.1697,-.9"/>
<text text-anchor="middle" x="559.2146" y="-33.1" font-family="Times,serif" font-size="14.00" fill="#000000">0x8ea74f40</text>
<polyline fill="none" stroke="#000000" points="518.1697,-24.9 600.2595,-24.9 "/>
</g>
<!-- Node24&#45;&gt;Node25 -->
<g id="edge27" class="edge">
<title>Node24&#45;&gt;Node25:f0</title>
<path fill="none" stroke="#000000" d="M637.492,-86.9011C628.5838,-75.9207 618.1808,-62.7786 609.2146,-50.6 607.8922,-48.8039 607.2145,-46.8315 606.6897,-44.9684"/>
<polygon fill="#000000" stroke="#000000" points="609.3404,-42.6825 600.2146,-37.3 603.992,-47.1986 609.3404,-42.6825"/>
</g>
<!-- Node26 -->
<g id="node29" class="node">
<title>Node26</title>
<polygon fill="none" stroke="#000000" points="618.1697,-.5 618.1697,-50.1 700.2595,-50.1 700.2595,-.5 618.1697,-.5"/>
<text text-anchor="middle" x="659.2146" y="-33.5" font-family="Times,serif" font-size="14.00" fill="#000000">0x8ea74f90</text>
<polyline fill="none" stroke="#000000" points="618.1697,-25.3 700.2595,-25.3 "/>
<text text-anchor="middle" x="659.1697" y="-8.7" font-family="Times,serif" font-size="14.00" fill="#000000">1</text>
</g>
<!-- Node24&#45;&gt;Node26 -->
<g id="edge28" class="edge">
<title>Node24&#45;&gt;Node26:f0</title>
<path fill="none" stroke="#000000" d="M658.8021,-87.0245C658.9602,-78.8727 659.1063,-69.5601 659.1744,-60.4412"/>
<polygon fill="#000000" stroke="#000000" points="662.6748,-60.3138 659.2146,-50.3 655.6749,-60.286 662.6748,-60.3138"/>
</g>
<!-- Node29 -->
<g id="node31" class="node">
<title>Node29</title>
<polygon fill="none" stroke="#000000" points="718.3927,-87.1 718.3927,-136.7 802.0365,-136.7 802.0365,-87.1 718.3927,-87.1"/>
<text text-anchor="middle" x="760.2146" y="-120.1" font-family="Times,serif" font-size="14.00" fill="#000000">0x8ea750e0</text>
<polyline fill="none" stroke="#000000" points="718.3927,-111.9 802.0365,-111.9 "/>
<text text-anchor="middle" x="759.723" y="-95.3" font-family="Times,serif" font-size="14.00" fill="#000000">&#45;</text>
</g>
<!-- Node28&#45;&gt;Node29 -->
<g id="edge30" class="edge">
<title>Node28&#45;&gt;Node29:f0</title>
<path fill="none" stroke="#000000" d="M760.2146,-173.623C760.2146,-165.471 760.2146,-156.1585 760.2146,-147.0402"/>
<polygon fill="#000000" stroke="#000000" points="763.7147,-146.9 760.2146,-136.9 756.7147,-146.9 763.7147,-146.9"/>
</g>
<!-- Node30 -->
<g id="node32" class="node">
<title>Node30</title>
<polygon fill="none" stroke="#000000" points="718,-.9 718,-49.7 802.4292,-49.7 802.4292,-.9 718,-.9"/>
<text text-anchor="middle" x="760.2146" y="-33.1" font-family="Times,serif" font-size="14.00" fill="#000000">0x8ea75130</text>
<polyline fill="none" stroke="#000000" points="718,-24.9 802.4292,-24.9 "/>
</g>
<!-- Node29&#45;&gt;Node30 -->
<g id="edge31" class="edge">
<title>Node29&#45;&gt;Node30:f0</title>
<path fill="none" stroke="#000000" d="M760.2146,-86.9213C760.2146,-78.5033 760.2146,-68.8416 760.2146,-59.3958"/>
<polygon fill="#000000" stroke="#000000" points="763.7147,-59.3 760.2146,-49.3 756.7147,-59.3 763.7147,-59.3"/>
</g>
<!-- Node31 -->
<g id="node33" class="node">
<title>Node31</title>
<polygon fill="none" stroke="#000000" points="820.3927,-.5 820.3927,-50.1 904.0365,-50.1 904.0365,-.5 820.3927,-.5"/>
<text text-anchor="middle" x="862.2146" y="-33.5" font-family="Times,serif" font-size="14.00" fill="#000000">0x8ea751a0</text>
<polyline fill="none" stroke="#000000" points="820.3927,-25.3 904.0365,-25.3 "/>
<text text-anchor="middle" x="861.8927" y="-8.7" font-family="Times,serif" font-size="14.00" fill="#000000">2</text>
</g>
<!-- Node29&#45;&gt;Node31 -->
<g id="edge32" class="edge">
<title>Node29&#45;&gt;Node31:f0</title>
<path fill="none" stroke="#000000" d="M781.88,-87.0035C791.1689,-76.0412 801.9832,-62.885 811.2146,-50.6 812.5545,-48.8169 813.2389,-46.8494 813.7644,-44.9869"/>
<polygon fill="#000000" stroke="#000000" points="816.4677,-47.2102 820.2146,-37.3 811.1055,-42.7106 816.4677,-47.2102"/>
</g>
<!-- Node35 -->
<g id="node36" class="node">
<title>Node35</title>
<polygon fill="none" stroke="#000000" points="763.1662,-552.1 763.1662,-601.7 859.263,-601.7 859.263,-552.1 763.1662,-552.1"/>
<text text-anchor="middle" x="811.2146" y="-585.1" font-family="Times,serif" font-size="14.00" fill="#000000">0x8ea753b0</text>
<polyline fill="none" stroke="#000000" points="763.1662,-576.9 859.263,-576.9 "/>
<text text-anchor="middle" x="811.2146" y="-560.3" font-family="Times,serif" font-size="14.00" fill="#000000">COMPOUND</text>
</g>
<!-- Node34&#45;&gt;Node35 -->
<g id="edge35" class="edge">
<title>Node34&#45;&gt;Node35:f0</title>
<path fill="none" stroke="#000000" d="M810.8021,-638.6245C810.9602,-630.4727 811.1063,-621.1601 811.1744,-612.0412"/>
<polygon fill="#000000" stroke="#000000" points="814.6748,-611.9138 811.2146,-601.9 807.6749,-611.886 814.6748,-611.9138"/>
</g>
<!-- Node36 -->
<g id="node37" class="node">
<title>Node36</title>
<polygon fill="none" stroke="#000000" points="718,-457.5 718,-507.1 802.4292,-507.1 802.4292,-457.5 718,-457.5"/>
<text text-anchor="middle" x="760.2146" y="-490.5" font-family="Times,serif" font-size="14.00" fill="#000000">0x8ea75400</text>
<polyline fill="none" stroke="#000000" points="718,-482.3 802.4292,-482.3 "/>
<text text-anchor="middle" x="760.1599" y="-465.7" font-family="Times,serif" font-size="14.00" fill="#000000">data</text>
</g>
<!-- Node35&#45;&gt;Node36 -->
<g id="edge36" class="edge">
<title>Node35&#45;&gt;Node36:f0</title>
<path fill="none" stroke="#000000" d="M810.8284,-551.6685C810.3451,-535.3478 809.2601,-515.061 806.8282,-503.505"/>
<polygon fill="#000000" stroke="#000000" points="809.8244,-501.6717 802.2146,-494.3 803.5664,-504.8083 809.8244,-501.6717"/>
</g>
<!-- Node38 -->
<g id="node38" class="node">
<title>Node38</title>
<polygon fill="none" stroke="#000000" points="820.3927,-457.5 820.3927,-507.1 904.0365,-507.1 904.0365,-457.5 820.3927,-457.5"/>
<text text-anchor="middle" x="862.2146" y="-490.5" font-family="Times,serif" font-size="14.00" fill="#000000">0x8ea754e0</text>
<polyline fill="none" stroke="#000000" points="820.3927,-482.3 904.0365,-482.3 "/>
<text text-anchor="middle" x="861.838" y="-465.7" font-family="Times,serif" font-size="14.00" fill="#000000">in</text>
</g>
<!-- Node35&#45;&gt;Node38 -->
<g id="edge37" class="edge">
<title>Node35&#45;&gt;Node38:f0</title>
<path fill="none" stroke="#000000" d="M811.6008,-551.6685C812.0841,-535.3478 813.1691,-515.061 815.601,-503.505"/>
<polygon fill="#000000" stroke="#000000" points="818.8628,-504.8083 820.2146,-494.3 812.6048,-501.6717 818.8628,-504.8083"/>
</g>
<!-- Node41 -->
<g id="node39" class="node">
<title>Node41</title>
<polygon fill="none" stroke="#000000" points="922,-457.5 922,-507.1 1006.4292,-507.1 1006.4292,-457.5 922,-457.5"/>
<text text-anchor="middle" x="964.2146" y="-490.5" font-family="Times,serif" font-size="14.00" fill="#000000">0x8ea75630</text>
<polyline fill="none" stroke="#000000" points="922,-482.3 1006.4292,-482.3 "/>
<text text-anchor="middle" x="963.9453" y="-465.7" font-family="Times,serif" font-size="14.00" fill="#000000">out</text>
</g>
<!-- Node35&#45;&gt;Node41 -->
<g id="edge38" class="edge">
<title>Node35&#45;&gt;Node41:f0</title>
<path fill="none" stroke="#000000" d="M859.4071,-556.0227C878.1517,-545.9958 898.5905,-532.4525 913.2146,-515.6 916.4772,-511.8403 916.2795,-506.7254 916.3762,-502.4503"/>
<polygon fill="#000000" stroke="#000000" points="919.2364,-504.4676 922.2146,-494.3 913.5458,-500.3912 919.2364,-504.4676"/>
</g>
<!-- Node37 -->
<g id="node40" class="node">
<title>Node37</title>
<polygon fill="none" stroke="#000000" points="718,-363.3 718,-412.1 802.4292,-412.1 802.4292,-363.3 718,-363.3"/>
<text text-anchor="middle" x="760.2146" y="-395.5" font-family="Times,serif" font-size="14.00" fill="#000000">0x8ea75450</text>
<polyline fill="none" stroke="#000000" points="718,-387.3 802.4292,-387.3 "/>
</g>
<!-- Node36&#45;&gt;Node37 -->
<g id="edge39" class="edge">
<title>Node36&#45;&gt;Node37:f0</title>
<path fill="none" stroke="#000000" d="M760.2146,-457.4684C760.2146,-446.8975 760.2146,-434.1853 760.2146,-421.8823"/>
<polygon fill="#000000" stroke="#000000" points="763.7147,-421.7 760.2146,-411.7 756.7147,-421.7 763.7147,-421.7"/>
</g>
<!-- Node39 -->
<g id="node41" class="node">
<title>Node39</title>
<polygon fill="none" stroke="#000000" points="820,-362.9 820,-412.5 904.4292,-412.5 904.4292,-362.9 820,-362.9"/>
<text text-anchor="middle" x="862.2146" y="-395.9" font-family="Times,serif" font-size="14.00" fill="#000000">0x8ea75530</text>
<polyline fill="none" stroke="#000000" points="820,-387.7 904.4292,-387.7 "/>
<text text-anchor="middle" x="861.7749" y="-371.1" font-family="Times,serif" font-size="14.00" fill="#000000">ARG</text>
</g>
<!-- Node38&#45;&gt;Node39 -->
<g id="edge40" class="edge">
<title>Node38&#45;&gt;Node39:f0</title>
<path fill="none" stroke="#000000" d="M862.2146,-457.4967C862.2146,-447.2205 862.2146,-434.9335 862.2146,-423.0169"/>
<polygon fill="#000000" stroke="#000000" points="865.7147,-422.7 862.2146,-412.7 858.7147,-422.7 865.7147,-422.7"/>
</g>
<!-- Node42 -->
<g id="node43" class="node">
<title>Node42</title>
<polygon fill="none" stroke="#000000" points="922,-362.9 922,-412.5 1006.4292,-412.5 1006.4292,-362.9 922,-362.9"/>
<text text-anchor="middle" x="964.2146" y="-395.9" font-family="Times,serif" font-size="14.00" fill="#000000">0x8ea75680</text>
<polyline fill="none" stroke="#000000" points="922,-387.7 1006.4292,-387.7 "/>
<text text-anchor="middle" x="963.7749" y="-371.1" font-family="Times,serif" font-size="14.00" fill="#000000">ARG</text>
</g>
<!-- Node41&#45;&gt;Node42 -->
<g id="edge42" class="edge">
<title>Node41&#45;&gt;Node42:f0</title>
<path fill="none" stroke="#000000" d="M964.2146,-457.4967C964.2146,-447.2205 964.2146,-434.9335 964.2146,-423.0169"/>
<polygon fill="#000000" stroke="#000000" points="967.7147,-422.7 964.2146,-412.7 960.7147,-422.7 967.7147,-422.7"/>
</g>
<!-- Node40 -->
<g id="node42" class="node">
<title>Node40</title>
<polygon fill="none" stroke="#000000" points="820,-268.7 820,-317.5 904.4292,-317.5 904.4292,-268.7 820,-268.7"/>
<text text-anchor="middle" x="862.2146" y="-300.9" font-family="Times,serif" font-size="14.00" fill="#000000">0x8ea75580</text>
<polyline fill="none" stroke="#000000" points="820,-292.7 904.4292,-292.7 "/>
</g>
<!-- Node39&#45;&gt;Node40 -->
<g id="edge41" class="edge">
<title>Node39&#45;&gt;Node40:f0</title>
<path fill="none" stroke="#000000" d="M862.2146,-362.8684C862.2146,-352.2975 862.2146,-339.5853 862.2146,-327.2823"/>
<polygon fill="#000000" stroke="#000000" points="865.7147,-327.1 862.2146,-317.1 858.7147,-327.1 865.7147,-327.1"/>
</g>
<!-- Node43 -->
<g id="node44" class="node">
<title>Node43</title>
<polygon fill="none" stroke="#000000" points="922,-268.3 922,-317.9 1006.4292,-317.9 1006.4292,-268.3 922,-268.3"/>
<text text-anchor="middle" x="964.2146" y="-301.3" font-family="Times,serif" font-size="14.00" fill="#000000">0x8ea756d0</text>
<polyline fill="none" stroke="#000000" points="922,-293.1 1006.4292,-293.1 "/>
<text text-anchor="middle" x="963.7756" y="-276.5" font-family="Times,serif" font-size="14.00" fill="#000000">fib</text>
</g>
<!-- Node42&#45;&gt;Node43 -->
<g id="edge43" class="edge">
<title>Node42&#45;&gt;Node43:f0</title>
<path fill="none" stroke="#000000" d="M964.2146,-362.8967C964.2146,-352.6205 964.2146,-340.3335 964.2146,-328.4169"/>
<polygon fill="#000000" stroke="#000000" points="967.7147,-328.1 964.2146,-318.1 960.7147,-328.1 967.7147,-328.1"/>
</g>
<!-- Node44 -->
<g id="node45" class="node">
<title>Node44</title>
<polygon fill="none" stroke="#000000" points="922,-173.7 922,-223.3 1006.4292,-223.3 1006.4292,-173.7 922,-173.7"/>
<text text-anchor="middle" x="964.2146" y="-206.7" font-family="Times,serif" font-size="14.00" fill="#000000">0x8ea75720</text>
<polyline fill="none" stroke="#000000" points="922,-198.5 1006.4292,-198.5 "/>
<text text-anchor="middle" x="963.7749" y="-181.9" font-family="Times,serif" font-size="14.00" fill="#000000">ARG</text>
</g>
<!-- Node43&#45;&gt;Node44 -->
<g id="edge44" class="edge">
<title>Node43&#45;&gt;Node44:f0</title>
<path fill="none" stroke="#000000" d="M964.2146,-268.2967C964.2146,-258.0205 964.2146,-245.7335 964.2146,-233.8169"/>
<polygon fill="#000000" stroke="#000000" points="967.7147,-233.5 964.2146,-223.5 960.7147,-233.5 967.7147,-233.5"/>
</g>
<!-- Node45 -->
<g id="node46" class="node">
<title>Node45</title>
<polygon fill="none" stroke="#000000" points="922,-87.5 922,-136.3 1006.4292,-136.3 1006.4292,-87.5 922,-87.5"/>
<text text-anchor="middle" x="964.2146" y="-119.7" font-family="Times,serif" font-size="14.00" fill="#000000">0x8ea75770</text>
<polyline fill="none" stroke="#000000" points="922,-111.5 1006.4292,-111.5 "/>
</g>
<!-- Node44&#45;&gt;Node45 -->
<g id="edge45" class="edge">
<title>Node44&#45;&gt;Node45:f0</title>
<path fill="none" stroke="#000000" d="M964.2146,-173.5213C964.2146,-165.1033 964.2146,-155.4416 964.2146,-145.9958"/>
<polygon fill="#000000" stroke="#000000" points="967.7147,-145.9 964.2146,-135.9 960.7147,-145.9 967.7147,-145.9"/>
</g>
</g>
</svg>
