<?xml version="1.0" encoding="UTF-8" standalone="no"?>
<!DOCTYPE svg PUBLIC "-//W3C//DTD SVG 1.1//EN"
 "http://www.w3.org/Graphics/SVG/1.1/DTD/svg11.dtd">
<!-- Generated by graphviz version 2.40.1 (20161225.0304)
 -->
<!-- Title: G Pages: 1 -->
<svg width="1022pt" height="783pt"
 viewBox="0.00 0.00 1022.21 783.40" xmlns="http://www.w3.org/2000/svg" xmlns:xlink="http://www.w3.org/1999/xlink">
<g id="graph0" class="graph" transform="scale(1 1) rotate(0) translate(4 779.4)">
<title>G</title>
<polygon fill="#ffffff" stroke="transparent" points="-4,4 -4,-779.4 1018.2146,-779.4 1018.2146,4 -4,4"/>
<!-- Node0 -->
<g id="node1" class="node">
<title>Node0</title>
<polygon fill="none" stroke="#000000" points="482.6073,-725.3 482.6073,-774.9 568.6073,-774.9 568.6073,-725.3 482.6073,-725.3"/>
<text text-anchor="middle" x="525.6073" y="-758.3" font-family="Times,serif" font-size="14.00" fill="#000000">0x2041d550</text>
<polyline fill="none" stroke="#000000" points="482.6073,-750.1 568.6073,-750.1 "/>
<text text-anchor="middle" x="525.1585" y="-733.5" font-family="Times,serif" font-size="14.00" fill="#000000">ROOT</text>
</g>
<!-- Node1 -->
<g id="node2" class="node">
<title>Node1</title>
<polygon fill="none" stroke="#000000" points="429,-638.7 429,-688.3 514.2146,-688.3 514.2146,-638.7 429,-638.7"/>
<text text-anchor="middle" x="471.6073" y="-671.7" font-family="Times,serif" font-size="14.00" fill="#000000">0x2041d5a0</text>
<polyline fill="none" stroke="#000000" points="429,-663.5 514.2146,-663.5 "/>
<text text-anchor="middle" x="471.2756" y="-646.9" font-family="Times,serif" font-size="14.00" fill="#000000">fib</text>
</g>
<!-- Node0&#45;&gt;Node1 -->
<g id="edge1" class="edge">
<title>Node0&#45;&gt;Node1:f0</title>
<path fill="none" stroke="#000000" d="M531.1659,-725.2593C533.9626,-707.7966 534.8452,-686.2177 524.3738,-678.4546"/>
<polygon fill="#000000" stroke="#000000" points="525.1924,-675.0456 514.6073,-675.5 523.1654,-681.7458 525.1924,-675.0456"/>
</g>
<!-- Node31 -->
<g id="node3" class="node">
<title>Node31</title>
<polygon fill="none" stroke="#000000" points="589,-638.7 589,-688.3 674.2146,-688.3 674.2146,-638.7 589,-638.7"/>
<text text-anchor="middle" x="631.6073" y="-671.7" font-family="Times,serif" font-size="14.00" fill="#000000">0x2041e190</text>
<polyline fill="none" stroke="#000000" points="589,-663.5 674.2146,-663.5 "/>
<text text-anchor="middle" x="631.4979" y="-646.9" font-family="Times,serif" font-size="14.00" fill="#000000">main</text>
</g>
<!-- Node0&#45;&gt;Node31 -->
<g id="edge2" class="edge">
<title>Node0&#45;&gt;Node31:f0</title>
<path fill="none" stroke="#000000" d="M534.6447,-725.2593C543.0415,-706.4403 557.4412,-682.8408 578.4744,-676.9041"/>
<polygon fill="#000000" stroke="#000000" points="579.1824,-680.3396 588.6073,-675.5 578.2215,-673.4058 579.1824,-680.3396"/>
</g>
<!-- Node2 -->
<g id="node4" class="node">
<title>Node2</title>
<polygon fill="none" stroke="#000000" points="272.777,-552.1 272.777,-601.7 356.4376,-601.7 356.4376,-552.1 272.777,-552.1"/>
<text text-anchor="middle" x="314.6073" y="-585.1" font-family="Times,serif" font-size="14.00" fill="#000000">0x2041d5f0</text>
<polyline fill="none" stroke="#000000" points="272.777,-576.9 356.4376,-576.9 "/>
<text text-anchor="middle" x="314.5519" y="-560.3" font-family="Times,serif" font-size="14.00" fill="#000000">ARG</text>
</g>
<!-- Node1&#45;&gt;Node2 -->
<g id="edge3" class="edge">
<title>Node1&#45;&gt;Node2:f0</title>
<path fill="none" stroke="#000000" d="M450.0771,-638.6593C430.6737,-618.9078 400.1126,-593.8904 366.6076,-589.5545"/>
<polygon fill="#000000" stroke="#000000" points="366.8146,-586.0606 356.6073,-588.9 366.3573,-593.0457 366.8146,-586.0606"/>
</g>
<!-- Node4 -->
<g id="node5" class="node">
<title>Node4</title>
<polygon fill="none" stroke="#000000" points="423.5589,-552.1 423.5589,-601.7 519.6557,-601.7 519.6557,-552.1 423.5589,-552.1"/>
<text text-anchor="middle" x="471.6073" y="-585.1" font-family="Times,serif" font-size="14.00" fill="#000000">0x2041d6d0</text>
<polyline fill="none" stroke="#000000" points="423.5589,-576.9 519.6557,-576.9 "/>
<text text-anchor="middle" x="471.6073" y="-560.3" font-family="Times,serif" font-size="14.00" fill="#000000">COMPOUND</text>
</g>
<!-- Node1&#45;&gt;Node4 -->
<g id="edge4" class="edge">
<title>Node1&#45;&gt;Node4:f0</title>
<path fill="none" stroke="#000000" d="M471.6073,-638.623C471.6073,-630.471 471.6073,-621.1585 471.6073,-612.0402"/>
<polygon fill="#000000" stroke="#000000" points="475.1074,-611.9 471.6073,-601.9 468.1074,-611.9 475.1074,-611.9"/>
</g>
<!-- Node32 -->
<g id="node33" class="node">
<title>Node32</title>
<polygon fill="none" stroke="#000000" points="589.3927,-552.1 589.3927,-601.7 673.8219,-601.7 673.8219,-552.1 589.3927,-552.1"/>
<text text-anchor="middle" x="631.6073" y="-585.1" font-family="Times,serif" font-size="14.00" fill="#000000">0x2041e1e0</text>
<polyline fill="none" stroke="#000000" points="589.3927,-576.9 673.8219,-576.9 "/>
<text text-anchor="middle" x="631.1676" y="-560.3" font-family="Times,serif" font-size="14.00" fill="#000000">ARG</text>
</g>
<!-- Node31&#45;&gt;Node32 -->
<g id="edge32" class="edge">
<title>Node31&#45;&gt;Node32:f0</title>
<path fill="none" stroke="#000000" d="M631.6073,-638.623C631.6073,-630.471 631.6073,-621.1585 631.6073,-612.0402"/>
<polygon fill="#000000" stroke="#000000" points="635.1074,-611.9 631.6073,-601.9 628.1074,-611.9 635.1074,-611.9"/>
</g>
<!-- Node33 -->
<g id="node34" class="node">
<title>Node33</title>
<polygon fill="none" stroke="#000000" points="768.5589,-552.1 768.5589,-601.7 864.6557,-601.7 864.6557,-552.1 768.5589,-552.1"/>
<text text-anchor="middle" x="816.6073" y="-585.1" font-family="Times,serif" font-size="14.00" fill="#000000">0x2041e250</text>
<polyline fill="none" stroke="#000000" points="768.5589,-576.9 864.6557,-576.9 "/>
<text text-anchor="middle" x="816.6073" y="-560.3" font-family="Times,serif" font-size="14.00" fill="#000000">COMPOUND</text>
</g>
<!-- Node31&#45;&gt;Node33 -->
<g id="edge33" class="edge">
<title>Node31&#45;&gt;Node33:f0</title>
<path fill="none" stroke="#000000" d="M658.1499,-638.6593C682.0573,-618.7383 719.3214,-593.4605 758.1646,-589.4474"/>
<polygon fill="#000000" stroke="#000000" points="758.8043,-592.9188 768.6073,-588.9 758.4378,-585.9284 758.8043,-592.9188"/>
</g>
<!-- Node3 -->
<g id="node6" class="node">
<title>Node3</title>
<polygon fill="none" stroke="#000000" points="198.6073,-457.9 198.6073,-506.7 284.6073,-506.7 284.6073,-457.9 198.6073,-457.9"/>
<text text-anchor="middle" x="241.6073" y="-490.1" font-family="Times,serif" font-size="14.00" fill="#000000">0x2041d640</text>
<polyline fill="none" stroke="#000000" points="198.6073,-481.9 284.6073,-481.9 "/>
</g>
<!-- Node2&#45;&gt;Node3 -->
<g id="edge5" class="edge">
<title>Node2&#45;&gt;Node3:f0</title>
<path fill="none" stroke="#000000" d="M306.0681,-551.6685C300.4829,-535.3478 293.4124,-515.061 288.9052,-503.505"/>
<polygon fill="#000000" stroke="#000000" points="292.0094,-501.8802 284.6073,-494.3 285.6667,-504.8417 292.0094,-501.8802"/>
</g>
<!-- Node5 -->
<g id="node7" class="node">
<title>Node5</title>
<polygon fill="none" stroke="#000000" points="302.6073,-457.5 302.6073,-507.1 388.6073,-507.1 388.6073,-457.5 302.6073,-457.5"/>
<text text-anchor="middle" x="345.6073" y="-490.5" font-family="Times,serif" font-size="14.00" fill="#000000">0x2041d720</text>
<polyline fill="none" stroke="#000000" points="302.6073,-482.3 388.6073,-482.3 "/>
<text text-anchor="middle" x="345.3829" y="-465.7" font-family="Times,serif" font-size="14.00" fill="#000000">if</text>
</g>
<!-- Node4&#45;&gt;Node5 -->
<g id="edge6" class="edge">
<title>Node4&#45;&gt;Node5:f0</title>
<path fill="none" stroke="#000000" d="M449.5838,-551.6685C432.9754,-533.0705 410.8816,-509.3223 397.7423,-499.212"/>
<polygon fill="#000000" stroke="#000000" points="399.0724,-495.9533 388.6073,-494.3 395.7572,-502.1185 399.0724,-495.9533"/>
</g>
<!-- Node12 -->
<g id="node8" class="node">
<title>Node12</title>
<polygon fill="none" stroke="#000000" points="429.777,-457.5 429.777,-507.1 513.4376,-507.1 513.4376,-457.5 429.777,-457.5"/>
<text text-anchor="middle" x="471.6073" y="-490.5" font-family="Times,serif" font-size="14.00" fill="#000000">0x2041d9f0</text>
<polyline fill="none" stroke="#000000" points="429.777,-482.3 513.4376,-482.3 "/>
<text text-anchor="middle" x="471.5526" y="-465.7" font-family="Times,serif" font-size="14.00" fill="#000000">if</text>
</g>
<!-- Node4&#45;&gt;Node12 -->
<g id="edge7" class="edge">
<title>Node4&#45;&gt;Node12:f0</title>
<path fill="none" stroke="#000000" d="M471.6073,-552.0967C471.6073,-541.8205 471.6073,-529.5335 471.6073,-517.6169"/>
<polygon fill="#000000" stroke="#000000" points="475.1074,-517.3 471.6073,-507.3 468.1074,-517.3 475.1074,-517.3"/>
</g>
<!-- Node19 -->
<g id="node9" class="node">
<title>Node19</title>
<polygon fill="none" stroke="#000000" points="563.3927,-449.5 563.3927,-515.1 647.8219,-515.1 647.8219,-449.5 563.3927,-449.5"/>
<text text-anchor="middle" x="605.6073" y="-498.5" font-family="Times,serif" font-size="14.00" fill="#000000">0x2041dcc0</text>
<polyline fill="none" stroke="#000000" points="563.3927,-490.3 647.8219,-490.3 "/>
<text text-anchor="middle" x="605.2756" y="-457.7" font-family="Times,serif" font-size="14.00" fill="#000000">eturn</text>
</g>
<!-- Node4&#45;&gt;Node19 -->
<g id="edge8" class="edge">
<title>Node4&#45;&gt;Node19:f0</title>
<path fill="none" stroke="#000000" d="M487.7574,-552.0593C502.3181,-532.6469 525.6893,-508.1478 553.5661,-503.196"/>
<polygon fill="#000000" stroke="#000000" points="553.958,-506.675 563.6073,-502.3 553.3358,-499.7027 553.958,-506.675"/>
</g>
<!-- Node6 -->
<g id="node10" class="node">
<title>Node6</title>
<polygon fill="none" stroke="#000000" points="103.6073,-362.9 103.6073,-412.5 189.6073,-412.5 189.6073,-362.9 103.6073,-362.9"/>
<text text-anchor="middle" x="146.6073" y="-395.9" font-family="Times,serif" font-size="14.00" fill="#000000">0x2041d770</text>
<polyline fill="none" stroke="#000000" points="103.6073,-387.7 189.6073,-387.7 "/>
<text text-anchor="middle" x="146.5019" y="-371.1" font-family="Times,serif" font-size="14.00" fill="#000000">==</text>
</g>
<!-- Node5&#45;&gt;Node6 -->
<g id="edge9" class="edge">
<title>Node5&#45;&gt;Node6:f0</title>
<path fill="none" stroke="#000000" d="M308.3433,-457.2931C275.0692,-435.8308 227.4125,-407.3772 199.5683,-401.0032"/>
<polygon fill="#000000" stroke="#000000" points="199.9769,-397.5269 189.6073,-399.7 199.0688,-404.4677 199.9769,-397.5269"/>
</g>
<!-- Node9 -->
<g id="node11" class="node">
<title>Node9</title>
<polygon fill="none" stroke="#000000" points="248.5589,-362.9 248.5589,-412.5 344.6557,-412.5 344.6557,-362.9 248.5589,-362.9"/>
<text text-anchor="middle" x="296.6073" y="-395.9" font-family="Times,serif" font-size="14.00" fill="#000000">0x2041d8a0</text>
<polyline fill="none" stroke="#000000" points="248.5589,-387.7 344.6557,-387.7 "/>
<text text-anchor="middle" x="296.6073" y="-371.1" font-family="Times,serif" font-size="14.00" fill="#000000">COMPOUND</text>
</g>
<!-- Node5&#45;&gt;Node9 -->
<g id="edge10" class="edge">
<title>Node5&#45;&gt;Node9:f0</title>
<path fill="none" stroke="#000000" d="M354.6991,-457.0685C360.7451,-437.1421 365.7147,-411.3035 354.4809,-402.6611"/>
<polygon fill="#000000" stroke="#000000" points="355.1913,-399.2202 344.6073,-399.7 353.1804,-405.9251 355.1913,-399.2202"/>
</g>
<!-- Node13 -->
<g id="node16" class="node">
<title>Node13</title>
<polygon fill="none" stroke="#000000" points="403,-362.9 403,-412.5 488.2146,-412.5 488.2146,-362.9 403,-362.9"/>
<text text-anchor="middle" x="445.6073" y="-395.9" font-family="Times,serif" font-size="14.00" fill="#000000">0x2041da40</text>
<polyline fill="none" stroke="#000000" points="403,-387.7 488.2146,-387.7 "/>
<text text-anchor="middle" x="445.3946" y="-371.1" font-family="Times,serif" font-size="14.00" fill="#000000">==</text>
</g>
<!-- Node12&#45;&gt;Node13 -->
<g id="edge15" class="edge">
<title>Node12&#45;&gt;Node13:f0</title>
<path fill="none" stroke="#000000" d="M457.3901,-457.3473C452.648,-447.2628 448.1238,-435.1322 446.3713,-422.9268"/>
<polygon fill="#000000" stroke="#000000" points="449.8427,-422.4114 445.6073,-412.7 442.8621,-422.933 449.8427,-422.4114"/>
</g>
<!-- Node16 -->
<g id="node17" class="node">
<title>Node16</title>
<polygon fill="none" stroke="#000000" points="506.5589,-362.9 506.5589,-412.5 602.6557,-412.5 602.6557,-362.9 506.5589,-362.9"/>
<text text-anchor="middle" x="554.6073" y="-395.9" font-family="Times,serif" font-size="14.00" fill="#000000">0x2041db70</text>
<polyline fill="none" stroke="#000000" points="506.5589,-387.7 602.6557,-387.7 "/>
<text text-anchor="middle" x="554.6073" y="-371.1" font-family="Times,serif" font-size="14.00" fill="#000000">COMPOUND</text>
</g>
<!-- Node12&#45;&gt;Node16 -->
<g id="edge16" class="edge">
<title>Node12&#45;&gt;Node16:f0</title>
<path fill="none" stroke="#000000" d="M481.023,-457.0685C487.384,-440.3683 495.6005,-419.5153 501.1395,-408.113"/>
<polygon fill="#000000" stroke="#000000" points="504.0925,-409.9921 506.6073,-399.7 498.2232,-406.1775 504.0925,-409.9921"/>
</g>
<!-- Node20 -->
<g id="node22" class="node">
<title>Node20</title>
<polygon fill="none" stroke="#000000" points="620.6073,-362.9 620.6073,-412.5 706.6073,-412.5 706.6073,-362.9 620.6073,-362.9"/>
<text text-anchor="middle" x="663.6073" y="-395.9" font-family="Times,serif" font-size="14.00" fill="#000000">0x2041dd10</text>
<polyline fill="none" stroke="#000000" points="620.6073,-387.7 706.6073,-387.7 "/>
<text text-anchor="middle" x="663.5546" y="-371.1" font-family="Times,serif" font-size="14.00" fill="#000000">+</text>
</g>
<!-- Node19&#45;&gt;Node20 -->
<g id="edge21" class="edge">
<title>Node19&#45;&gt;Node20:f0</title>
<path fill="none" stroke="#000000" d="M608.6421,-449.1794C610.2893,-434.4578 612.5683,-418.2919 615.3826,-408.5739"/>
<polygon fill="#000000" stroke="#000000" points="618.5497,-410.0931 620.6073,-399.7 612.5176,-406.5416 618.5497,-410.0931"/>
</g>
<!-- Node7 -->
<g id="node12" class="node">
<title>Node7</title>
<polygon fill="none" stroke="#000000" points="0,-268.7 0,-317.5 85.2146,-317.5 85.2146,-268.7 0,-268.7"/>
<text text-anchor="middle" x="42.6073" y="-300.9" font-family="Times,serif" font-size="14.00" fill="#000000">0x2041d7c0</text>
<polyline fill="none" stroke="#000000" points="0,-292.7 85.2146,-292.7 "/>
</g>
<!-- Node6&#45;&gt;Node7 -->
<g id="edge11" class="edge">
<title>Node6&#45;&gt;Node7:f0</title>
<path fill="none" stroke="#000000" d="M122.4834,-362.7958C112.9955,-352.1522 102.5064,-339.2364 94.6073,-326.4 91.9984,-322.1605 92.2165,-317.0306 91.9671,-312.8676"/>
<polygon fill="#000000" stroke="#000000" points="94.6505,-310.6201 85.6073,-305.1 89.2344,-315.0547 94.6505,-310.6201"/>
</g>
<!-- Node8 -->
<g id="node13" class="node">
<title>Node8</title>
<polygon fill="none" stroke="#000000" points="103.6073,-268.3 103.6073,-317.9 189.6073,-317.9 189.6073,-268.3 103.6073,-268.3"/>
<text text-anchor="middle" x="146.6073" y="-301.3" font-family="Times,serif" font-size="14.00" fill="#000000">0x2041d830</text>
<polyline fill="none" stroke="#000000" points="103.6073,-293.1 189.6073,-293.1 "/>
<text text-anchor="middle" x="146.6073" y="-276.5" font-family="Times,serif" font-size="14.00" fill="#000000">0</text>
</g>
<!-- Node6&#45;&gt;Node8 -->
<g id="edge12" class="edge">
<title>Node6&#45;&gt;Node8:f0</title>
<path fill="none" stroke="#000000" d="M146.6073,-362.8967C146.6073,-352.6205 146.6073,-340.3335 146.6073,-328.4169"/>
<polygon fill="#000000" stroke="#000000" points="150.1074,-328.1 146.6073,-318.1 143.1074,-328.1 150.1074,-328.1"/>
</g>
<!-- Node10 -->
<g id="node14" class="node">
<title>Node10</title>
<polygon fill="none" stroke="#000000" points="207.777,-260.3 207.777,-325.9 291.4376,-325.9 291.4376,-260.3 207.777,-260.3"/>
<text text-anchor="middle" x="249.6073" y="-309.3" font-family="Times,serif" font-size="14.00" fill="#000000">0x2041d8f0</text>
<polyline fill="none" stroke="#000000" points="207.777,-301.1 291.4376,-301.1 "/>
<text text-anchor="middle" x="249.1599" y="-268.5" font-family="Times,serif" font-size="14.00" fill="#000000">eturn</text>
</g>
<!-- Node9&#45;&gt;Node10 -->
<g id="edge13" class="edge">
<title>Node9&#45;&gt;Node10:f0</title>
<path fill="none" stroke="#000000" d="M297.2282,-362.8593C297.3564,-348.957 297.1045,-332.4458 295.5673,-322.3738"/>
<polygon fill="#000000" stroke="#000000" points="298.7532,-320.9222 291.6073,-313.1 292.3156,-323.6711 298.7532,-320.9222"/>
</g>
<!-- Node11 -->
<g id="node15" class="node">
<title>Node11</title>
<polygon fill="none" stroke="#000000" points="206.6073,-173.7 206.6073,-223.3 292.6073,-223.3 292.6073,-173.7 206.6073,-173.7"/>
<text text-anchor="middle" x="249.6073" y="-206.7" font-family="Times,serif" font-size="14.00" fill="#000000">0x2041d940</text>
<polyline fill="none" stroke="#000000" points="206.6073,-198.5 292.6073,-198.5 "/>
<text text-anchor="middle" x="249.6073" y="-181.9" font-family="Times,serif" font-size="14.00" fill="#000000">0</text>
</g>
<!-- Node10&#45;&gt;Node11 -->
<g id="edge14" class="edge">
<title>Node10&#45;&gt;Node11:f0</title>
<path fill="none" stroke="#000000" d="M249.6073,-260.1736C249.6073,-251.7512 249.6073,-242.5228 249.6073,-233.5175"/>
<polygon fill="#000000" stroke="#000000" points="253.1074,-233.5 249.6073,-223.5 246.1074,-233.5 253.1074,-233.5"/>
</g>
<!-- Node14 -->
<g id="node18" class="node">
<title>Node14</title>
<polygon fill="none" stroke="#000000" points="309,-268.7 309,-317.5 394.2146,-317.5 394.2146,-268.7 309,-268.7"/>
<text text-anchor="middle" x="351.6073" y="-300.9" font-family="Times,serif" font-size="14.00" fill="#000000">0x2041da90</text>
<polyline fill="none" stroke="#000000" points="309,-292.7 394.2146,-292.7 "/>
</g>
<!-- Node13&#45;&gt;Node14 -->
<g id="edge17" class="edge">
<title>Node13&#45;&gt;Node14:f0</title>
<path fill="none" stroke="#000000" d="M426.8483,-362.7776C419.1253,-351.9209 410.4137,-338.852 403.6073,-326.4 401.2197,-322.032 401.4447,-316.8981 401.1436,-312.7651"/>
<polygon fill="#000000" stroke="#000000" points="403.7591,-310.4381 394.6073,-305.1 398.4327,-314.9801 403.7591,-310.4381"/>
</g>
<!-- Node15 -->
<g id="node19" class="node">
<title>Node15</title>
<polygon fill="none" stroke="#000000" points="412.6073,-268.3 412.6073,-317.9 498.6073,-317.9 498.6073,-268.3 412.6073,-268.3"/>
<text text-anchor="middle" x="455.6073" y="-301.3" font-family="Times,serif" font-size="14.00" fill="#000000">0x2041db00</text>
<polyline fill="none" stroke="#000000" points="412.6073,-293.1 498.6073,-293.1 "/>
<text text-anchor="middle" x="455.6073" y="-276.5" font-family="Times,serif" font-size="14.00" fill="#000000">1</text>
</g>
<!-- Node13&#45;&gt;Node15 -->
<g id="edge18" class="edge">
<title>Node13&#45;&gt;Node15:f0</title>
<path fill="none" stroke="#000000" d="M450.9586,-362.6964C452.7975,-352.4884 454.5727,-340.3022 455.2827,-328.4137"/>
<polygon fill="#000000" stroke="#000000" points="458.7909,-328.2052 455.6073,-318.1 451.7944,-327.9849 458.7909,-328.2052"/>
</g>
<!-- Node17 -->
<g id="node20" class="node">
<title>Node17</title>
<polygon fill="none" stroke="#000000" points="517,-260.3 517,-325.9 602.2146,-325.9 602.2146,-260.3 517,-260.3"/>
<text text-anchor="middle" x="559.6073" y="-309.3" font-family="Times,serif" font-size="14.00" fill="#000000">0x2041dbc0</text>
<polyline fill="none" stroke="#000000" points="517,-301.1 602.2146,-301.1 "/>
<text text-anchor="middle" x="559.3829" y="-268.5" font-family="Times,serif" font-size="14.00" fill="#000000">eturn</text>
</g>
<!-- Node16&#45;&gt;Node17 -->
<g id="edge19" class="edge">
<title>Node16&#45;&gt;Node17:f0</title>
<path fill="none" stroke="#000000" d="M557.5447,-362.8602C558.3355,-354.7134 559.066,-345.3999 559.4064,-336.2654"/>
<polygon fill="#000000" stroke="#000000" points="562.9089,-336.1672 559.6073,-326.1 555.9103,-336.0288 562.9089,-336.1672"/>
</g>
<!-- Node18 -->
<g id="node21" class="node">
<title>Node18</title>
<polygon fill="none" stroke="#000000" points="517,-173.7 517,-223.3 602.2146,-223.3 602.2146,-173.7 517,-173.7"/>
<text text-anchor="middle" x="559.6073" y="-206.7" font-family="Times,serif" font-size="14.00" fill="#000000">0x2041dc10</text>
<polyline fill="none" stroke="#000000" points="517,-198.5 602.2146,-198.5 "/>
<text text-anchor="middle" x="559.5" y="-181.9" font-family="Times,serif" font-size="14.00" fill="#000000">1</text>
</g>
<!-- Node17&#45;&gt;Node18 -->
<g id="edge20" class="edge">
<title>Node17&#45;&gt;Node18:f0</title>
<path fill="none" stroke="#000000" d="M559.6073,-260.1736C559.6073,-251.7512 559.6073,-242.5228 559.6073,-233.5175"/>
<polygon fill="#000000" stroke="#000000" points="563.1074,-233.5 559.6073,-223.5 556.1074,-233.5 563.1074,-233.5"/>
</g>
<!-- Node21 -->
<g id="node23" class="node">
<title>Node21</title>
<polygon fill="none" stroke="#000000" points="620.6073,-268.3 620.6073,-317.9 706.6073,-317.9 706.6073,-268.3 620.6073,-268.3"/>
<text text-anchor="middle" x="663.6073" y="-301.3" font-family="Times,serif" font-size="14.00" fill="#000000">0x2041dd60</text>
<polyline fill="none" stroke="#000000" points="620.6073,-293.1 706.6073,-293.1 "/>
<text text-anchor="middle" x="663.3829" y="-276.5" font-family="Times,serif" font-size="14.00" fill="#000000">fib</text>
</g>
<!-- Node20&#45;&gt;Node21 -->
<g id="edge22" class="edge">
<title>Node20&#45;&gt;Node21:f0</title>
<path fill="none" stroke="#000000" d="M663.6073,-362.8967C663.6073,-352.6205 663.6073,-340.3335 663.6073,-328.4169"/>
<polygon fill="#000000" stroke="#000000" points="667.1074,-328.1 663.6073,-318.1 660.1074,-328.1 667.1074,-328.1"/>
</g>
<!-- Node26 -->
<g id="node24" class="node">
<title>Node26</title>
<polygon fill="none" stroke="#000000" points="724.777,-268.3 724.777,-317.9 808.4376,-317.9 808.4376,-268.3 724.777,-268.3"/>
<text text-anchor="middle" x="766.6073" y="-301.3" font-family="Times,serif" font-size="14.00" fill="#000000">0x2041df50</text>
<polyline fill="none" stroke="#000000" points="724.777,-293.1 808.4376,-293.1 "/>
<text text-anchor="middle" x="766.5526" y="-276.5" font-family="Times,serif" font-size="14.00" fill="#000000">fib</text>
</g>
<!-- Node20&#45;&gt;Node26 -->
<g id="edge23" class="edge">
<title>Node20&#45;&gt;Node26:f0</title>
<path fill="none" stroke="#000000" d="M687.7312,-362.7958C697.2191,-352.1522 707.7082,-339.2364 715.6073,-326.4 718.2162,-322.1605 717.9981,-317.0306 718.2475,-312.8676"/>
<polygon fill="#000000" stroke="#000000" points="720.9802,-315.0547 724.6073,-305.1 715.5641,-310.6201 720.9802,-315.0547"/>
</g>
<!-- Node22 -->
<g id="node25" class="node">
<title>Node22</title>
<polygon fill="none" stroke="#000000" points="620.6073,-173.7 620.6073,-223.3 706.6073,-223.3 706.6073,-173.7 620.6073,-173.7"/>
<text text-anchor="middle" x="663.6073" y="-206.7" font-family="Times,serif" font-size="14.00" fill="#000000">0x2041ddb0</text>
<polyline fill="none" stroke="#000000" points="620.6073,-198.5 706.6073,-198.5 "/>
<text text-anchor="middle" x="663.3822" y="-181.9" font-family="Times,serif" font-size="14.00" fill="#000000">ARG</text>
</g>
<!-- Node21&#45;&gt;Node22 -->
<g id="edge24" class="edge">
<title>Node21&#45;&gt;Node22:f0</title>
<path fill="none" stroke="#000000" d="M663.6073,-268.2967C663.6073,-258.0205 663.6073,-245.7335 663.6073,-233.8169"/>
<polygon fill="#000000" stroke="#000000" points="667.1074,-233.5 663.6073,-223.5 660.1074,-233.5 667.1074,-233.5"/>
</g>
<!-- Node27 -->
<g id="node29" class="node">
<title>Node27</title>
<polygon fill="none" stroke="#000000" points="725.1697,-173.7 725.1697,-223.3 808.0449,-223.3 808.0449,-173.7 725.1697,-173.7"/>
<text text-anchor="middle" x="766.6073" y="-206.7" font-family="Times,serif" font-size="14.00" fill="#000000">0x2041dfa0</text>
<polyline fill="none" stroke="#000000" points="725.1697,-198.5 808.0449,-198.5 "/>
<text text-anchor="middle" x="766.4446" y="-181.9" font-family="Times,serif" font-size="14.00" fill="#000000">ARG</text>
</g>
<!-- Node26&#45;&gt;Node27 -->
<g id="edge28" class="edge">
<title>Node26&#45;&gt;Node27:f0</title>
<path fill="none" stroke="#000000" d="M766.6073,-268.2967C766.6073,-258.0205 766.6073,-245.7335 766.6073,-233.8169"/>
<polygon fill="#000000" stroke="#000000" points="770.1074,-233.5 766.6073,-223.5 763.1074,-233.5 770.1074,-233.5"/>
</g>
<!-- Node23 -->
<g id="node26" class="node">
<title>Node23</title>
<polygon fill="none" stroke="#000000" points="621,-87.1 621,-136.7 706.2146,-136.7 706.2146,-87.1 621,-87.1"/>
<text text-anchor="middle" x="663.6073" y="-120.1" font-family="Times,serif" font-size="14.00" fill="#000000">0x2041de00</text>
<polyline fill="none" stroke="#000000" points="621,-111.9 706.2146,-111.9 "/>
<text text-anchor="middle" x="663.3303" y="-95.3" font-family="Times,serif" font-size="14.00" fill="#000000">&#45;</text>
</g>
<!-- Node22&#45;&gt;Node23 -->
<g id="edge25" class="edge">
<title>Node22&#45;&gt;Node23:f0</title>
<path fill="none" stroke="#000000" d="M663.6073,-173.623C663.6073,-165.471 663.6073,-156.1585 663.6073,-147.0402"/>
<polygon fill="#000000" stroke="#000000" points="667.1074,-146.9 663.6073,-136.9 660.1074,-146.9 667.1074,-146.9"/>
</g>
<!-- Node24 -->
<g id="node27" class="node">
<title>Node24</title>
<polygon fill="none" stroke="#000000" points="518,-.9 518,-49.7 603.2146,-49.7 603.2146,-.9 518,-.9"/>
<text text-anchor="middle" x="560.6073" y="-33.1" font-family="Times,serif" font-size="14.00" fill="#000000">0x2041de50</text>
<polyline fill="none" stroke="#000000" points="518,-24.9 603.2146,-24.9 "/>
</g>
<!-- Node23&#45;&gt;Node24 -->
<g id="edge26" class="edge">
<title>Node23&#45;&gt;Node24:f0</title>
<path fill="none" stroke="#000000" d="M641.9419,-87.0035C632.653,-76.0412 621.8387,-62.885 612.6073,-50.6 611.2674,-48.8169 610.583,-46.8494 610.0575,-44.9869"/>
<polygon fill="#000000" stroke="#000000" points="612.7164,-42.7106 603.6073,-37.3 607.3542,-47.2102 612.7164,-42.7106"/>
</g>
<!-- Node25 -->
<g id="node28" class="node">
<title>Node25</title>
<polygon fill="none" stroke="#000000" points="621.3927,-.5 621.3927,-50.1 705.8219,-50.1 705.8219,-.5 621.3927,-.5"/>
<text text-anchor="middle" x="663.6073" y="-33.5" font-family="Times,serif" font-size="14.00" fill="#000000">0x2041dea0</text>
<polyline fill="none" stroke="#000000" points="621.3927,-25.3 705.8219,-25.3 "/>
<text text-anchor="middle" x="663.3927" y="-8.7" font-family="Times,serif" font-size="14.00" fill="#000000">1</text>
</g>
<!-- Node23&#45;&gt;Node25 -->
<g id="edge27" class="edge">
<title>Node23&#45;&gt;Node25:f0</title>
<path fill="none" stroke="#000000" d="M663.6073,-87.023C663.6073,-78.871 663.6073,-69.5585 663.6073,-60.4402"/>
<polygon fill="#000000" stroke="#000000" points="667.1074,-60.3 663.6073,-50.3 660.1074,-60.3 667.1074,-60.3"/>
</g>
<!-- Node28 -->
<g id="node30" class="node">
<title>Node28</title>
<polygon fill="none" stroke="#000000" points="725.9467,-87.1 725.9467,-136.7 807.2679,-136.7 807.2679,-87.1 725.9467,-87.1"/>
<text text-anchor="middle" x="766.6073" y="-120.1" font-family="Times,serif" font-size="14.00" fill="#000000">0x2041dff0</text>
<polyline fill="none" stroke="#000000" points="725.9467,-111.9 807.2679,-111.9 "/>
<text text-anchor="middle" x="766.277" y="-95.3" font-family="Times,serif" font-size="14.00" fill="#000000">&#45;</text>
</g>
<!-- Node27&#45;&gt;Node28 -->
<g id="edge29" class="edge">
<title>Node27&#45;&gt;Node28:f0</title>
<path fill="none" stroke="#000000" d="M766.6073,-173.623C766.6073,-165.471 766.6073,-156.1585 766.6073,-147.0402"/>
<polygon fill="#000000" stroke="#000000" points="770.1074,-146.9 766.6073,-136.9 763.1074,-146.9 770.1074,-146.9"/>
</g>
<!-- Node29 -->
<g id="node31" class="node">
<title>Node29</title>
<polygon fill="none" stroke="#000000" points="724,-.9 724,-49.7 809.2146,-49.7 809.2146,-.9 724,-.9"/>
<text text-anchor="middle" x="766.6073" y="-33.1" font-family="Times,serif" font-size="14.00" fill="#000000">0x2041e040</text>
<polyline fill="none" stroke="#000000" points="724,-24.9 809.2146,-24.9 "/>
</g>
<!-- Node28&#45;&gt;Node29 -->
<g id="edge30" class="edge">
<title>Node28&#45;&gt;Node29:f0</title>
<path fill="none" stroke="#000000" d="M766.6073,-86.9213C766.6073,-78.5033 766.6073,-68.8416 766.6073,-59.3958"/>
<polygon fill="#000000" stroke="#000000" points="770.1074,-59.3 766.6073,-49.3 763.1074,-59.3 770.1074,-59.3"/>
</g>
<!-- Node30 -->
<g id="node32" class="node">
<title>Node30</title>
<polygon fill="none" stroke="#000000" points="827,-.5 827,-50.1 912.2146,-50.1 912.2146,-.5 827,-.5"/>
<text text-anchor="middle" x="869.6073" y="-33.5" font-family="Times,serif" font-size="14.00" fill="#000000">0x2041e0b0</text>
<polyline fill="none" stroke="#000000" points="827,-25.3 912.2146,-25.3 "/>
<text text-anchor="middle" x="869.5" y="-8.7" font-family="Times,serif" font-size="14.00" fill="#000000">2</text>
</g>
<!-- Node28&#45;&gt;Node30 -->
<g id="edge31" class="edge">
<title>Node28&#45;&gt;Node30:f0</title>
<path fill="none" stroke="#000000" d="M789.3215,-86.9968C798.7968,-76.1433 809.6563,-63.0716 818.6073,-50.6 819.7385,-49.0238 820.3206,-47.2822 820.7264,-45.5929"/>
<polygon fill="#000000" stroke="#000000" points="823.6776,-47.4817 826.6073,-37.3 817.9677,-43.4325 823.6776,-47.4817"/>
</g>
<!-- Node34 -->
<g id="node35" class="node">
<title>Node34</title>
<polygon fill="none" stroke="#000000" points="723.3927,-457.5 723.3927,-507.1 807.8219,-507.1 807.8219,-457.5 723.3927,-457.5"/>
<text text-anchor="middle" x="765.6073" y="-490.5" font-family="Times,serif" font-size="14.00" fill="#000000">0x2041e2a0</text>
<polyline fill="none" stroke="#000000" points="723.3927,-482.3 807.8219,-482.3 "/>
<text text-anchor="middle" x="765.5526" y="-465.7" font-family="Times,serif" font-size="14.00" fill="#000000">data</text>
</g>
<!-- Node33&#45;&gt;Node34 -->
<g id="edge34" class="edge">
<title>Node33&#45;&gt;Node34:f0</title>
<path fill="none" stroke="#000000" d="M816.2211,-551.6685C815.7378,-535.3478 814.6528,-515.061 812.2209,-503.505"/>
<polygon fill="#000000" stroke="#000000" points="815.2171,-501.6717 807.6073,-494.3 808.9591,-504.8083 815.2171,-501.6717"/>
</g>
<!-- Node36 -->
<g id="node36" class="node">
<title>Node36</title>
<polygon fill="none" stroke="#000000" points="826,-457.5 826,-507.1 911.2146,-507.1 911.2146,-457.5 826,-457.5"/>
<text text-anchor="middle" x="868.6073" y="-490.5" font-family="Times,serif" font-size="14.00" fill="#000000">0x2041e380</text>
<polyline fill="none" stroke="#000000" points="826,-482.3 911.2146,-482.3 "/>
<text text-anchor="middle" x="868.4453" y="-465.7" font-family="Times,serif" font-size="14.00" fill="#000000">in</text>
</g>
<!-- Node33&#45;&gt;Node36 -->
<g id="edge35" class="edge">
<title>Node33&#45;&gt;Node36:f0</title>
<path fill="none" stroke="#000000" d="M816.9935,-551.6685C817.4768,-535.3478 818.5618,-515.061 820.9937,-503.505"/>
<polygon fill="#000000" stroke="#000000" points="824.2555,-504.8083 825.6073,-494.3 817.9975,-501.6717 824.2555,-504.8083"/>
</g>
<!-- Node39 -->
<g id="node37" class="node">
<title>Node39</title>
<polygon fill="none" stroke="#000000" points="929,-457.5 929,-507.1 1014.2146,-507.1 1014.2146,-457.5 929,-457.5"/>
<text text-anchor="middle" x="971.6073" y="-490.5" font-family="Times,serif" font-size="14.00" fill="#000000">0x2041e4d0</text>
<polyline fill="none" stroke="#000000" points="929,-482.3 1014.2146,-482.3 "/>
<text text-anchor="middle" x="971.4453" y="-465.7" font-family="Times,serif" font-size="14.00" fill="#000000">out</text>
</g>
<!-- Node33&#45;&gt;Node39 -->
<g id="edge36" class="edge">
<title>Node33&#45;&gt;Node39:f0</title>
<path fill="none" stroke="#000000" d="M864.7681,-557.1875C884.2967,-547.1773 905.7101,-533.332 920.6073,-515.6 923.6564,-511.9707 923.3828,-507.0637 923.2732,-502.8743"/>
<polygon fill="#000000" stroke="#000000" points="926.2968,-504.6398 928.6073,-494.3 920.3531,-500.9422 926.2968,-504.6398"/>
</g>
<!-- Node35 -->
<g id="node38" class="node">
<title>Node35</title>
<polygon fill="none" stroke="#000000" points="724.1697,-363.3 724.1697,-412.1 807.0449,-412.1 807.0449,-363.3 724.1697,-363.3"/>
<text text-anchor="middle" x="765.6073" y="-395.5" font-family="Times,serif" font-size="14.00" fill="#000000">0x2041e2f0</text>
<polyline fill="none" stroke="#000000" points="724.1697,-387.3 807.0449,-387.3 "/>
</g>
<!-- Node34&#45;&gt;Node35 -->
<g id="edge37" class="edge">
<title>Node34&#45;&gt;Node35:f0</title>
<path fill="none" stroke="#000000" d="M765.6073,-457.4684C765.6073,-446.8975 765.6073,-434.1853 765.6073,-421.8823"/>
<polygon fill="#000000" stroke="#000000" points="769.1074,-421.7 765.6073,-411.7 762.1074,-421.7 769.1074,-421.7"/>
</g>
<!-- Node37 -->
<g id="node39" class="node">
<title>Node37</title>
<polygon fill="none" stroke="#000000" points="826,-362.9 826,-412.5 911.2146,-412.5 911.2146,-362.9 826,-362.9"/>
<text text-anchor="middle" x="868.6073" y="-395.9" font-family="Times,serif" font-size="14.00" fill="#000000">0x2041e3d0</text>
<polyline fill="none" stroke="#000000" points="826,-387.7 911.2146,-387.7 "/>
<text text-anchor="middle" x="868.2749" y="-371.1" font-family="Times,serif" font-size="14.00" fill="#000000">ARG</text>
</g>
<!-- Node36&#45;&gt;Node37 -->
<g id="edge38" class="edge">
<title>Node36&#45;&gt;Node37:f0</title>
<path fill="none" stroke="#000000" d="M868.6073,-457.4967C868.6073,-447.2205 868.6073,-434.9335 868.6073,-423.0169"/>
<polygon fill="#000000" stroke="#000000" points="872.1074,-422.7 868.6073,-412.7 865.1074,-422.7 872.1074,-422.7"/>
</g>
<!-- Node40 -->
<g id="node41" class="node">
<title>Node40</title>
<polygon fill="none" stroke="#000000" points="929,-362.9 929,-412.5 1014.2146,-412.5 1014.2146,-362.9 929,-362.9"/>
<text text-anchor="middle" x="971.6073" y="-395.9" font-family="Times,serif" font-size="14.00" fill="#000000">0x2041e520</text>
<polyline fill="none" stroke="#000000" points="929,-387.7 1014.2146,-387.7 "/>
<text text-anchor="middle" x="971.2749" y="-371.1" font-family="Times,serif" font-size="14.00" fill="#000000">ARG</text>
</g>
<!-- Node39&#45;&gt;Node40 -->
<g id="edge40" class="edge">
<title>Node39&#45;&gt;Node40:f0</title>
<path fill="none" stroke="#000000" d="M971.6073,-457.4967C971.6073,-447.2205 971.6073,-434.9335 971.6073,-423.0169"/>
<polygon fill="#000000" stroke="#000000" points="975.1074,-422.7 971.6073,-412.7 968.1074,-422.7 975.1074,-422.7"/>
</g>
<!-- Node38 -->
<g id="node40" class="node">
<title>Node38</title>
<polygon fill="none" stroke="#000000" points="826,-268.7 826,-317.5 911.2146,-317.5 911.2146,-268.7 826,-268.7"/>
<text text-anchor="middle" x="868.6073" y="-300.9" font-family="Times,serif" font-size="14.00" fill="#000000">0x2041e420</text>
<polyline fill="none" stroke="#000000" points="826,-292.7 911.2146,-292.7 "/>
</g>
<!-- Node37&#45;&gt;Node38 -->
<g id="edge39" class="edge">
<title>Node37&#45;&gt;Node38:f0</title>
<path fill="none" stroke="#000000" d="M868.6073,-362.8684C868.6073,-352.2975 868.6073,-339.5853 868.6073,-327.2823"/>
<polygon fill="#000000" stroke="#000000" points="872.1074,-327.1 868.6073,-317.1 865.1074,-327.1 872.1074,-327.1"/>
</g>
<!-- Node41 -->
<g id="node42" class="node">
<title>Node41</title>
<polygon fill="none" stroke="#000000" points="929,-268.3 929,-317.9 1014.2146,-317.9 1014.2146,-268.3 929,-268.3"/>
<text text-anchor="middle" x="971.6073" y="-301.3" font-family="Times,serif" font-size="14.00" fill="#000000">0x2041e570</text>
<polyline fill="none" stroke="#000000" points="929,-293.1 1014.2146,-293.1 "/>
<text text-anchor="middle" x="971.2756" y="-276.5" font-family="Times,serif" font-size="14.00" fill="#000000">fib</text>
</g>
<!-- Node40&#45;&gt;Node41 -->
<g id="edge41" class="edge">
<title>Node40&#45;&gt;Node41:f0</title>
<path fill="none" stroke="#000000" d="M971.6073,-362.8967C971.6073,-352.6205 971.6073,-340.3335 971.6073,-328.4169"/>
<polygon fill="#000000" stroke="#000000" points="975.1074,-328.1 971.6073,-318.1 968.1074,-328.1 975.1074,-328.1"/>
</g>
<!-- Node42 -->
<g id="node43" class="node">
<title>Node42</title>
<polygon fill="none" stroke="#000000" points="929.3927,-173.7 929.3927,-223.3 1013.8219,-223.3 1013.8219,-173.7 929.3927,-173.7"/>
<text text-anchor="middle" x="971.6073" y="-206.7" font-family="Times,serif" font-size="14.00" fill="#000000">0x2041e5c0</text>
<polyline fill="none" stroke="#000000" points="929.3927,-198.5 1013.8219,-198.5 "/>
<text text-anchor="middle" x="971.1676" y="-181.9" font-family="Times,serif" font-size="14.00" fill="#000000">ARG</text>
</g>
<!-- Node41&#45;&gt;Node42 -->
<g id="edge42" class="edge">
<title>Node41&#45;&gt;Node42:f0</title>
<path fill="none" stroke="#000000" d="M971.6073,-268.2967C971.6073,-258.0205 971.6073,-245.7335 971.6073,-233.8169"/>
<polygon fill="#000000" stroke="#000000" points="975.1074,-233.5 971.6073,-223.5 968.1074,-233.5 975.1074,-233.5"/>
</g>
<!-- Node43 -->
<g id="node44" class="node">
<title>Node43</title>
<polygon fill="none" stroke="#000000" points="929,-87.5 929,-136.3 1014.2146,-136.3 1014.2146,-87.5 929,-87.5"/>
<text text-anchor="middle" x="971.6073" y="-119.7" font-family="Times,serif" font-size="14.00" fill="#000000">0x2041e610</text>
<polyline fill="none" stroke="#000000" points="929,-111.5 1014.2146,-111.5 "/>
</g>
<!-- Node42&#45;&gt;Node43 -->
<g id="edge43" class="edge">
<title>Node42&#45;&gt;Node43:f0</title>
<path fill="none" stroke="#000000" d="M971.6073,-173.5213C971.6073,-165.1033 971.6073,-155.4416 971.6073,-145.9958"/>
<polygon fill="#000000" stroke="#000000" points="975.1074,-145.9 971.6073,-135.9 968.1074,-145.9 975.1074,-145.9"/>
</g>
</g>
</svg>
