<?xml version="1.0" encoding="UTF-8" standalone="no"?>
<!DOCTYPE svg PUBLIC "-//W3C//DTD SVG 1.1//EN"
 "http://www.w3.org/Graphics/SVG/1.1/DTD/svg11.dtd">
<!-- Generated by graphviz version 2.40.1 (20161225.0304)
 -->
<!-- Title: G Pages: 1 -->
<svg width="2026pt" height="767pt"
 viewBox="0.00 0.00 2026.09 767.40" xmlns="http://www.w3.org/2000/svg" xmlns:xlink="http://www.w3.org/1999/xlink">
<g id="graph0" class="graph" transform="scale(1 1) rotate(0) translate(4 763.4)">
<title>G</title>
<polygon fill="#ffffff" stroke="transparent" points="-4,4 -4,-763.4 2022.0898,-763.4 2022.0898,4 -4,4"/>
<!-- Node0 -->
<g id="node1" class="node">
<title>Node0</title>
<polygon fill="none" stroke="#000000" points="210.8303,-709.3 210.8303,-758.9 294.4741,-758.9 294.4741,-709.3 210.8303,-709.3"/>
<text text-anchor="middle" x="252.6522" y="-742.3" font-family="Times,serif" font-size="14.00" fill="#000000">0x080ccde0</text>
<polyline fill="none" stroke="#000000" points="210.8303,-734.1 294.4741,-734.1 "/>
<text text-anchor="middle" x="252.3815" y="-717.5" font-family="Times,serif" font-size="14.00" fill="#000000">ROOT</text>
</g>
<!-- Node1 -->
<g id="node2" class="node">
<title>Node1</title>
<polygon fill="none" stroke="#000000" points="156.8303,-622.7 156.8303,-672.3 240.4741,-672.3 240.4741,-622.7 156.8303,-622.7"/>
<text text-anchor="middle" x="198.6522" y="-655.7" font-family="Times,serif" font-size="14.00" fill="#000000">0x080cce30</text>
<polyline fill="none" stroke="#000000" points="156.8303,-647.5 240.4741,-647.5 "/>
<text text-anchor="middle" x="198.3829" y="-630.9" font-family="Times,serif" font-size="14.00" fill="#000000">inc</text>
</g>
<!-- Node0&#45;&gt;Node1 -->
<g id="edge1" class="edge">
<title>Node0&#45;&gt;Node1:f0</title>
<path fill="none" stroke="#000000" d="M257.8964,-709.2593C260.4699,-691.7966 261.0714,-670.2177 250.4771,-662.4546"/>
<polygon fill="#000000" stroke="#000000" points="251.2365,-659.0282 240.6522,-659.5 249.2206,-665.7316 251.2365,-659.0282"/>
</g>
<!-- Node9 -->
<g id="node3" class="node">
<title>Node9</title>
<polygon fill="none" stroke="#000000" points="407.0449,-622.7 407.0449,-672.3 492.2595,-672.3 492.2595,-622.7 407.0449,-622.7"/>
<text text-anchor="middle" x="449.6522" y="-655.7" font-family="Times,serif" font-size="14.00" fill="#000000">0x080cd150</text>
<polyline fill="none" stroke="#000000" points="407.0449,-647.5 492.2595,-647.5 "/>
<text text-anchor="middle" x="449.5428" y="-630.9" font-family="Times,serif" font-size="14.00" fill="#000000">main</text>
</g>
<!-- Node0&#45;&gt;Node9 -->
<g id="edge2" class="edge">
<title>Node0&#45;&gt;Node9:f0</title>
<path fill="none" stroke="#000000" d="M283.0061,-709.2593C310.5138,-689.1263 353.2591,-663.5221 396.5363,-659.9266"/>
<polygon fill="#000000" stroke="#000000" points="396.8086,-663.4183 406.6522,-659.5 396.5136,-656.4245 396.8086,-663.4183"/>
</g>
<!-- Node2 -->
<g id="node4" class="node">
<title>Node2</title>
<polygon fill="none" stroke="#000000" points="48.8303,-536.1 48.8303,-585.7 132.4741,-585.7 132.4741,-536.1 48.8303,-536.1"/>
<text text-anchor="middle" x="90.6522" y="-569.1" font-family="Times,serif" font-size="14.00" fill="#000000">0x080cce80</text>
<polyline fill="none" stroke="#000000" points="48.8303,-560.9 132.4741,-560.9 "/>
<text text-anchor="middle" x="90.6052" y="-544.3" font-family="Times,serif" font-size="14.00" fill="#000000">ARG</text>
</g>
<!-- Node1&#45;&gt;Node2 -->
<g id="edge3" class="edge">
<title>Node1&#45;&gt;Node2:f0</title>
<path fill="none" stroke="#000000" d="M173.8906,-622.6343C163.5273,-611.7872 151.6039,-598.71 141.6522,-586.2 140.2637,-584.4545 139.5611,-582.5011 139.0335,-580.6402"/>
<polygon fill="#000000" stroke="#000000" points="141.714,-578.3895 132.6522,-572.9 136.3129,-582.8424 141.714,-578.3895"/>
</g>
<!-- Node4 -->
<g id="node5" class="node">
<title>Node4</title>
<polygon fill="none" stroke="#000000" points="150.6038,-536.1 150.6038,-585.7 246.7006,-585.7 246.7006,-536.1 150.6038,-536.1"/>
<text text-anchor="middle" x="198.6522" y="-569.1" font-family="Times,serif" font-size="14.00" fill="#000000">0x080ccf40</text>
<polyline fill="none" stroke="#000000" points="150.6038,-560.9 246.7006,-560.9 "/>
<text text-anchor="middle" x="198.6522" y="-544.3" font-family="Times,serif" font-size="14.00" fill="#000000">COMPOUND</text>
</g>
<!-- Node1&#45;&gt;Node4 -->
<g id="edge4" class="edge">
<title>Node1&#45;&gt;Node4:f0</title>
<path fill="none" stroke="#000000" d="M198.6522,-622.623C198.6522,-614.471 198.6522,-605.1585 198.6522,-596.0402"/>
<polygon fill="#000000" stroke="#000000" points="202.1523,-595.9 198.6522,-585.9 195.1523,-595.9 202.1523,-595.9"/>
</g>
<!-- Node10 -->
<g id="node11" class="node">
<title>Node10</title>
<polygon fill="none" stroke="#000000" points="407.4376,-536.1 407.4376,-585.7 491.8668,-585.7 491.8668,-536.1 407.4376,-536.1"/>
<text text-anchor="middle" x="449.6522" y="-569.1" font-family="Times,serif" font-size="14.00" fill="#000000">0x080cd1a0</text>
<polyline fill="none" stroke="#000000" points="407.4376,-560.9 491.8668,-560.9 "/>
<text text-anchor="middle" x="449.2125" y="-544.3" font-family="Times,serif" font-size="14.00" fill="#000000">ARG</text>
</g>
<!-- Node9&#45;&gt;Node10 -->
<g id="edge10" class="edge">
<title>Node9&#45;&gt;Node10:f0</title>
<path fill="none" stroke="#000000" d="M449.6522,-622.623C449.6522,-614.471 449.6522,-605.1585 449.6522,-596.0402"/>
<polygon fill="#000000" stroke="#000000" points="453.1523,-595.9 449.6522,-585.9 446.1523,-595.9 453.1523,-595.9"/>
</g>
<!-- Node11 -->
<g id="node12" class="node">
<title>Node11</title>
<polygon fill="none" stroke="#000000" points="913.6038,-536.1 913.6038,-585.7 1009.7006,-585.7 1009.7006,-536.1 913.6038,-536.1"/>
<text text-anchor="middle" x="961.6522" y="-569.1" font-family="Times,serif" font-size="14.00" fill="#000000">0x080cd210</text>
<polyline fill="none" stroke="#000000" points="913.6038,-560.9 1009.7006,-560.9 "/>
<text text-anchor="middle" x="961.6522" y="-544.3" font-family="Times,serif" font-size="14.00" fill="#000000">COMPOUND</text>
</g>
<!-- Node9&#45;&gt;Node11 -->
<g id="edge11" class="edge">
<title>Node9&#45;&gt;Node11:f0</title>
<path fill="none" stroke="#000000" d="M492.4618,-635.9256C572.1014,-615.422 748.9813,-574.698 903.5074,-572.9576"/>
<polygon fill="#000000" stroke="#000000" points="903.6723,-576.4568 913.6522,-572.9 903.6324,-569.457 903.6723,-576.4568"/>
</g>
<!-- Node3 -->
<g id="node6" class="node">
<title>Node3</title>
<polygon fill="none" stroke="#000000" points="48.8303,-441.5 48.8303,-491.1 132.4741,-491.1 132.4741,-441.5 48.8303,-441.5"/>
<text text-anchor="middle" x="90.6522" y="-474.5" font-family="Times,serif" font-size="14.00" fill="#000000">0x080cced0</text>
<polyline fill="none" stroke="#000000" points="48.8303,-466.3 132.4741,-466.3 "/>
<text text-anchor="middle" x="90.2756" y="-449.7" font-family="Times,serif" font-size="14.00" fill="#000000">i</text>
</g>
<!-- Node2&#45;&gt;Node3 -->
<g id="edge5" class="edge">
<title>Node2&#45;&gt;Node3:f0</title>
<path fill="none" stroke="#000000" d="M90.6522,-536.0967C90.6522,-525.8205 90.6522,-513.5335 90.6522,-501.6169"/>
<polygon fill="#000000" stroke="#000000" points="94.1523,-501.3 90.6522,-491.3 87.1523,-501.3 94.1523,-501.3"/>
</g>
<!-- Node5 -->
<g id="node7" class="node">
<title>Node5</title>
<polygon fill="none" stroke="#000000" points="153.6073,-433.5 153.6073,-499.1 235.6971,-499.1 235.6971,-433.5 153.6073,-433.5"/>
<text text-anchor="middle" x="194.6522" y="-482.5" font-family="Times,serif" font-size="14.00" fill="#000000">0x080ccf90</text>
<polyline fill="none" stroke="#000000" points="153.6073,-474.3 235.6971,-474.3 "/>
<text text-anchor="middle" x="194.4902" y="-441.7" font-family="Times,serif" font-size="14.00" fill="#000000">eturn</text>
</g>
<!-- Node4&#45;&gt;Node5 -->
<g id="edge6" class="edge">
<title>Node4&#45;&gt;Node5:f0</title>
<path fill="none" stroke="#000000" d="M196.3022,-536.0468C195.6696,-527.8982 195.0852,-518.585 194.8129,-509.4563"/>
<polygon fill="#000000" stroke="#000000" points="198.3101,-509.2433 194.6522,-499.3 191.311,-509.3542 198.3101,-509.2433"/>
</g>
<!-- Node6 -->
<g id="node8" class="node">
<title>Node6</title>
<polygon fill="none" stroke="#000000" points="48.0449,-346.9 48.0449,-396.5 133.2595,-396.5 133.2595,-346.9 48.0449,-346.9"/>
<text text-anchor="middle" x="90.6522" y="-379.9" font-family="Times,serif" font-size="14.00" fill="#000000">0x080cd030</text>
<polyline fill="none" stroke="#000000" points="48.0449,-371.7 133.2595,-371.7 "/>
<text text-anchor="middle" x="90.4922" y="-355.1" font-family="Times,serif" font-size="14.00" fill="#000000">+</text>
</g>
<!-- Node5&#45;&gt;Node6 -->
<g id="edge7" class="edge">
<title>Node5&#45;&gt;Node6:f0</title>
<path fill="none" stroke="#000000" d="M168.2748,-433.3681C159.5243,-422.0407 149.9142,-409.149 141.6522,-397 140.5612,-395.3957 139.9967,-393.6418 139.5955,-391.9493"/>
<polygon fill="#000000" stroke="#000000" points="142.3375,-389.7677 133.6522,-383.7 136.6579,-393.8595 142.3375,-389.7677"/>
</g>
<!-- Node7 -->
<g id="node9" class="node">
<title>Node7</title>
<polygon fill="none" stroke="#000000" points="0,-260.3 0,-309.9 81.3044,-309.9 81.3044,-260.3 0,-260.3"/>
<text text-anchor="middle" x="40.6522" y="-293.3" font-family="Times,serif" font-size="14.00" fill="#000000">0x080ccfe0</text>
<polyline fill="none" stroke="#000000" points="0,-285.1 81.3044,-285.1 "/>
<text text-anchor="middle" x="40.4453" y="-268.5" font-family="Times,serif" font-size="14.00" fill="#000000">i</text>
</g>
<!-- Node6&#45;&gt;Node7 -->
<g id="edge8" class="edge">
<title>Node6&#45;&gt;Node7:f0</title>
<path fill="none" stroke="#000000" d="M92.2498,-346.8593C92.7365,-331.9397 92.3852,-314.0155 88.7905,-304.2699"/>
<polygon fill="#000000" stroke="#000000" points="91.188,-301.7173 81.6522,-297.1 86.2273,-306.6561 91.188,-301.7173"/>
</g>
<!-- Node8 -->
<g id="node10" class="node">
<title>Node8</title>
<polygon fill="none" stroke="#000000" points="99.4376,-260.3 99.4376,-309.9 183.8668,-309.9 183.8668,-260.3 99.4376,-260.3"/>
<text text-anchor="middle" x="141.6522" y="-293.3" font-family="Times,serif" font-size="14.00" fill="#000000">0x080cd0a0</text>
<polyline fill="none" stroke="#000000" points="99.4376,-285.1 183.8668,-285.1 "/>
<text text-anchor="middle" x="141.4376" y="-268.5" font-family="Times,serif" font-size="14.00" fill="#000000">1</text>
</g>
<!-- Node6&#45;&gt;Node8 -->
<g id="edge9" class="edge">
<title>Node6&#45;&gt;Node8:f0</title>
<path fill="none" stroke="#000000" d="M89.0546,-346.8593C88.5679,-331.9397 88.9192,-314.0155 92.5139,-304.2699"/>
<polygon fill="#000000" stroke="#000000" points="95.0771,-306.6561 99.6522,-297.1 90.1164,-301.7173 95.0771,-306.6561"/>
</g>
<!-- Node12 -->
<g id="node13" class="node">
<title>Node12</title>
<polygon fill="none" stroke="#000000" points="409.0449,-441.5 409.0449,-491.1 494.2595,-491.1 494.2595,-441.5 409.0449,-441.5"/>
<text text-anchor="middle" x="451.6522" y="-474.5" font-family="Times,serif" font-size="14.00" fill="#000000">0x080cd260</text>
<polyline fill="none" stroke="#000000" points="409.0449,-466.3 494.2595,-466.3 "/>
<text text-anchor="middle" x="451.2048" y="-449.7" font-family="Times,serif" font-size="14.00" fill="#000000">data</text>
</g>
<!-- Node11&#45;&gt;Node12 -->
<g id="edge12" class="edge">
<title>Node11&#45;&gt;Node12:f0</title>
<path fill="none" stroke="#000000" d="M913.5387,-550.1862C815.5265,-528.7097 594.4441,-482.1286 504.9027,-478.5222"/>
<polygon fill="#000000" stroke="#000000" points="504.7257,-475.0176 494.6522,-478.3 504.574,-482.016 504.7257,-475.0176"/>
</g>
<!-- Node18 -->
<g id="node14" class="node">
<title>Node18</title>
<polygon fill="none" stroke="#000000" points="715.4376,-441.5 715.4376,-491.1 799.8668,-491.1 799.8668,-441.5 715.4376,-441.5"/>
<text text-anchor="middle" x="757.6522" y="-474.5" font-family="Times,serif" font-size="14.00" fill="#000000">0x080ce830</text>
<polyline fill="none" stroke="#000000" points="715.4376,-466.3 799.8668,-466.3 "/>
<text text-anchor="middle" x="757.3829" y="-449.7" font-family="Times,serif" font-size="14.00" fill="#000000">in</text>
</g>
<!-- Node11&#45;&gt;Node18 -->
<g id="edge13" class="edge">
<title>Node11&#45;&gt;Node18:f0</title>
<path fill="none" stroke="#000000" d="M922.8723,-535.8931C888.2582,-514.4308 838.718,-485.9772 809.9341,-479.6032"/>
<polygon fill="#000000" stroke="#000000" points="810.0129,-476.0852 799.6522,-478.3 809.1327,-483.0297 810.0129,-476.0852"/>
</g>
<!-- Node21 -->
<g id="node15" class="node">
<title>Node21</title>
<polygon fill="none" stroke="#000000" points="868.4376,-441.5 868.4376,-491.1 952.8668,-491.1 952.8668,-441.5 868.4376,-441.5"/>
<text text-anchor="middle" x="910.6522" y="-474.5" font-family="Times,serif" font-size="14.00" fill="#000000">0x080ce9b0</text>
<polyline fill="none" stroke="#000000" points="868.4376,-466.3 952.8668,-466.3 "/>
<text text-anchor="middle" x="910.3849" y="-449.7" font-family="Times,serif" font-size="14.00" fill="#000000">=</text>
</g>
<!-- Node11&#45;&gt;Node21 -->
<g id="edge14" class="edge">
<title>Node11&#45;&gt;Node21:f0</title>
<path fill="none" stroke="#000000" d="M961.266,-535.6685C960.7827,-519.3478 959.6977,-499.061 957.2658,-487.505"/>
<polygon fill="#000000" stroke="#000000" points="960.262,-485.6717 952.6522,-478.3 954.004,-488.8083 960.262,-485.6717"/>
</g>
<!-- Node24 -->
<g id="node16" class="node">
<title>Node24</title>
<polygon fill="none" stroke="#000000" points="971.223,-441.5 971.223,-491.1 1054.0814,-491.1 1054.0814,-441.5 971.223,-441.5"/>
<text text-anchor="middle" x="1012.6522" y="-474.5" font-family="Times,serif" font-size="14.00" fill="#000000">0x080ceac0</text>
<polyline fill="none" stroke="#000000" points="971.223,-466.3 1054.0814,-466.3 "/>
<text text-anchor="middle" x="1012.1703" y="-449.7" font-family="Times,serif" font-size="14.00" fill="#000000">=</text>
</g>
<!-- Node11&#45;&gt;Node24 -->
<g id="edge15" class="edge">
<title>Node11&#45;&gt;Node24:f0</title>
<path fill="none" stroke="#000000" d="M962.3406,-535.6685C963.0197,-519.3478 964.3488,-499.061 966.9222,-487.505"/>
<polygon fill="#000000" stroke="#000000" points="970.1948,-488.7941 971.6522,-478.3 963.9687,-485.5948 970.1948,-488.7941"/>
</g>
<!-- Node27 -->
<g id="node17" class="node">
<title>Node27</title>
<polygon fill="none" stroke="#000000" points="1174.4376,-441.5 1174.4376,-491.1 1258.8668,-491.1 1258.8668,-441.5 1174.4376,-441.5"/>
<text text-anchor="middle" x="1216.6522" y="-474.5" font-family="Times,serif" font-size="14.00" fill="#000000">0x080cebb0</text>
<polyline fill="none" stroke="#000000" points="1174.4376,-466.3 1258.8668,-466.3 "/>
<text text-anchor="middle" x="1216.3849" y="-449.7" font-family="Times,serif" font-size="14.00" fill="#000000">=</text>
</g>
<!-- Node11&#45;&gt;Node27 -->
<g id="edge16" class="edge">
<title>Node11&#45;&gt;Node27:f0</title>
<path fill="none" stroke="#000000" d="M1000.3446,-535.8931C1039.5655,-512.8638 1103.0566,-481.7852 1164.427,-478.5715"/>
<polygon fill="#000000" stroke="#000000" points="1164.7486,-482.0643 1174.6522,-478.3 1164.5628,-475.0667 1164.7486,-482.0643"/>
</g>
<!-- Node30 -->
<g id="node18" class="node">
<title>Node30</title>
<polygon fill="none" stroke="#000000" points="1379.223,-441.5 1379.223,-491.1 1462.0814,-491.1 1462.0814,-441.5 1379.223,-441.5"/>
<text text-anchor="middle" x="1420.6522" y="-474.5" font-family="Times,serif" font-size="14.00" fill="#000000">0x080cecc0</text>
<polyline fill="none" stroke="#000000" points="1379.223,-466.3 1462.0814,-466.3 "/>
<text text-anchor="middle" x="1420.2742" y="-449.7" font-family="Times,serif" font-size="14.00" fill="#000000">while</text>
</g>
<!-- Node11&#45;&gt;Node30 -->
<g id="edge17" class="edge">
<title>Node11&#45;&gt;Node30:f0</title>
<path fill="none" stroke="#000000" d="M1009.7869,-551.2631C1106.7883,-531.8573 1320.6931,-489.1428 1369.615,-480.0312"/>
<polygon fill="#000000" stroke="#000000" points="1370.3926,-483.4488 1379.6522,-478.3 1369.2028,-476.5507 1370.3926,-483.4488"/>
</g>
<!-- Node51 -->
<g id="node19" class="node">
<title>Node51</title>
<polygon fill="none" stroke="#000000" points="1682.2146,-441.5 1682.2146,-491.1 1765.0898,-491.1 1765.0898,-441.5 1682.2146,-441.5"/>
<text text-anchor="middle" x="1723.6522" y="-474.5" font-family="Times,serif" font-size="14.00" fill="#000000">0x080cf470</text>
<polyline fill="none" stroke="#000000" points="1682.2146,-466.3 1765.0898,-466.3 "/>
<text text-anchor="middle" x="1723.1599" y="-449.7" font-family="Times,serif" font-size="14.00" fill="#000000">out</text>
</g>
<!-- Node11&#45;&gt;Node51 -->
<g id="edge18" class="edge">
<title>Node11&#45;&gt;Node51:f0</title>
<path fill="none" stroke="#000000" d="M1009.961,-555.0588C1156.9296,-537.3263 1593.4321,-484.9536 1672.2484,-478.8771"/>
<polygon fill="#000000" stroke="#000000" points="1672.8614,-482.3485 1682.6522,-478.3 1672.4737,-475.3593 1672.8614,-482.3485"/>
</g>
<!-- Node13 -->
<g id="node20" class="node">
<title>Node13</title>
<polygon fill="none" stroke="#000000" points="151.0449,-346.9 151.0449,-396.5 236.2595,-396.5 236.2595,-346.9 151.0449,-346.9"/>
<text text-anchor="middle" x="193.6522" y="-379.9" font-family="Times,serif" font-size="14.00" fill="#000000">0x080cd2b0</text>
<polyline fill="none" stroke="#000000" points="151.0449,-371.7 236.2595,-371.7 "/>
<text text-anchor="middle" x="193.4902" y="-355.1" font-family="Times,serif" font-size="14.00" fill="#000000">i</text>
</g>
<!-- Node12&#45;&gt;Node13 -->
<g id="edge19" class="edge">
<title>Node12&#45;&gt;Node13:f0</title>
<path fill="none" stroke="#000000" d="M409.0354,-460.8832C364.0138,-453.2899 292.9822,-435.7768 244.6522,-397 243.0549,-395.7184 242.3089,-394.0256 241.869,-392.2787"/>
<polygon fill="#000000" stroke="#000000" points="244.8386,-390.4257 236.6522,-383.7 238.8576,-394.0628 244.8386,-390.4257"/>
</g>
<!-- Node14 -->
<g id="node21" class="node">
<title>Node14</title>
<polygon fill="none" stroke="#000000" points="254.0449,-347.3 254.0449,-396.1 339.2595,-396.1 339.2595,-347.3 254.0449,-347.3"/>
<text text-anchor="middle" x="296.6522" y="-379.5" font-family="Times,serif" font-size="14.00" fill="#000000">0x080cd320</text>
<polyline fill="none" stroke="#000000" points="254.0449,-371.3 339.2595,-371.3 "/>
</g>
<!-- Node12&#45;&gt;Node14 -->
<g id="edge20" class="edge">
<title>Node12&#45;&gt;Node14:f0</title>
<path fill="none" stroke="#000000" d="M408.9837,-443.7405C388.8097,-431.6878 365.3323,-415.5174 347.6522,-397 346.3124,-395.5968 345.6391,-393.9308 345.2099,-392.2609"/>
<polygon fill="#000000" stroke="#000000" points="348.033,-390.1817 339.6522,-383.7 342.1617,-393.9933 348.033,-390.1817"/>
</g>
<!-- Node15 -->
<g id="node22" class="node">
<title>Node15</title>
<polygon fill="none" stroke="#000000" points="357.0449,-346.9 357.0449,-396.5 442.2595,-396.5 442.2595,-346.9 357.0449,-346.9"/>
<text text-anchor="middle" x="399.6522" y="-379.9" font-family="Times,serif" font-size="14.00" fill="#000000">0x080cd390</text>
<polyline fill="none" stroke="#000000" points="357.0449,-371.7 442.2595,-371.7 "/>
<text text-anchor="middle" x="399.3205" y="-355.1" font-family="Times,serif" font-size="14.00" fill="#000000">fib1</text>
</g>
<!-- Node12&#45;&gt;Node15 -->
<g id="edge21" class="edge">
<title>Node12&#45;&gt;Node15:f0</title>
<path fill="none" stroke="#000000" d="M451.266,-441.0685C450.7827,-424.7478 449.6977,-404.461 447.2658,-392.905"/>
<polygon fill="#000000" stroke="#000000" points="450.262,-391.0717 442.6522,-383.7 444.004,-394.2083 450.262,-391.0717"/>
</g>
<!-- Node16 -->
<g id="node23" class="node">
<title>Node16</title>
<polygon fill="none" stroke="#000000" points="460.4376,-346.9 460.4376,-396.5 544.8668,-396.5 544.8668,-346.9 460.4376,-346.9"/>
<text text-anchor="middle" x="502.6522" y="-379.9" font-family="Times,serif" font-size="14.00" fill="#000000">0x080ce740</text>
<polyline fill="none" stroke="#000000" points="460.4376,-371.7 544.8668,-371.7 "/>
<text text-anchor="middle" x="502.2132" y="-355.1" font-family="Times,serif" font-size="14.00" fill="#000000">fib2</text>
</g>
<!-- Node12&#45;&gt;Node16 -->
<g id="edge22" class="edge">
<title>Node12&#45;&gt;Node16:f0</title>
<path fill="none" stroke="#000000" d="M452.0384,-441.0685C452.5217,-424.7478 453.6067,-404.461 456.0386,-392.905"/>
<polygon fill="#000000" stroke="#000000" points="459.3004,-394.2083 460.6522,-383.7 453.0424,-391.0717 459.3004,-394.2083"/>
</g>
<!-- Node17 -->
<g id="node24" class="node">
<title>Node17</title>
<polygon fill="none" stroke="#000000" points="562.4376,-346.9 562.4376,-396.5 646.8668,-396.5 646.8668,-346.9 562.4376,-346.9"/>
<text text-anchor="middle" x="604.6522" y="-379.9" font-family="Times,serif" font-size="14.00" fill="#000000">0x080ce790</text>
<polyline fill="none" stroke="#000000" points="562.4376,-371.7 646.8668,-371.7 "/>
<text text-anchor="middle" x="604.3282" y="-355.1" font-family="Times,serif" font-size="14.00" fill="#000000">tmp</text>
</g>
<!-- Node12&#45;&gt;Node17 -->
<g id="edge23" class="edge">
<title>Node12&#45;&gt;Node17:f0</title>
<path fill="none" stroke="#000000" d="M494.314,-442.405C513.7151,-430.3165 536.1838,-414.501 553.6522,-397 555.2279,-395.4214 556.0006,-393.5306 556.5363,-391.6769"/>
<polygon fill="#000000" stroke="#000000" points="559.3452,-393.7655 562.6522,-383.7 553.7901,-389.5063 559.3452,-393.7655"/>
</g>
<!-- Node19 -->
<g id="node25" class="node">
<title>Node19</title>
<polygon fill="none" stroke="#000000" points="664.4376,-346.9 664.4376,-396.5 748.8668,-396.5 748.8668,-346.9 664.4376,-346.9"/>
<text text-anchor="middle" x="706.6522" y="-379.9" font-family="Times,serif" font-size="14.00" fill="#000000">0x080ce880</text>
<polyline fill="none" stroke="#000000" points="664.4376,-371.7 748.8668,-371.7 "/>
<text text-anchor="middle" x="706.2125" y="-355.1" font-family="Times,serif" font-size="14.00" fill="#000000">ARG</text>
</g>
<!-- Node18&#45;&gt;Node19 -->
<g id="edge24" class="edge">
<title>Node18&#45;&gt;Node19:f0</title>
<path fill="none" stroke="#000000" d="M757.266,-441.0685C756.7827,-424.7478 755.6977,-404.461 753.2658,-392.905"/>
<polygon fill="#000000" stroke="#000000" points="756.262,-391.0717 748.6522,-383.7 750.004,-394.2083 756.262,-391.0717"/>
</g>
<!-- Node22 -->
<g id="node27" class="node">
<title>Node22</title>
<polygon fill="none" stroke="#000000" points="766.4376,-346.9 766.4376,-396.5 850.8668,-396.5 850.8668,-346.9 766.4376,-346.9"/>
<text text-anchor="middle" x="808.6522" y="-379.9" font-family="Times,serif" font-size="14.00" fill="#000000">0x080ce960</text>
<polyline fill="none" stroke="#000000" points="766.4376,-371.7 850.8668,-371.7 "/>
<text text-anchor="middle" x="808.3829" y="-355.1" font-family="Times,serif" font-size="14.00" fill="#000000">i</text>
</g>
<!-- Node21&#45;&gt;Node22 -->
<g id="edge26" class="edge">
<title>Node21&#45;&gt;Node22:f0</title>
<path fill="none" stroke="#000000" d="M891.9993,-441.4534C882.2375,-428.3255 870.1621,-411.8887 859.6522,-397 858.3659,-395.1778 857.7017,-393.1957 857.1785,-391.3315"/>
<polygon fill="#000000" stroke="#000000" points="859.8115,-389.0252 850.6522,-383.7 854.4915,-393.5747 859.8115,-389.0252"/>
</g>
<!-- Node23 -->
<g id="node28" class="node">
<title>Node23</title>
<polygon fill="none" stroke="#000000" points="868.8303,-346.9 868.8303,-396.5 952.4741,-396.5 952.4741,-346.9 868.8303,-346.9"/>
<text text-anchor="middle" x="910.6522" y="-379.9" font-family="Times,serif" font-size="14.00" fill="#000000">0x080cea00</text>
<polyline fill="none" stroke="#000000" points="868.8303,-371.7 952.4741,-371.7 "/>
<text text-anchor="middle" x="910.3303" y="-355.1" font-family="Times,serif" font-size="14.00" fill="#000000">2</text>
</g>
<!-- Node21&#45;&gt;Node23 -->
<g id="edge27" class="edge">
<title>Node21&#45;&gt;Node23:f0</title>
<path fill="none" stroke="#000000" d="M910.6522,-441.4967C910.6522,-431.2205 910.6522,-418.9335 910.6522,-407.0169"/>
<polygon fill="#000000" stroke="#000000" points="914.1523,-406.7 910.6522,-396.7 907.1523,-406.7 914.1523,-406.7"/>
</g>
<!-- Node25 -->
<g id="node29" class="node">
<title>Node25</title>
<polygon fill="none" stroke="#000000" points="970.8303,-346.9 970.8303,-396.5 1054.4741,-396.5 1054.4741,-346.9 970.8303,-346.9"/>
<text text-anchor="middle" x="1012.6522" y="-379.9" font-family="Times,serif" font-size="14.00" fill="#000000">0x080cea70</text>
<polyline fill="none" stroke="#000000" points="970.8303,-371.7 1054.4741,-371.7 "/>
<text text-anchor="middle" x="1012.6059" y="-355.1" font-family="Times,serif" font-size="14.00" fill="#000000">fib1</text>
</g>
<!-- Node24&#45;&gt;Node25 -->
<g id="edge28" class="edge">
<title>Node24&#45;&gt;Node25:f0</title>
<path fill="none" stroke="#000000" d="M1012.6522,-441.4967C1012.6522,-431.2205 1012.6522,-418.9335 1012.6522,-407.0169"/>
<polygon fill="#000000" stroke="#000000" points="1016.1523,-406.7 1012.6522,-396.7 1009.1523,-406.7 1016.1523,-406.7"/>
</g>
<!-- Node26 -->
<g id="node30" class="node">
<title>Node26</title>
<polygon fill="none" stroke="#000000" points="1072.4376,-346.9 1072.4376,-396.5 1156.8668,-396.5 1156.8668,-346.9 1072.4376,-346.9"/>
<text text-anchor="middle" x="1114.6522" y="-379.9" font-family="Times,serif" font-size="14.00" fill="#000000">0x080ceb10</text>
<polyline fill="none" stroke="#000000" points="1072.4376,-371.7 1156.8668,-371.7 "/>
<text text-anchor="middle" x="1114.4376" y="-355.1" font-family="Times,serif" font-size="14.00" fill="#000000">1</text>
</g>
<!-- Node24&#45;&gt;Node26 -->
<g id="edge29" class="edge">
<title>Node24&#45;&gt;Node26:f0</title>
<path fill="none" stroke="#000000" d="M1031.3051,-441.4534C1041.0669,-428.3255 1053.1423,-411.8887 1063.6522,-397 1064.9385,-395.1778 1065.6027,-393.1957 1066.1259,-391.3315"/>
<polygon fill="#000000" stroke="#000000" points="1068.8129,-393.5747 1072.6522,-383.7 1063.4929,-389.0252 1068.8129,-393.5747"/>
</g>
<!-- Node28 -->
<g id="node31" class="node">
<title>Node28</title>
<polygon fill="none" stroke="#000000" points="1174.4376,-346.9 1174.4376,-396.5 1258.8668,-396.5 1258.8668,-346.9 1174.4376,-346.9"/>
<text text-anchor="middle" x="1216.6522" y="-379.9" font-family="Times,serif" font-size="14.00" fill="#000000">0x080ceb60</text>
<polyline fill="none" stroke="#000000" points="1174.4376,-371.7 1258.8668,-371.7 "/>
<text text-anchor="middle" x="1216.2132" y="-355.1" font-family="Times,serif" font-size="14.00" fill="#000000">fib2</text>
</g>
<!-- Node27&#45;&gt;Node28 -->
<g id="edge30" class="edge">
<title>Node27&#45;&gt;Node28:f0</title>
<path fill="none" stroke="#000000" d="M1216.6522,-441.4967C1216.6522,-431.2205 1216.6522,-418.9335 1216.6522,-407.0169"/>
<polygon fill="#000000" stroke="#000000" points="1220.1523,-406.7 1216.6522,-396.7 1213.1523,-406.7 1220.1523,-406.7"/>
</g>
<!-- Node29 -->
<g id="node32" class="node">
<title>Node29</title>
<polygon fill="none" stroke="#000000" points="1276.8303,-346.9 1276.8303,-396.5 1360.4741,-396.5 1360.4741,-346.9 1276.8303,-346.9"/>
<text text-anchor="middle" x="1318.6522" y="-379.9" font-family="Times,serif" font-size="14.00" fill="#000000">0x080cec00</text>
<polyline fill="none" stroke="#000000" points="1276.8303,-371.7 1360.4741,-371.7 "/>
<text text-anchor="middle" x="1318.3303" y="-355.1" font-family="Times,serif" font-size="14.00" fill="#000000">1</text>
</g>
<!-- Node27&#45;&gt;Node29 -->
<g id="edge31" class="edge">
<title>Node27&#45;&gt;Node29:f0</title>
<path fill="none" stroke="#000000" d="M1235.3051,-441.4534C1245.0669,-428.3255 1257.1423,-411.8887 1267.6522,-397 1268.9385,-395.1778 1269.6027,-393.1957 1270.1259,-391.3315"/>
<polygon fill="#000000" stroke="#000000" points="1272.8129,-393.5747 1276.6522,-383.7 1267.4929,-389.0252 1272.8129,-393.5747"/>
</g>
<!-- Node31 -->
<g id="node33" class="node">
<title>Node31</title>
<polygon fill="none" stroke="#000000" points="1378.4376,-346.9 1378.4376,-396.5 1462.8668,-396.5 1462.8668,-346.9 1378.4376,-346.9"/>
<text text-anchor="middle" x="1420.6522" y="-379.9" font-family="Times,serif" font-size="14.00" fill="#000000">0x080ced60</text>
<polyline fill="none" stroke="#000000" points="1378.4376,-371.7 1462.8668,-371.7 "/>
<text text-anchor="middle" x="1420.3849" y="-355.1" font-family="Times,serif" font-size="14.00" fill="#000000">&lt;</text>
</g>
<!-- Node30&#45;&gt;Node31 -->
<g id="edge32" class="edge">
<title>Node30&#45;&gt;Node31:f0</title>
<path fill="none" stroke="#000000" d="M1420.6522,-441.4967C1420.6522,-431.2205 1420.6522,-418.9335 1420.6522,-407.0169"/>
<polygon fill="#000000" stroke="#000000" points="1424.1523,-406.7 1420.6522,-396.7 1417.1523,-406.7 1424.1523,-406.7"/>
</g>
<!-- Node34 -->
<g id="node34" class="node">
<title>Node34</title>
<polygon fill="none" stroke="#000000" points="1526.6038,-346.9 1526.6038,-396.5 1622.7006,-396.5 1622.7006,-346.9 1526.6038,-346.9"/>
<text text-anchor="middle" x="1574.6522" y="-379.9" font-family="Times,serif" font-size="14.00" fill="#000000">0x080cee20</text>
<polyline fill="none" stroke="#000000" points="1526.6038,-371.7 1622.7006,-371.7 "/>
<text text-anchor="middle" x="1574.6522" y="-355.1" font-family="Times,serif" font-size="14.00" fill="#000000">COMPOUND</text>
</g>
<!-- Node30&#45;&gt;Node34 -->
<g id="edge33" class="edge">
<title>Node30&#45;&gt;Node34:f0</title>
<path fill="none" stroke="#000000" d="M1437.7443,-441.0685C1454.768,-418.9597 1483.1442,-389.5727 1516.6017,-384.4706"/>
<polygon fill="#000000" stroke="#000000" points="1516.9491,-387.9544 1526.6522,-383.7 1516.4139,-380.9748 1516.9491,-387.9544"/>
</g>
<!-- Node52 -->
<g id="node53" class="node">
<title>Node52</title>
<polygon fill="none" stroke="#000000" points="1783.6073,-346.9 1783.6073,-396.5 1865.6971,-396.5 1865.6971,-346.9 1783.6073,-346.9"/>
<text text-anchor="middle" x="1824.6522" y="-379.9" font-family="Times,serif" font-size="14.00" fill="#000000">0x080cf4c0</text>
<polyline fill="none" stroke="#000000" points="1783.6073,-371.7 1865.6971,-371.7 "/>
<text text-anchor="middle" x="1824.3822" y="-355.1" font-family="Times,serif" font-size="14.00" fill="#000000">ARG</text>
</g>
<!-- Node51&#45;&gt;Node52 -->
<g id="edge52" class="edge">
<title>Node51&#45;&gt;Node52:f0</title>
<path fill="none" stroke="#000000" d="M1730.3662,-441.0685C1737.5172,-419.8137 1750.9674,-391.832 1773.4539,-385.1687"/>
<polygon fill="#000000" stroke="#000000" points="1774.2533,-388.5898 1783.6522,-383.7 1773.2554,-381.6613 1774.2533,-388.5898"/>
</g>
<!-- Node20 -->
<g id="node26" class="node">
<title>Node20</title>
<polygon fill="none" stroke="#000000" points="664.4376,-260.7 664.4376,-309.5 748.8668,-309.5 748.8668,-260.7 664.4376,-260.7"/>
<text text-anchor="middle" x="706.6522" y="-292.9" font-family="Times,serif" font-size="14.00" fill="#000000">0x080ce8d0</text>
<polyline fill="none" stroke="#000000" points="664.4376,-284.7 748.8668,-284.7 "/>
</g>
<!-- Node19&#45;&gt;Node20 -->
<g id="edge25" class="edge">
<title>Node19&#45;&gt;Node20:f0</title>
<path fill="none" stroke="#000000" d="M706.6522,-346.7213C706.6522,-338.3033 706.6522,-328.6416 706.6522,-319.1958"/>
<polygon fill="#000000" stroke="#000000" points="710.1523,-319.1 706.6522,-309.1 703.1523,-319.1 710.1523,-319.1"/>
</g>
<!-- Node32 -->
<g id="node35" class="node">
<title>Node32</title>
<polygon fill="none" stroke="#000000" points="1229.4376,-260.3 1229.4376,-309.9 1313.8668,-309.9 1313.8668,-260.3 1229.4376,-260.3"/>
<text text-anchor="middle" x="1271.6522" y="-293.3" font-family="Times,serif" font-size="14.00" fill="#000000">0x080ced10</text>
<polyline fill="none" stroke="#000000" points="1229.4376,-285.1 1313.8668,-285.1 "/>
<text text-anchor="middle" x="1271.3829" y="-268.5" font-family="Times,serif" font-size="14.00" fill="#000000">i</text>
</g>
<!-- Node31&#45;&gt;Node32 -->
<g id="edge34" class="edge">
<title>Node31&#45;&gt;Node32:f0</title>
<path fill="none" stroke="#000000" d="M1378.3558,-350.4249C1359.9797,-339.933 1338.9729,-326.1443 1322.6522,-310.4 1321.047,-308.8515 1320.2631,-306.9719 1319.7262,-305.1195"/>
<polygon fill="#000000" stroke="#000000" points="1322.48,-302.9584 1313.6522,-297.1 1316.8999,-307.1848 1322.48,-302.9584"/>
</g>
<!-- Node33 -->
<g id="node36" class="node">
<title>Node33</title>
<polygon fill="none" stroke="#000000" points="1331.4376,-260.7 1331.4376,-309.5 1415.8668,-309.5 1415.8668,-260.7 1331.4376,-260.7"/>
<text text-anchor="middle" x="1373.6522" y="-292.9" font-family="Times,serif" font-size="14.00" fill="#000000">0x080cedb0</text>
<polyline fill="none" stroke="#000000" points="1331.4376,-284.7 1415.8668,-284.7 "/>
</g>
<!-- Node31&#45;&gt;Node33 -->
<g id="edge35" class="edge">
<title>Node31&#45;&gt;Node33:f0</title>
<path fill="none" stroke="#000000" d="M1423.5589,-346.8593C1424.8197,-332.1093 1425.4212,-314.4225 1422.4777,-304.6053"/>
<polygon fill="#000000" stroke="#000000" points="1424.9697,-302.1433 1415.6522,-297.1 1419.791,-306.853 1424.9697,-302.1433"/>
</g>
<!-- Node35 -->
<g id="node37" class="node">
<title>Node35</title>
<polygon fill="none" stroke="#000000" points="1434.223,-260.3 1434.223,-309.9 1517.0814,-309.9 1517.0814,-260.3 1434.223,-260.3"/>
<text text-anchor="middle" x="1475.6522" y="-293.3" font-family="Times,serif" font-size="14.00" fill="#000000">0x080ceec0</text>
<polyline fill="none" stroke="#000000" points="1434.223,-285.1 1517.0814,-285.1 "/>
<text text-anchor="middle" x="1475.1703" y="-268.5" font-family="Times,serif" font-size="14.00" fill="#000000">=</text>
</g>
<!-- Node34&#45;&gt;Node35 -->
<g id="edge36" class="edge">
<title>Node34&#45;&gt;Node35:f0</title>
<path fill="none" stroke="#000000" d="M1553.9296,-346.7011C1545.0214,-335.7207 1534.6184,-322.5786 1525.6522,-310.4 1524.3298,-308.6039 1523.6521,-306.6315 1523.1273,-304.7684"/>
<polygon fill="#000000" stroke="#000000" points="1525.778,-302.4825 1516.6522,-297.1 1520.4296,-306.9986 1525.778,-302.4825"/>
</g>
<!-- Node38 -->
<g id="node38" class="node">
<title>Node38</title>
<polygon fill="none" stroke="#000000" points="1534.777,-260.3 1534.777,-309.9 1614.5274,-309.9 1614.5274,-260.3 1534.777,-260.3"/>
<text text-anchor="middle" x="1574.6522" y="-293.3" font-family="Times,serif" font-size="14.00" fill="#000000">0x080ceff0</text>
<polyline fill="none" stroke="#000000" points="1534.777,-285.1 1614.5274,-285.1 "/>
<text text-anchor="middle" x="1574.2243" y="-268.5" font-family="Times,serif" font-size="14.00" fill="#000000">=</text>
</g>
<!-- Node34&#45;&gt;Node38 -->
<g id="edge37" class="edge">
<title>Node34&#45;&gt;Node38:f0</title>
<path fill="none" stroke="#000000" d="M1574.6522,-346.823C1574.6522,-338.671 1574.6522,-329.3585 1574.6522,-320.2402"/>
<polygon fill="#000000" stroke="#000000" points="1578.1523,-320.1 1574.6522,-310.1 1571.1523,-320.1 1578.1523,-320.1"/>
</g>
<!-- Node43 -->
<g id="node39" class="node">
<title>Node43</title>
<polygon fill="none" stroke="#000000" points="1634.6073,-260.3 1634.6073,-309.9 1716.6971,-309.9 1716.6971,-260.3 1634.6073,-260.3"/>
<text text-anchor="middle" x="1675.6522" y="-293.3" font-family="Times,serif" font-size="14.00" fill="#000000">0x080cf1e0</text>
<polyline fill="none" stroke="#000000" points="1634.6073,-285.1 1716.6971,-285.1 "/>
<text text-anchor="middle" x="1675.5546" y="-268.5" font-family="Times,serif" font-size="14.00" fill="#000000">=</text>
</g>
<!-- Node34&#45;&gt;Node43 -->
<g id="edge38" class="edge">
<title>Node34&#45;&gt;Node43:f0</title>
<path fill="none" stroke="#000000" d="M1594.4484,-346.8593C1606.0864,-332.2788 1620.0504,-314.8287 1628.0849,-304.9469"/>
<polygon fill="#000000" stroke="#000000" points="1630.9181,-307.015 1634.6522,-297.1 1625.55,-302.5223 1630.9181,-307.015"/>
</g>
<!-- Node46 -->
<g id="node40" class="node">
<title>Node46</title>
<polygon fill="none" stroke="#000000" points="1785.3843,-260.3 1785.3843,-309.9 1865.9201,-309.9 1865.9201,-260.3 1785.3843,-260.3"/>
<text text-anchor="middle" x="1825.6522" y="-293.3" font-family="Times,serif" font-size="14.00" fill="#000000">0x080cf2f0</text>
<polyline fill="none" stroke="#000000" points="1785.3843,-285.1 1865.9201,-285.1 "/>
<text text-anchor="middle" x="1825.3316" y="-268.5" font-family="Times,serif" font-size="14.00" fill="#000000">=</text>
</g>
<!-- Node34&#45;&gt;Node46 -->
<g id="edge39" class="edge">
<title>Node34&#45;&gt;Node46:f0</title>
<path fill="none" stroke="#000000" d="M1623.062,-350.3226C1669.8899,-330.3451 1738.9699,-302.8657 1775.4412,-297.8889"/>
<polygon fill="#000000" stroke="#000000" points="1775.9515,-301.36 1785.6522,-297.1 1775.4123,-294.3808 1775.9515,-301.36"/>
</g>
<!-- Node36 -->
<g id="node41" class="node">
<title>Node36</title>
<polygon fill="none" stroke="#000000" points="1231.8303,-173.7 1231.8303,-223.3 1315.4741,-223.3 1315.4741,-173.7 1231.8303,-173.7"/>
<text text-anchor="middle" x="1273.6522" y="-206.7" font-family="Times,serif" font-size="14.00" fill="#000000">0x080cee70</text>
<polyline fill="none" stroke="#000000" points="1231.8303,-198.5 1315.4741,-198.5 "/>
<text text-anchor="middle" x="1273.2209" y="-181.9" font-family="Times,serif" font-size="14.00" fill="#000000">tmp</text>
</g>
<!-- Node35&#45;&gt;Node36 -->
<g id="edge40" class="edge">
<title>Node35&#45;&gt;Node36:f0</title>
<path fill="none" stroke="#000000" d="M1434.086,-263.9938C1430.9132,-262.5322 1427.7434,-261.118 1424.6522,-259.8 1381.2002,-241.2734 1361.948,-252.7885 1324.6522,-223.8 1322.8912,-222.4312 1322.0489,-220.6191 1321.5053,-218.7744"/>
<polygon fill="#000000" stroke="#000000" points="1324.2846,-216.6427 1315.6522,-210.5 1318.5698,-220.6852 1324.2846,-216.6427"/>
</g>
<!-- Node37 -->
<g id="node42" class="node">
<title>Node37</title>
<polygon fill="none" stroke="#000000" points="1333.6073,-173.7 1333.6073,-223.3 1415.6971,-223.3 1415.6971,-173.7 1333.6073,-173.7"/>
<text text-anchor="middle" x="1374.6522" y="-206.7" font-family="Times,serif" font-size="14.00" fill="#000000">0x080cef30</text>
<polyline fill="none" stroke="#000000" points="1333.6073,-198.5 1415.6971,-198.5 "/>
<text text-anchor="middle" x="1374.3829" y="-181.9" font-family="Times,serif" font-size="14.00" fill="#000000">fib2</text>
</g>
<!-- Node35&#45;&gt;Node37 -->
<g id="edge41" class="edge">
<title>Node35&#45;&gt;Node37:f0</title>
<path fill="none" stroke="#000000" d="M1453.9868,-260.2035C1444.6979,-249.2412 1433.8836,-236.085 1424.6522,-223.8 1423.3123,-222.0169 1422.6279,-220.0494 1422.1024,-218.1869"/>
<polygon fill="#000000" stroke="#000000" points="1424.7613,-215.9106 1415.6522,-210.5 1419.3991,-220.4102 1424.7613,-215.9106"/>
</g>
<!-- Node39 -->
<g id="node43" class="node">
<title>Node39</title>
<polygon fill="none" stroke="#000000" points="1434,-173.7 1434,-223.3 1515.3044,-223.3 1515.3044,-173.7 1434,-173.7"/>
<text text-anchor="middle" x="1474.6522" y="-206.7" font-family="Times,serif" font-size="14.00" fill="#000000">0x080cefa0</text>
<polyline fill="none" stroke="#000000" points="1434,-198.5 1515.3044,-198.5 "/>
<text text-anchor="middle" x="1474.2756" y="-181.9" font-family="Times,serif" font-size="14.00" fill="#000000">fib2</text>
</g>
<!-- Node38&#45;&gt;Node39 -->
<g id="edge42" class="edge">
<title>Node38&#45;&gt;Node39:f0</title>
<path fill="none" stroke="#000000" d="M1553.4578,-260.1519C1544.3593,-249.1804 1533.7507,-236.0314 1524.6522,-223.8 1523.321,-222.0104 1522.6399,-220.0405 1522.1148,-218.1777"/>
<polygon fill="#000000" stroke="#000000" points="1524.7696,-215.8967 1515.6522,-210.5 1519.4142,-220.4045 1524.7696,-215.8967"/>
</g>
<!-- Node40 -->
<g id="node44" class="node">
<title>Node40</title>
<polygon fill="none" stroke="#000000" points="1533.2146,-173.7 1533.2146,-223.3 1616.0898,-223.3 1616.0898,-173.7 1533.2146,-173.7"/>
<text text-anchor="middle" x="1574.6522" y="-206.7" font-family="Times,serif" font-size="14.00" fill="#000000">0x080cf0b0</text>
<polyline fill="none" stroke="#000000" points="1533.2146,-198.5 1616.0898,-198.5 "/>
<text text-anchor="middle" x="1574.1619" y="-181.9" font-family="Times,serif" font-size="14.00" fill="#000000">+</text>
</g>
<!-- Node38&#45;&gt;Node40 -->
<g id="edge43" class="edge">
<title>Node38&#45;&gt;Node40:f0</title>
<path fill="none" stroke="#000000" d="M1574.6522,-260.223C1574.6522,-252.071 1574.6522,-242.7585 1574.6522,-233.6402"/>
<polygon fill="#000000" stroke="#000000" points="1578.1523,-233.5 1574.6522,-223.5 1571.1523,-233.5 1578.1523,-233.5"/>
</g>
<!-- Node44 -->
<g id="node47" class="node">
<title>Node44</title>
<polygon fill="none" stroke="#000000" points="1634.2146,-173.7 1634.2146,-223.3 1717.0898,-223.3 1717.0898,-173.7 1634.2146,-173.7"/>
<text text-anchor="middle" x="1675.6522" y="-206.7" font-family="Times,serif" font-size="14.00" fill="#000000">0x080cf190</text>
<polyline fill="none" stroke="#000000" points="1634.2146,-198.5 1717.0898,-198.5 "/>
<text text-anchor="middle" x="1675.4902" y="-181.9" font-family="Times,serif" font-size="14.00" fill="#000000">fib1</text>
</g>
<!-- Node43&#45;&gt;Node44 -->
<g id="edge46" class="edge">
<title>Node43&#45;&gt;Node44:f0</title>
<path fill="none" stroke="#000000" d="M1675.6522,-260.223C1675.6522,-252.071 1675.6522,-242.7585 1675.6522,-233.6402"/>
<polygon fill="#000000" stroke="#000000" points="1679.1523,-233.5 1675.6522,-223.5 1672.1523,-233.5 1679.1523,-233.5"/>
</g>
<!-- Node45 -->
<g id="node48" class="node">
<title>Node45</title>
<polygon fill="none" stroke="#000000" points="1735.2146,-173.7 1735.2146,-223.3 1818.0898,-223.3 1818.0898,-173.7 1735.2146,-173.7"/>
<text text-anchor="middle" x="1776.6522" y="-206.7" font-family="Times,serif" font-size="14.00" fill="#000000">0x080cf230</text>
<polyline fill="none" stroke="#000000" points="1735.2146,-198.5 1818.0898,-198.5 "/>
<text text-anchor="middle" x="1776.6052" y="-181.9" font-family="Times,serif" font-size="14.00" fill="#000000">tmp</text>
</g>
<!-- Node43&#45;&gt;Node45 -->
<g id="edge47" class="edge">
<title>Node43&#45;&gt;Node45:f0</title>
<path fill="none" stroke="#000000" d="M1696.3121,-260.2273C1705.4114,-249.156 1716.1674,-235.9092 1725.6522,-223.8 1727.1486,-221.8896 1727.9434,-219.8009 1728.5971,-217.8567"/>
<polygon fill="#000000" stroke="#000000" points="1731.2567,-220.1401 1735.6522,-210.5 1726.2045,-215.295 1731.2567,-220.1401"/>
</g>
<!-- Node47 -->
<g id="node49" class="node">
<title>Node47</title>
<polygon fill="none" stroke="#000000" points="1835.6073,-173.7 1835.6073,-223.3 1917.6971,-223.3 1917.6971,-173.7 1835.6073,-173.7"/>
<text text-anchor="middle" x="1876.6522" y="-206.7" font-family="Times,serif" font-size="14.00" fill="#000000">0x080cf2a0</text>
<polyline fill="none" stroke="#000000" points="1835.6073,-198.5 1917.6971,-198.5 "/>
<text text-anchor="middle" x="1876.5526" y="-181.9" font-family="Times,serif" font-size="14.00" fill="#000000">i</text>
</g>
<!-- Node46&#45;&gt;Node47 -->
<g id="edge48" class="edge">
<title>Node46&#45;&gt;Node47:f0</title>
<path fill="none" stroke="#000000" d="M1824.3799,-260.2593C1824.0894,-245.3397 1824.6778,-227.4155 1828.4073,-217.6699"/>
<polygon fill="#000000" stroke="#000000" points="1831.0064,-220.0219 1835.6522,-210.5 1826.0824,-215.0465 1831.0064,-220.0219"/>
</g>
<!-- Node48 -->
<g id="node50" class="node">
<title>Node48</title>
<polygon fill="none" stroke="#000000" points="1935.2146,-173.7 1935.2146,-223.3 2018.0898,-223.3 2018.0898,-173.7 1935.2146,-173.7"/>
<text text-anchor="middle" x="1976.6522" y="-206.7" font-family="Times,serif" font-size="14.00" fill="#000000">0x080cf340</text>
<polyline fill="none" stroke="#000000" points="1935.2146,-198.5 2018.0898,-198.5 "/>
<text text-anchor="middle" x="1976.2672" y="-181.9" font-family="Times,serif" font-size="14.00" fill="#000000">inc</text>
</g>
<!-- Node46&#45;&gt;Node48 -->
<g id="edge49" class="edge">
<title>Node46&#45;&gt;Node48:f0</title>
<path fill="none" stroke="#000000" d="M1866.0866,-262.9084C1889.6942,-249.5039 1916.7346,-233.2392 1926.6522,-223.8 1928.2678,-222.2623 1929.0556,-220.3868 1929.5929,-218.5349"/>
<polygon fill="#000000" stroke="#000000" points="1932.4256,-220.5916 1935.6522,-210.5 1926.8367,-216.3768 1932.4256,-220.5916"/>
</g>
<!-- Node41 -->
<g id="node45" class="node">
<title>Node41</title>
<polygon fill="none" stroke="#000000" points="1482.2146,-87.1 1482.2146,-136.7 1565.0898,-136.7 1565.0898,-87.1 1482.2146,-87.1"/>
<text text-anchor="middle" x="1523.6522" y="-120.1" font-family="Times,serif" font-size="14.00" fill="#000000">0x080cf060</text>
<polyline fill="none" stroke="#000000" points="1482.2146,-111.9 1565.0898,-111.9 "/>
<text text-anchor="middle" x="1523.4902" y="-95.3" font-family="Times,serif" font-size="14.00" fill="#000000">fib2</text>
</g>
<!-- Node40&#45;&gt;Node41 -->
<g id="edge44" class="edge">
<title>Node40&#45;&gt;Node41:f0</title>
<path fill="none" stroke="#000000" d="M1575.9245,-173.6593C1576.215,-158.7397 1575.6266,-140.8155 1571.8971,-131.0699"/>
<polygon fill="#000000" stroke="#000000" points="1574.222,-128.4465 1564.6522,-123.9 1569.298,-133.4219 1574.222,-128.4465"/>
</g>
<!-- Node42 -->
<g id="node46" class="node">
<title>Node42</title>
<polygon fill="none" stroke="#000000" points="1583.2146,-87.1 1583.2146,-136.7 1666.0898,-136.7 1666.0898,-87.1 1583.2146,-87.1"/>
<text text-anchor="middle" x="1624.6522" y="-120.1" font-family="Times,serif" font-size="14.00" fill="#000000">0x080cf120</text>
<polyline fill="none" stroke="#000000" points="1583.2146,-111.9 1666.0898,-111.9 "/>
<text text-anchor="middle" x="1624.4902" y="-95.3" font-family="Times,serif" font-size="14.00" fill="#000000">fib1</text>
</g>
<!-- Node40&#45;&gt;Node42 -->
<g id="edge45" class="edge">
<title>Node40&#45;&gt;Node42:f0</title>
<path fill="none" stroke="#000000" d="M1573.0546,-173.6593C1572.5679,-158.7397 1572.9192,-140.8155 1576.5139,-131.0699"/>
<polygon fill="#000000" stroke="#000000" points="1579.0771,-133.4561 1583.6522,-123.9 1574.1164,-128.5173 1579.0771,-133.4561"/>
</g>
<!-- Node49 -->
<g id="node51" class="node">
<title>Node49</title>
<polygon fill="none" stroke="#000000" points="1935.2146,-87.1 1935.2146,-136.7 2018.0898,-136.7 2018.0898,-87.1 1935.2146,-87.1"/>
<text text-anchor="middle" x="1976.6522" y="-120.1" font-family="Times,serif" font-size="14.00" fill="#000000">0x080cf390</text>
<polyline fill="none" stroke="#000000" points="1935.2146,-111.9 2018.0898,-111.9 "/>
<text text-anchor="middle" x="1976.4895" y="-95.3" font-family="Times,serif" font-size="14.00" fill="#000000">ARG</text>
</g>
<!-- Node48&#45;&gt;Node49 -->
<g id="edge50" class="edge">
<title>Node48&#45;&gt;Node49:f0</title>
<path fill="none" stroke="#000000" d="M1976.6522,-173.623C1976.6522,-165.471 1976.6522,-156.1585 1976.6522,-147.0402"/>
<polygon fill="#000000" stroke="#000000" points="1980.1523,-146.9 1976.6522,-136.9 1973.1523,-146.9 1980.1523,-146.9"/>
</g>
<!-- Node50 -->
<g id="node52" class="node">
<title>Node50</title>
<polygon fill="none" stroke="#000000" points="1935.6073,-.5 1935.6073,-50.1 2017.6971,-50.1 2017.6971,-.5 1935.6073,-.5"/>
<text text-anchor="middle" x="1976.6522" y="-33.5" font-family="Times,serif" font-size="14.00" fill="#000000">0x080cf3e0</text>
<polyline fill="none" stroke="#000000" points="1935.6073,-25.3 2017.6971,-25.3 "/>
<text text-anchor="middle" x="1976.5526" y="-8.7" font-family="Times,serif" font-size="14.00" fill="#000000">i</text>
</g>
<!-- Node49&#45;&gt;Node50 -->
<g id="edge51" class="edge">
<title>Node49&#45;&gt;Node50:f0</title>
<path fill="none" stroke="#000000" d="M1976.6522,-87.023C1976.6522,-78.871 1976.6522,-69.5585 1976.6522,-60.4402"/>
<polygon fill="#000000" stroke="#000000" points="1980.1523,-60.3 1976.6522,-50.3 1973.1523,-60.3 1980.1523,-60.3"/>
</g>
<!-- Node53 -->
<g id="node54" class="node">
<title>Node53</title>
<polygon fill="none" stroke="#000000" points="1884.2146,-260.3 1884.2146,-309.9 1967.0898,-309.9 1967.0898,-260.3 1884.2146,-260.3"/>
<text text-anchor="middle" x="1925.6522" y="-293.3" font-family="Times,serif" font-size="14.00" fill="#000000">0x080cf510</text>
<polyline fill="none" stroke="#000000" points="1884.2146,-285.1 1967.0898,-285.1 "/>
<text text-anchor="middle" x="1925.4902" y="-268.5" font-family="Times,serif" font-size="14.00" fill="#000000">fib2</text>
</g>
<!-- Node52&#45;&gt;Node53 -->
<g id="edge53" class="edge">
<title>Node52&#45;&gt;Node53:f0</title>
<path fill="none" stroke="#000000" d="M1845.3121,-346.8273C1854.4114,-335.756 1865.1674,-322.5092 1874.6522,-310.4 1876.1486,-308.4896 1876.9434,-306.4009 1877.5971,-304.4567"/>
<polygon fill="#000000" stroke="#000000" points="1880.2567,-306.7401 1884.6522,-297.1 1875.2045,-301.895 1880.2567,-306.7401"/>
</g>
</g>
</svg>
